<?xml version="1.0" encoding="utf-8"?>
<!-- Generator: Adobe Illustrator 24.3.0, SVG Export Plug-In . SVG Version: 6.00 Build 0)  -->
<svg version="1.1" id="图层_1" xmlns="http://www.w3.org/2000/svg" xmlns:xlink="http://www.w3.org/1999/xlink" x="0px" y="0px"
	 viewBox="0 0 128 128" style="enable-background:new 0 0 128 128;" xml:space="preserve">
<style type="text/css">
	.st0{fill:#FFFFFF;}
	.st1{fill:#00479D;}
	.st2{fill:none;}
	.st3{fill:#00A0E9;}
	.st4{fill:#003D96;}
</style>
<g>
	<path class="st0" d="M124,64c0,33.1-26.9,60-60,60S4,97.1,4,64S30.9,4,64,4S124,30.9,124,64z"/>
	<path class="st1" d="M64,6C32,6,6.2,32,6.2,64S32,121.8,64,121.8S121.8,96,121.8,64S96,6,64,6z M64.7,104.9
		c-22.9,0-41.6-18.6-41.6-41.6c0-22.9,18.6-41.6,41.6-41.6s41.6,18.6,41.6,41.6S87.5,104.9,64.7,104.9z"/>
	<ellipse class="st2" cx="64" cy="64" rx="51.4" ry="51.4"/>
	<g>
		<path class="st0" d="M12.5,72c-0.2,0-0.2,0-0.3,0.2H12c0,0,0,0-0.2,0V72v-0.2c0,0,0,0,0-0.2l0,0c0,0,0,0,0.2,0l1.3-0.5L13.1,70
			h-1.3h-0.2c0,0,0,0-0.2,0c0,0,0,0,0-0.2v-0.2v-0.2c0,0,0,0,0-0.2h0.2c0,0,0.2,0,0.3,0l6.3-0.3h0.2c0,0,0,0,0.2,0c0,0,0,0,0,0.2
			v0.2c0,0.2,0,0.2,0,0.2v0.2c0,0,0,0,0,0.2h-0.2L12.5,72z M17.3,69.6L17.3,69.6l-3,0.2l0.2,0.8L17.3,69.6z"/>
		<path class="st0" d="M15.3,73.9c-0.2,0-0.3,0-0.3,0c-0.2,0-0.2,0-0.2-0.2l-0.3-1.3c-0.2,0-0.3,0.2-0.5,0.2s-0.3,0.2-0.3,0.2
			c-0.2,0-0.2,0.2-0.2,0.2c0,0.2,0,0.2,0,0.3c0,0.2,0,0.2,0.2,0.3l0.2,0.2l0.2,0.2l0,0l0,0l0,0c0,0,0,0-0.2,0h-0.2h-0.2h-0.2
			c0,0,0,0-0.2,0l0,0c0,0,0,0-0.2,0c0,0-0.2,0-0.2-0.2l-0.2-0.2c0,0-0.2-0.2-0.2-0.3s0-0.3,0-0.5c0-0.2,0.2-0.3,0.3-0.5
			s0.5-0.3,0.7-0.3c0.3-0.2,0.7-0.2,1.2-0.3c0.3-0.2,0.8-0.2,1.2-0.2s0.7,0,0.8,0c0.3,0,0.5,0.2,0.7,0.2c0.2,0.2,0.3,0.2,0.3,0.3
			c0,0.2,0,0.3,0,0.5c0,0.2-0.2,0.3-0.3,0.5c-0.2,0.2-0.3,0.3-0.7,0.3c-0.3,0.2-0.5,0.2-0.8,0.3L15.3,73.9z M15.4,73.3
			c0.3-0.2,0.7-0.2,0.8-0.3c0.2-0.2,0.3-0.3,0.2-0.3c0,0,0-0.2-0.2-0.2c0,0-0.2,0-0.3,0c-0.2,0-0.2,0-0.3,0c-0.2,0-0.3,0-0.5,0
			L15.4,73.3z"/>
		<path class="st0" d="M17.6,75.1c-0.2,0-0.2,0-0.3,0h-0.2c0,0,0,0-0.2,0l0,0l0,0l0,0l0,0l0,0c0,0,0,0,0-0.2h-0.2c0,0-0.2,0-0.3,0
			c-0.2,0-0.3,0-0.5,0l-2.8,0.8c0,0,0,0-0.2,0l0,0l0,0c0,0,0,0,0-0.2v-0.2c0,0,0,0,0-0.2l0,0c0,0,0,0,0.2,0l4.6-1.3c0,0,0,0,0.2,0
			l0,0l0,0c0,0,0,0,0,0.2v0.2c0,0,0,0,0,0.2l0,0c0,0,0,0-0.2,0l-0.7,0c0.2,0,0.3,0,0.5,0s0.2,0,0.3,0c0,0,0.2,0,0.2,0.2
			c0,0,0,0,0,0.2l0,0l0,0l0,0l0,0l0,0l0,0h-0.2C17.8,75.1,17.6,75.1,17.6,75.1z"/>
		<path class="st0" d="M16.4,78.1c-0.3,0.2-0.8,0.2-1.2,0.3c-0.3,0-0.7,0-0.8,0c-0.3,0-0.5,0-0.7-0.2c-0.2-0.2-0.3-0.2-0.3-0.5
			c0-0.2,0-0.3,0-0.5s0.2-0.3,0.3-0.5c0.2-0.2,0.5-0.3,0.7-0.5c0.3-0.2,0.7-0.3,1-0.3c0.3-0.2,0.8-0.2,1.2-0.3c0.3,0,0.7,0,0.8,0
			c0.3,0,0.5,0,0.7,0.2c0.2,0.2,0.3,0.2,0.3,0.5c0,0.2,0,0.3,0,0.5c0,0.2-0.2,0.3-0.3,0.5c-0.2,0.2-0.5,0.3-0.7,0.5
			C17.3,77.8,16.9,77.9,16.4,78.1z M16.3,77.4c0.2,0,0.5-0.2,0.7-0.2c0.2,0,0.3-0.2,0.5-0.2s0.2-0.2,0.3-0.3c0-0.2,0-0.2,0-0.3
			c0-0.2-0.2-0.2-0.2-0.2c-0.2,0-0.2,0-0.3,0c-0.2,0-0.3,0-0.5,0c-0.2,0-0.5,0.2-0.7,0.2c-0.2,0-0.5,0.2-0.7,0.2
			c-0.2,0-0.3,0.2-0.5,0.2c-0.2,0-0.2,0.2-0.3,0.3c0,0.2,0,0.2,0,0.3c0,0.2,0.2,0.2,0.2,0.2c0.2,0,0.2,0,0.3,0c0.2,0,0.3,0,0.5,0
			C15.8,77.6,15.9,77.6,16.3,77.4z"/>
		<path class="st0" d="M16.1,80.2c-0.3,0.2-0.5,0.2-0.7,0.2c-0.2,0-0.3,0-0.5,0c-0.2,0-0.3-0.2-0.3-0.2c-0.2-0.2-0.2-0.2-0.2-0.3
			v-0.2v-0.2v-0.2c0,0,0-0.2,0.2-0.2c0,0,0,0,0.2-0.2c0,0,0.2,0,0.3-0.2c0.2,0,0.2,0,0.2,0h0.2l0,0l0,0c0,0,0,0,0,0.2
			c0,0,0,0.2-0.2,0.2v0.2v0.2c0,0,0,0.2,0.2,0.2h0.2h0.2h0.2c0.2,0,0.2,0,0.2-0.2l0.2-0.2c0,0,0-0.2,0.2-0.2c0,0,0-0.2,0.2-0.2
			c0,0,0-0.2,0.2-0.2c0-0.2,0.2-0.2,0.2-0.3c0.2-0.2,0.2-0.2,0.3-0.2c0.2,0,0.3-0.2,0.5-0.2s0.5-0.2,0.7-0.2c0.2,0,0.3,0,0.5,0
			s0.3,0,0.3,0.2c0.2,0,0.2,0.2,0.2,0.3v0.2v0.2v0.2c0,0,0,0,0,0.2l0,0c0,0,0,0-0.2,0c0,0,0,0-0.2,0h-0.2c-0.2,0-0.2,0-0.2,0h-0.2
			l0,0l0,0l0,0v-0.2v-0.2v-0.2v-0.2h-0.2h-0.2h-0.2c-0.2,0-0.2,0-0.2,0.2l-0.2,0.2c0,0,0,0.2-0.2,0.2c0,0,0,0.2-0.2,0.2
			c0,0,0,0.2-0.2,0.3c0,0.2-0.2,0.2-0.2,0.3c-0.2,0.2-0.2,0.2-0.3,0.2C16.4,80.1,16.3,80.2,16.1,80.2z"/>
		<path class="st0" d="M18.1,82.2c-0.3,0.2-0.8,0.3-1.2,0.3s-0.7,0.2-0.8,0.2c-0.3,0-0.5,0-0.7,0c-0.2,0-0.3-0.2-0.3-0.3v-0.2v-0.2
			c0,0,0-0.2,0.2-0.2l0.2-0.2l-2.2,0.8c0,0,0,0-0.2,0c0,0,0,0-0.2,0l0,0c0,0,0,0,0-0.2v-0.2c0,0,0,0,0-0.2l0,0c0,0,0,0,0.2,0
			l6.3-2.3c0,0,0,0,0.2,0l0,0l0,0c0,0,0,0,0,0.2v0.2c0,0,0,0,0,0.2l0,0c0,0,0,0-0.2,0l-0.3-0.2c0.2,0,0.3,0,0.5,0s0.2,0,0.3,0
			s0.2,0,0.2,0.2l0.2,0.2c0,0.2,0,0.3,0,0.5c-0.2,0.2-0.2,0.3-0.5,0.5c-0.2,0.2-0.5,0.3-0.7,0.5C18.8,82.1,18.4,82.2,18.1,82.2z
			 M17.8,81.7c0.2,0,0.3-0.2,0.5-0.2s0.3-0.2,0.5-0.2s0.2-0.2,0.3-0.2v-0.2c0,0,0,0-0.2-0.2h-0.2c0,0-0.2,0-0.3,0
			c-0.2,0-0.2,0-0.3,0l-1.5,0.5c-0.2,0.2-0.3,0.3-0.5,0.5c-0.2,0.2-0.2,0.2-0.2,0.3l0.2,0.2c0.2,0,0.2,0,0.3,0c0.2,0,0.3,0,0.5-0.2
			C17.4,81.9,17.6,81.9,17.8,81.7z"/>
		<path class="st0" d="M16.8,85.4C16.8,85.4,16.6,85.4,16.8,85.4c-0.2,0-0.2,0-0.2,0s0,0,0-0.2V85c0,0,0,0,0-0.2c0,0,0,0,0.2,0
			l0.3-0.2c-0.2,0-0.5,0-0.5-0.2c-0.2,0-0.3-0.2-0.3-0.3c0-0.2,0-0.2,0-0.3s0-0.2,0.2-0.3c0.2-0.2,0.2-0.2,0.3-0.3
			c0.2-0.2,0.3-0.2,0.7-0.3c0.3-0.2,0.5-0.2,0.7-0.2c0.2,0,0.3,0,0.5,0s0.3,0.2,0.5,0.2c0.2,0.2,0.2,0.3,0.3,0.5l0.2,0.2l0.3-0.2
			c0.2,0,0.3-0.2,0.3-0.2c0.2,0,0.2-0.2,0.2-0.2l0.2-0.2v-0.2c0-0.2-0.2-0.2-0.2-0.2l-0.2-0.2c-0.2,0-0.2,0-0.2,0h-0.2l0,0
			c0,0,0,0,0.2,0c0,0,0.2,0,0.2-0.2c0,0,0.2,0,0.2-0.2c0.2,0,0.2,0,0.2-0.2h0.2h0.2c0,0,0.2,0,0.2,0.2l0.2,0.2l0.2,0.2
			c0,0.2,0.2,0.3,0,0.5c0,0.2,0,0.3-0.2,0.3c-0.2,0.2-0.3,0.3-0.5,0.3c-0.2,0.2-0.5,0.3-0.8,0.3L16.8,85.4z M18.4,84.1l-0.2-0.2
			c0-0.2-0.2-0.2-0.2-0.2l-0.2-0.2c0,0-0.2,0-0.3,0c-0.2,0-0.2,0-0.3,0.2c-0.2,0-0.3,0.2-0.3,0.3c0,0.2-0.2,0.2,0,0.3l0.2,0.2
			c0.2,0,0.3,0,0.5,0L18.4,84.1z"/>
		<path class="st0" d="M18.4,87.2c-0.2,0-0.2,0-0.2,0.2h-0.2c0,0,0,0-0.2,0c0,0,0,0-0.2,0h-0.2h-0.2c0,0-0.2,0-0.2-0.2L17.1,87
			c0-0.2,0-0.3,0-0.5c0-0.2,0.2-0.3,0.3-0.5c0.2-0.2,0.3-0.3,0.7-0.5s0.7-0.3,1-0.5c0.5-0.2,0.8-0.3,1.2-0.5
			c0.3-0.2,0.7-0.2,0.8-0.2c0.3,0,0.5,0,0.7,0.2c0.2,0,0.3,0.2,0.3,0.3V85v0.2v0.2c0,0,0,0.2-0.2,0.2l0,0c0,0,0,0-0.2,0h-0.2
			c0,0-0.2,0-0.2,0.2c-0.2,0.2-0.3,0.2-0.3,0.2c-0.2,0-0.2,0-0.2,0s0,0,0-0.2c0,0,0-0.2,0.2-0.2c0,0,0-0.2,0.2-0.2v-0.2
			c0-0.2-0.2-0.2-0.5-0.2s-0.7,0.2-1.2,0.3c-0.2,0.2-0.5,0.2-0.7,0.3c-0.2,0.2-0.3,0.2-0.3,0.3c-0.2,0.2-0.2,0.2-0.2,0.3
			c0,0.2,0,0.2,0,0.2l0.2,0.2h0.2h0.2h0.2l0,0l0,0c0,0-0.2,0-0.2,0.2C18.6,87,18.6,87,18.4,87.2z"/>
		<path class="st0" d="M21.1,88.5c-0.2,0-0.3,0.2-0.3,0.2c-0.2,0-0.2,0-0.2,0l-0.7-1.2c-0.2,0.2-0.3,0.2-0.5,0.3
			c-0.2,0.2-0.3,0.2-0.3,0.3c0,0.2-0.2,0.2-0.2,0.3c0,0.2,0,0.2,0,0.3c0,0.2,0.2,0.2,0.2,0.2l0.2,0.2h0.2c0,0,0,0,0.2,0l0,0l0,0
			c0,0,0,0-0.2,0c0,0-0.2,0-0.2,0.2c0,0-0.2,0-0.2,0.2h-0.2c0,0,0,0-0.2,0l0,0c0,0,0,0-0.2,0c0,0-0.2,0-0.2-0.2l-0.2-0.2L18.1,89
			c-0.2-0.2-0.2-0.3-0.2-0.5c0-0.2,0.2-0.3,0.3-0.5c0.2-0.2,0.3-0.3,0.7-0.5s0.7-0.3,1-0.7c0.3-0.2,0.7-0.3,1-0.5
			c0.3-0.2,0.7-0.2,0.8-0.2c0.3,0,0.5,0,0.7,0c0.2,0,0.3,0.2,0.3,0.3c0.2,0.2,0.2,0.3,0,0.5c0,0.2-0.2,0.3-0.3,0.5
			c-0.2,0.2-0.3,0.3-0.5,0.5S21.4,88.4,21.1,88.5L21.1,88.5z M21.2,87.9c0.3-0.2,0.7-0.3,0.8-0.5s0.2-0.3,0.2-0.5l-0.2-0.2
			c-0.2,0-0.2,0-0.3,0c-0.2,0-0.2,0-0.3,0.2c-0.2,0-0.3,0.2-0.5,0.2L21.2,87.9z"/>
		<path class="st0" d="M20.1,91.7L20.1,91.7c-0.2,0-0.2,0-0.2,0s0,0-0.2,0c0,0,0,0-0.2-0.2v-0.2c0,0,0,0,0-0.2l0,0l0,0l5.6-3.1
			c0,0,0,0,0.2,0c0,0,0,0,0.2,0c0,0,0,0,0.2,0c0,0,0,0,0.2,0.2v0.2c0,0,0,0,0,0.2l0,0l0,0L20.1,91.7z"/>
		<path class="st0" d="M21.6,94.2C21.4,94.2,21.4,94.2,21.6,94.2c-0.2,0-0.2,0-0.2,0s0,0-0.2,0c0,0,0,0-0.2-0.2v-0.2c0,0,0,0,0-0.2
			l0,0l0,0l2.3-1.3c0.2-0.2,0.3-0.2,0.5-0.3c0.2,0,0.2-0.2,0.3-0.2l0.2-0.2v-0.2c0,0-0.2-0.2-0.3-0.2c-0.2,0-0.3,0-0.7,0L20.7,93
			c0,0,0,0-0.2,0c0,0,0,0-0.2,0c0,0,0,0-0.2,0c0,0,0,0-0.2-0.2v-0.2c0,0,0,0,0-0.2l0,0l0,0l4.1-2.5c0,0,0,0,0.2,0l0,0l0,0
			c0,0,0,0,0,0.2c0,0,0,0,0,0.2c0,0,0,0,0,0.2l0,0l0,0l-0.5,0.3c0.3,0,0.5,0,0.7,0c0.2,0,0.3,0.2,0.3,0.2c0,0.2,0.2,0.3,0,0.3
			c0,0.2-0.2,0.3-0.2,0.5c-0.2,0.2-0.3,0.3-0.5,0.5c-0.2,0.2-0.5,0.3-0.7,0.5L21.6,94.2z"/>
		<path class="st0" d="M28,92.2c-0.2,0-0.2,0.2-0.2,0.2h-0.2l0,0l0,0l0,0l0,0l0,0c0,0,0,0,0-0.2c0,0,0,0-0.2,0h-0.2
			c0,0-0.2,0-0.2,0.2c-0.2,0-0.2,0.2-0.3,0.2l-0.3,0.2l0.2,0.3l0,0l0,0c0,0,0,0-0.2,0.2l-0.2,0.2c-0.2,0.2-0.3,0.2-0.3,0.2h-0.2
			l-0.2-0.3l-3.3,2.2c0,0,0,0-0.2,0c0,0,0,0-0.2,0c0,0,0,0-0.2,0c0,0,0,0-0.2-0.2V95c0,0,0,0,0-0.2l0,0l0,0l3.3-2.2l-0.2-0.2
			c0,0,0,0,0-0.2c0,0,0.2-0.2,0.3-0.2c0.2,0,0.2-0.2,0.2-0.2h0.2c0,0,0,0,0.2,0l0,0l0.2,0.2l0.3-0.2c0.3-0.2,0.5-0.3,0.7-0.5
			c0.2-0.2,0.5-0.2,0.7-0.2s0.3,0,0.5,0c0.2,0,0.2,0.2,0.3,0.2v0.2v0.2c0,0,0,0,0,0.2l0,0c0,0,0,0-0.2,0.2C28.2,92,28.2,92,28,92.2z
			"/>
		<path class="st0" d="M26,96.3c-0.3,0.2-0.7,0.5-1,0.5c-0.3,0.2-0.7,0.3-0.8,0.3c-0.3,0-0.5,0-0.7,0c-0.2,0-0.3-0.2-0.5-0.3
			s-0.2-0.3-0.2-0.5s0-0.3,0.2-0.5s0.3-0.5,0.5-0.7c0.2-0.2,0.5-0.5,0.8-0.7c0.3-0.2,0.7-0.5,1-0.5c0.3-0.2,0.7-0.3,0.8-0.3
			c0.3,0,0.5,0,0.7,0s0.3,0.2,0.5,0.3c0.2,0.2,0.2,0.3,0.2,0.5c0,0.2,0,0.3-0.2,0.5s-0.3,0.5-0.5,0.7C26.7,95.8,26.4,96,26,96.3z
			 M25.5,95.8c0.2-0.2,0.3-0.3,0.5-0.3c0.2-0.2,0.3-0.2,0.3-0.3c0.2-0.2,0.2-0.2,0.2-0.3s0-0.2,0-0.3l-0.2-0.2c-0.2,0-0.2,0-0.3,0
			s-0.3,0.2-0.5,0.2c-0.2,0.2-0.3,0.2-0.5,0.3c-0.2,0.2-0.3,0.3-0.5,0.3c-0.2,0.2-0.3,0.2-0.3,0.3c-0.2,0.3-0.3,0.5-0.3,0.5
			c0,0.2,0,0.2,0,0.3l0.2,0.2c0.2,0,0.2,0,0.3,0s0.3-0.2,0.5-0.2C25.2,96.2,25.4,96,25.5,95.8z"/>
		<path class="st0" d="M28.7,96.7c-0.2,0-0.2,0.2-0.3,0.2c0,0-0.2,0-0.2,0.2c0,0,0,0-0.2,0l0,0l0,0l0,0l0,0l0,0c0,0,0,0-0.2,0h-0.2
			c0,0-0.2,0-0.3,0c-0.2,0-0.2,0-0.3,0.2L24.7,99c0,0,0,0-0.2,0c0,0,0,0-0.2,0c0,0,0,0-0.2,0c0,0,0,0-0.2-0.2v-0.2c0,0,0,0,0-0.2
			l0,0l0,0l3.8-2.8l0,0l0,0c0,0,0,0,0.2,0c0,0,0,0,0.2,0.2c0,0,0,0,0,0.2c0,0,0,0,0,0.2l0,0l0,0L28,96c0.2,0,0.3-0.2,0.5-0.2
			c0.2,0,0.2,0,0.3,0H29h0.2l0,0l0,0l0,0l0,0l0,0l0,0c0,0,0,0-0.2,0.2C28.9,96.5,28.7,96.5,28.7,96.7z"/>
		<path class="st0" d="M27.9,102.3L27.9,102.3C27.7,102.3,27.7,102.3,27.9,102.3c-0.2,0-0.2,0-0.3,0c0,0,0,0-0.2-0.2
			c0,0,0-0.2-0.2-0.2c0,0,0,0,0-0.2l0,0l0,0l2.2-1.8c0.2-0.2,0.2-0.2,0.3-0.3c0.2-0.2,0.2-0.2,0.2-0.3l0.2-0.2V99c0,0-0.2,0-0.3,0
			s-0.3,0-0.5,0.2l-2.5,2l0,0c0,0,0,0-0.2,0c0,0,0,0-0.2,0c0,0,0,0-0.2-0.2c0,0,0-0.2-0.2-0.2c0,0,0,0,0-0.2l0,0l0,0l2.2-1.8
			c0.2-0.2,0.2-0.2,0.3-0.3s0.2-0.2,0.2-0.3l0.2-0.2v-0.2c0,0-0.2,0-0.3,0s-0.3,0-0.5,0.2l-2.3,2l0,0c0,0,0,0-0.2,0c0,0,0,0-0.2,0
			c0,0,0,0-0.2-0.2c0,0,0-0.2-0.2-0.2c0,0,0,0,0-0.2l0,0l0,0l3.6-3l0,0l0,0l0,0c0,0,0,0,0.2,0.2c0,0,0,0,0,0.2c0,0,0,0,0,0.2l0,0
			l0,0l-0.5,0.3c0.3-0.2,0.5-0.2,0.7-0.2s0.3,0,0.3,0.2l0.2,0.2c0,0,0,0.2,0,0.3s0,0.2-0.2,0.3c0,0.2-0.2,0.2-0.2,0.3
			c0.2,0,0.3-0.2,0.5-0.2c0.2,0,0.2,0,0.3,0c0.2,0,0.2,0,0.2,0s0.2,0,0.2,0.2c0.2,0.2,0.2,0.2,0.2,0.3c0,0.2,0,0.3-0.2,0.5
			c-0.2,0.2-0.2,0.3-0.3,0.5c-0.2,0.2-0.3,0.3-0.5,0.5L27.9,102.3z"/>
		<path class="st0" d="M29.7,104.1L29.7,104.1c-0.2,0-0.2,0-0.2,0s0,0-0.2-0.2l-0.2-0.2c0,0,0,0,0-0.2c0,0,0,0,0-0.2l0.3-0.3
			c-0.2,0-0.3,0.2-0.5,0.2s-0.3,0-0.3-0.2c0,0-0.2-0.2-0.2-0.3c0-0.2,0-0.2,0-0.3s0.2-0.3,0.2-0.5c0.2-0.2,0.3-0.3,0.5-0.5
			c0.2-0.2,0.3-0.3,0.5-0.5c0.2-0.2,0.3-0.2,0.5-0.2c0.2,0,0.3,0,0.5,0c0.2,0,0.3,0.2,0.5,0.3l0.2,0.2l0.2-0.2
			c0.2-0.2,0.2-0.2,0.3-0.3c0-0.2,0.2-0.2,0.2-0.2v-0.2c0,0,0-0.2-0.2-0.2l-0.2-0.2c-0.2,0-0.2,0-0.3,0s-0.2,0-0.2,0H31l0,0
			c0,0,0,0,0-0.2c0,0,0,0,0.2-0.2l0.2-0.2l0.2-0.2c0,0,0.2,0,0.2-0.2h0.2c0.2,0,0.2,0,0.3,0c0.2,0,0.2,0,0.3,0.2
			c0.2,0,0.2,0.2,0.2,0.2c0.2,0.2,0.2,0.2,0.2,0.3s0,0.3,0,0.5c0,0.2-0.2,0.3-0.3,0.5s-0.3,0.3-0.5,0.7L29.7,104.1z M30.7,102.3
			l-0.2-0.2l-0.2-0.2h-0.2c0,0-0.2,0-0.2,0.2l-0.2,0.2c-0.2,0.2-0.2,0.3-0.3,0.3c0,0.2,0,0.2,0,0.3c0,0,0.2,0,0.3,0s0.3,0,0.5-0.2
			L30.7,102.3z"/>
		<path class="st0" d="M35.2,102.5C35.2,102.5,35.3,102.5,35.2,102.5c0,0.2,0,0.3-0.2,0.3l-3.1,3.3l0,0l0,0c0,0,0,0-0.2,0
			c0,0,0,0-0.2-0.2c0,0,0,0-0.2-0.2c0,0,0,0,0-0.2l0,0l0,0l2.7-2.8l-0.7-0.7l-1.5,1.7c-0.2,0.2-0.3,0.3-0.3,0.5c0,0.2,0,0.2,0,0.3
			l0,0l0,0l0,0l0,0l0,0l0,0c0,0,0,0-0.2,0.2l-0.2,0.2c-0.2,0.2-0.2,0.2-0.2,0.3l-0.2,0.2c0,0,0,0-0.2,0c0,0,0,0-0.2,0c0,0,0,0-0.2,0
			c0,0,0,0-0.2,0s-0.2-0.2-0.2-0.3c0-0.2,0-0.2,0-0.3s0.2-0.3,0.3-0.5c0.2-0.2,0.3-0.3,0.5-0.7l1.7-1.8l-0.2-0.2c0,0,0,0,0-0.2
			c0,0,0.2-0.2,0.3-0.3l0.2-0.2l0.2-0.2l0,0l0,0l0.2,0.2l0.7-0.8l0,0c0,0,0,0,0.2,0c0,0,0,0,0.2,0c0,0,0,0,0.2,0.2c0,0,0,0,0.2,0.2
			c0,0,0,0,0,0.2c0,0,0,0,0,0.2l0,0l-0.7,0.8L35.2,102.5z M36.3,101.5c-0.2,0.2-0.3,0.3-0.5,0.3s-0.2,0-0.3,0
			c-0.2-0.2-0.2-0.2-0.2-0.3c0-0.2,0.2-0.3,0.3-0.5c0.2-0.2,0.3-0.3,0.5-0.3c0.2,0,0.2,0,0.3,0c0.2,0.2,0.2,0.2,0.2,0.3
			C36.7,101.1,36.5,101.3,36.3,101.5z"/>
		<path class="st0" d="M35.8,106.1c-0.3,0.3-0.5,0.7-0.8,0.8c-0.2,0.2-0.5,0.3-0.7,0.5c-0.2,0.2-0.3,0.2-0.5,0.2
			c-0.2,0-0.3,0-0.5-0.2s-0.3-0.3-0.3-0.5c0-0.2,0-0.3,0-0.7c0-0.2,0.2-0.5,0.3-0.8c0.2-0.3,0.3-0.7,0.7-0.8
			c0.3-0.3,0.5-0.7,0.8-0.8c0.2-0.2,0.5-0.3,0.7-0.5c0.2-0.2,0.5-0.2,0.7-0.2c0.2,0,0.3,0,0.5,0.2c0.2,0.2,0.3,0.3,0.3,0.5
			c0,0.2,0,0.3,0,0.7c0,0.2-0.2,0.5-0.3,0.8C36.3,105.4,36.2,105.8,35.8,106.1z M35.3,105.8c0.2-0.2,0.3-0.3,0.3-0.5
			c0.2-0.2,0.2-0.3,0.3-0.5c0-0.2,0.2-0.3,0.2-0.3c0-0.2,0-0.2-0.2-0.3c0,0-0.2,0-0.3,0s-0.2,0-0.3,0.2c-0.2,0-0.3,0.2-0.3,0.3
			c-0.2,0.2-0.3,0.3-0.5,0.5c-0.2,0.2-0.3,0.3-0.3,0.5c-0.2,0.2-0.2,0.3-0.3,0.5c0,0.2-0.2,0.3,0,0.3c0,0.2,0,0.2,0.2,0.2
			c0,0,0.2,0,0.3,0c0.2,0,0.2,0,0.3-0.2c0.2,0,0.3-0.2,0.3-0.3C35,106.1,35.2,105.9,35.3,105.8z"/>
		<path class="st0" d="M36.7,109.6L36.7,109.6C36.5,109.6,36.5,109.6,36.7,109.6c-0.2,0.2-0.2,0.2-0.2,0c0,0,0,0-0.2,0
			c0,0-0.2,0-0.2-0.2c0,0,0,0,0-0.2l0,0l0,0l1.5-2.2c0.2-0.2,0.2-0.3,0.3-0.5c0-0.2,0.2-0.2,0.2-0.3c0-0.2,0-0.2,0-0.2
			s0-0.2-0.2-0.2c0,0-0.2,0-0.3,0c-0.2,0-0.3,0.2-0.5,0.3l-1.8,2.5l0,0l0,0c0,0,0,0-0.2,0c0,0,0,0-0.2,0c0,0-0.2,0-0.2-0.2
			c0,0,0,0,0-0.2l0,0c0,0,0,0,0-0.2l2.7-3.8l0,0l0,0c0,0,0,0,0.2,0c0,0,0,0,0.2,0c0,0,0,0,0.2,0.2l0,0l0,0l0,0l-0.3,0.5
			c0.3-0.2,0.5-0.3,0.7-0.3c0.2,0,0.3,0,0.5,0c0.2,0.2,0.2,0.2,0.2,0.3c0,0.2,0,0.3,0,0.5c0,0.2-0.2,0.3-0.3,0.7
			c-0.2,0.2-0.3,0.5-0.5,0.7L36.7,109.6z"/>
		<path class="st0" d="M40.5,111.7L40.5,111.7C40.3,111.7,40.3,111.9,40.5,111.7c-0.2,0.2-0.2,0.2-0.2,0.2s-0.2,0-0.2-0.2
			c0,0-0.2,0-0.2-0.2l0,0c0,0,0,0,0-0.2c0,0,0,0,0-0.2l0.5-1.5c0-0.2,0.2-0.3,0.2-0.5c0-0.2,0-0.2,0-0.3s0-0.2,0-0.2s0-0.2-0.2-0.2
			l-0.2-0.2l-1.3,2.5l0,0l0,0c0,0,0,0-0.2,0h-0.2c0,0-0.2,0-0.2-0.2c0,0,0,0,0-0.2c0,0,0,0,0-0.2c0,0,0,0,0-0.2l3.1-5.3
			c0-0.2,0.2-0.2,0.2-0.3H42l0.7,0.3c0,0,0.2,0,0.2,0.2c0,0,0.2,0,0.2,0.2c0.2,0.2,0.2,0.2,0.2,0.3c0,0.2,0,0.3,0,0.5
			c0,0.2,0,0.3-0.2,0.5c0,0.2-0.2,0.5-0.3,0.7c-0.2,0.2-0.2,0.3-0.3,0.5c-0.2,0.2-0.2,0.3-0.3,0.3c-0.2,0.2-0.2,0.2-0.3,0.2
			c-0.2,0-0.2,0.2-0.3,0.2v0.2c0,0,0,0.2,0,0.3s0,0.2,0,0.3c0,0.2,0,0.3-0.2,0.5l-0.5,1.5C40.6,111.4,40.5,111.6,40.5,111.7
			C40.5,111.6,40.5,111.7,40.5,111.7z M42,107.3c0.2-0.2,0.2-0.3,0.2-0.5c0-0.2,0-0.3,0-0.3s0,0,0-0.2c0,0,0,0-0.2-0.2l-0.3-0.2
			l-1,1.7l0.3,0.2h0.2c0.2,0,0.2,0,0.3-0.2l0.2-0.2C42,107.6,42,107.4,42,107.3z"/>
		<path class="st0" d="M43.8,110.6c0,0.2-0.2,0.2-0.2,0.3h-0.2l-1.2-0.5c-0.2,0.2-0.2,0.3-0.2,0.5c0,0.2,0,0.3-0.2,0.5
			c0,0.2,0,0.2,0,0.3c0,0.2,0.2,0.2,0.2,0.2c0.2,0,0.2,0,0.3,0c0.2,0,0.2,0,0.2,0h0.2H43l0,0l0,0c0,0,0,0,0,0.2c0,0,0,0.2-0.2,0.2
			c0,0,0,0.2-0.2,0.2v0.2l0,0l0,0c0,0,0,0-0.2,0h-0.2c-0.2,0-0.2,0-0.3,0c-0.2,0-0.2,0-0.3-0.2c-0.2-0.2-0.3-0.2-0.3-0.3
			c-0.2-0.2-0.2-0.3-0.2-0.7c0-0.2,0-0.5,0.2-0.8c0.2-0.3,0.2-0.7,0.5-1c0.2-0.3,0.3-0.7,0.5-1c0.2-0.3,0.3-0.5,0.5-0.7
			c0.2-0.2,0.3-0.3,0.5-0.3s0.3,0,0.5,0c0.2,0,0.3,0.2,0.3,0.3s0.2,0.3,0,0.5c0,0.2,0,0.5-0.2,0.7c-0.2,0.3-0.2,0.5-0.3,0.8
			L43.8,110.6z M43.4,109.9c0.2-0.3,0.3-0.7,0.3-0.8c0-0.2,0-0.3-0.2-0.5h-0.2l-0.2,0.2c-0.2,0-0.2,0.2-0.3,0.3
			c0,0.2-0.2,0.3-0.2,0.3L43.4,109.9z"/>
		<path class="st0" d="M45.3,112.4c-0.2,0.2-0.2,0.5-0.3,0.7s-0.3,0.3-0.3,0.3c-0.2,0.2-0.3,0.2-0.3,0.2c-0.2,0-0.3,0-0.3,0
			s-0.2,0-0.2-0.2l-0.2-0.2c0,0,0-0.2-0.2-0.2v-0.2v-0.2c0,0,0-0.2,0.2-0.3c0-0.2,0-0.2,0.2-0.2v-0.2l0,0l0,0c0,0,0,0,0,0.2v0.2
			c0,0,0,0.2,0.2,0.2l0.2,0.2h0.2h0.2c0,0,0.2,0,0.2-0.2l0.2-0.2c0-0.2,0-0.2,0-0.3v-0.2c0,0,0-0.2-0.2-0.2c0,0,0-0.2-0.2-0.2
			c0,0,0-0.2-0.2-0.3c0-0.2,0-0.2,0-0.3s0-0.3,0-0.5c0-0.2,0.2-0.3,0.2-0.5c0.2-0.2,0.2-0.3,0.3-0.5c0.2-0.2,0.2-0.3,0.3-0.3
			c0.2-0.2,0.3-0.2,0.3-0.2c0.2,0,0.3,0,0.3,0s0.2,0,0.2,0.2l0.2,0.2c0,0,0,0.2,0.2,0.2v0.2c0,0,0,0,0,0.2c0,0,0,0,0,0.2
			c0,0,0,0,0,0.2v0.2c0,0.2,0,0.2-0.2,0.2v0.2l0,0l0,0l0,0v-0.2c0,0,0-0.2-0.2-0.2l-0.2-0.2h-0.2h-0.2c0,0,0,0-0.2,0.2
			c0,0,0,0.2-0.2,0.2c0,0.2,0,0.2,0,0.3v0.2c0,0,0,0.2,0.2,0.2c0,0,0,0.2,0.2,0.2c0,0,0,0.2,0.2,0.3c0,0.2,0,0.2,0,0.3s0,0.3,0,0.5
			C45.4,112.1,45.4,112.2,45.3,112.4z"/>
		<path class="st0" d="M48.1,112.2c0,0.2-0.2,0.3-0.2,0.3h-0.2l-1.3-0.5c0,0.2-0.2,0.3-0.2,0.5c0,0.2,0,0.3,0,0.5
			c0,0.2,0,0.2,0.2,0.3l0.2,0.2c0.2,0,0.2,0,0.3,0c0.2,0,0.2,0,0.2,0h0.2h0.2l0,0l0,0c0,0,0,0,0,0.2v0.2v0.2v0.2c0,0,0,0,0,0.2l0,0
			c0,0,0,0-0.2,0h-0.2c0,0-0.2,0-0.3,0c-0.2,0-0.2,0-0.3,0c-0.2,0-0.3-0.2-0.5-0.3c-0.2-0.2-0.2-0.3-0.2-0.5c0-0.2,0-0.5,0-0.8
			c0-0.3,0.2-0.7,0.3-1.2c0.2-0.3,0.3-0.7,0.5-1c0.2-0.3,0.3-0.5,0.5-0.7c0.2-0.2,0.3-0.3,0.5-0.3s0.3,0,0.5,0
			c0.2,0,0.3,0.2,0.3,0.3c0.2,0.2,0.2,0.3,0.2,0.5s0,0.5,0,0.7c0,0.3-0.2,0.5-0.3,0.8L48.1,112.2z M47.8,111.6
			c0.2-0.3,0.2-0.7,0.2-0.8c0-0.2,0-0.3-0.2-0.3h-0.2l-0.2,0.2c0,0.2-0.2,0.2-0.2,0.3s-0.2,0.3-0.2,0.5L47.8,111.6z"/>
		<path class="st0" d="M49.7,115.2C49.7,115.4,49.7,115.4,49.7,115.2C49.6,115.4,49.6,115.4,49.7,115.2c-0.2,0.2-0.2,0.2-0.3,0.2
			h-0.2l0,0c0,0,0,0,0-0.2l0.2-0.3c-0.2,0.2-0.3,0.3-0.5,0.3s-0.3,0.2-0.5,0c-0.2,0-0.2-0.2-0.3-0.2c0-0.2-0.2-0.2-0.2-0.3
			c0-0.2,0-0.3,0-0.5c0-0.2,0-0.3,0.2-0.7c0-0.3,0.2-0.5,0.3-0.7c0.2-0.2,0.2-0.3,0.3-0.5c0.2-0.2,0.3-0.2,0.5-0.2
			c0.2,0,0.3,0,0.5,0h0.2v-0.3c0-0.2,0-0.3,0.2-0.3c0-0.2,0-0.2,0-0.3v-0.2c0,0-0.2,0-0.2-0.2c-0.2,0-0.2,0-0.3,0
			c-0.2,0-0.2,0-0.3,0.2c0,0-0.2,0-0.2,0.2h-0.2l0,0c0,0,0,0,0-0.2v-0.2v-0.2c0-0.2,0-0.2,0.2-0.2c0,0,0-0.2,0.2-0.2l0.2-0.2
			c0,0,0.2,0,0.2-0.2c0.2,0,0.2,0,0.3,0c0.2,0,0.2,0,0.3,0c0.2,0,0.3,0.2,0.3,0.2c0.2,0.2,0.2,0.2,0.2,0.3s0,0.3,0,0.7
			c0,0.2-0.2,0.5-0.2,0.8L49.7,115.2z M49.7,113.2h-0.2c-0.2,0-0.2,0-0.3,0c0,0-0.2,0-0.2,0.2l-0.2,0.2c0,0,0,0.2-0.2,0.3
			c0,0.2,0,0.3,0,0.5c0,0.2,0.2,0.2,0.2,0.2c0.2,0,0.2,0,0.3,0c0.2,0,0.2-0.2,0.3-0.3L49.7,113.2z"/>
		<path class="st0" d="M52.9,111.6c0,0.2,0,0.2,0,0.3v0.2c0,0,0,0,0,0.2l0,0l0,0l0,0l0,0l0,0c0,0,0,0-0.2,0c0,0-0.2,0-0.2,0.2
			l-0.2,0.2c0,0.2-0.2,0.2-0.2,0.3l-0.7,2.8c0,0,0,0,0,0.2l0,0c0,0,0,0-0.2,0h-0.2h-0.2c0,0,0,0-0.2,0l0,0c0,0,0,0,0-0.2l1.2-4.5
			c0,0,0,0,0-0.2l0,0c0,0,0,0,0.2,0c0,0,0,0,0.2,0h0.2l0,0l0,0c0,0,0,0,0,0.2l-0.2,0.5c0.2-0.2,0.2-0.3,0.3-0.3
			c0-0.2,0.2-0.2,0.2-0.2l0.2-0.2h0.2l0,0l0,0l0,0l0,0l0,0c0,0,0,0,0,0.2v0.2C52.9,111.4,52.9,111.6,52.9,111.6z"/>
		<path class="st0" d="M54.1,115.4c0,0.2,0,0.2,0,0.2v0.2c0,0,0,0,0,0.2c0,0,0,0,0,0.2c0,0,0,0-0.2,0.2l-0.2,0.2h-0.2h-0.2
			c-0.2,0-0.3-0.2-0.3-0.3c-0.2-0.2-0.2-0.3-0.2-0.5c0-0.2,0-0.5,0-0.8c0-0.3,0-0.7,0.2-1c0.2-0.5,0.2-0.8,0.3-1.2
			c0.2-0.3,0.3-0.7,0.3-0.8c0.2-0.2,0.3-0.3,0.5-0.5c0.2,0,0.3-0.2,0.5,0h0.2c0,0,0.2,0,0.2,0.2l0.2,0.2v0.2c0,0,0,0,0,0.2
			c0,0,0,0,0,0.2v0.2v0.2c0,0.2,0,0.3-0.2,0.3c0,0,0,0.2-0.2,0.2c0,0,0,0,0-0.2v-0.2c0,0,0-0.2-0.2-0.2l-0.2-0.2
			c-0.2,0-0.3,0-0.5,0.3c-0.2,0.2-0.3,0.7-0.3,1.2c0,0.2-0.2,0.5-0.2,0.7c0,0.2,0,0.3,0,0.5c0,0.2,0,0.2,0.2,0.3l0.2,0.2
			C54.1,115.4,54.1,115.4,54.1,115.4l0.2-0.2l0.2-0.2c0,0,0,0,0.2,0l0,0c0,0,0,0,0,0.2v0.2C54.1,115.2,54.1,115.2,54.1,115.4z"/>
		<path class="st0" d="M56.5,116.5L56.5,116.5C56.5,116.7,56.4,116.7,56.5,116.5c-0.2,0.2-0.2,0.2-0.2,0.2h-0.2H56c0,0,0,0-0.2,0
			c-0.2,0,0,0,0,0s0,0,0-0.2l0.3-2.7c0-0.2,0-0.3,0-0.5c0-0.2,0-0.2,0-0.3s0-0.2-0.2-0.2l-0.2-0.2c0,0-0.2,0-0.3,0.2
			c-0.2,0.2-0.2,0.3-0.3,0.5l-0.5,3.1c0,0,0,0,0,0.2l0,0c0,0,0,0-0.2,0h-0.2h-0.2c0,0,0,0-0.2,0l0,0c0,0,0,0,0-0.2l1-6.8
			c0,0,0,0,0-0.2l0,0c0,0,0,0,0.2,0h0.2h0.2c0,0,0,0,0.2,0l0,0c0,0,0,0,0,0.2l-0.3,2.5c0.2-0.2,0.3-0.3,0.3-0.5
			c0.2-0.2,0.3-0.2,0.3-0.2c0.2,0,0.3,0.2,0.3,0.2c0.2,0.2,0.2,0.3,0.2,0.5c0,0.2,0,0.3,0,0.7c0,0.2,0,0.5-0.2,0.8L56.5,116.5z"/>
		<path class="st0" d="M59,116.7C59,116.7,59,116.9,59,116.7C59,116.9,59,116.9,59,116.7c-0.2,0.2-0.2,0.2-0.2,0.2h-0.2h-0.2
			c0,0,0,0-0.2,0l0,0c0,0,0,0,0-0.2l0.5-6.3c0,0,0,0,0-0.2l0,0c0,0,0,0,0.2,0h0.2h0.2c0,0,0,0,0.2,0l0,0c0,0,0,0,0,0.2L59,116.7z"/>
		<path class="st0" d="M61.8,116.9C61.8,116.9,61.8,117,61.8,116.9C61.8,117,61.8,117,61.8,116.9c-0.2,0.2-0.2,0.2-0.2,0.2h-0.2
			h-0.2c0,0,0,0-0.2,0l0,0c0,0,0,0,0-0.2l0.2-2.7c0-0.2,0-0.3,0-0.5c0-0.2,0-0.2,0-0.3c0-0.2,0-0.2-0.2-0.2c0,0-0.2,0-0.2-0.2
			c0,0-0.2,0-0.2,0.2c-0.2,0.2-0.2,0.3-0.3,0.5l-0.2,3.1c0,0,0,0,0,0.2l0,0c0,0,0,0-0.2,0H60h-0.2c0,0,0,0-0.2,0l0,0c0,0,0,0,0-0.2
			l0.2-4.6c0,0,0,0,0-0.2l0,0c0,0,0,0,0.2,0c0,0,0,0,0.2,0h0.2l0,0l0,0c0,0,0,0,0,0.2v0.5c0.2-0.3,0.3-0.5,0.3-0.7
			c0.2-0.2,0.3-0.2,0.3-0.2c0.2,0,0.3,0,0.3,0.2c0.2,0.2,0.2,0.3,0.2,0.5c0,0.2,0.2,0.3,0.2,0.7c0,0.2,0,0.5,0,0.8L61.8,116.9z"/>
		<path class="st0" d="M64.2,115.5c0,0.3,0,0.5-0.2,0.7c0,0.2-0.2,0.3-0.2,0.5c-0.2,0.2-0.2,0.2-0.3,0.3c-0.2,0-0.2,0.2-0.3,0.2H63
			c0,0-0.2,0-0.2-0.2l-0.2-0.2c0,0,0,0-0.2-0.2v-0.2c0,0,0-0.2,0-0.3c0-0.2,0-0.2,0-0.2v-0.2l0,0l0,0l0,0c0,0,0,0.2,0.2,0.2l0.2,0.2
			H63h0.2c0,0,0,0,0.2-0.2v-0.2v-0.2c0-0.2,0-0.2,0-0.3c0,0,0-0.2-0.2-0.2L63,115l-0.2-0.2l-0.2-0.2c0,0-0.2-0.2-0.2-0.3
			s-0.2-0.2-0.2-0.3c0-0.2,0-0.3,0-0.5c0-0.2,0-0.5,0-0.7c0-0.2,0.2-0.3,0.2-0.5c0-0.2,0.2-0.2,0.3-0.3c0.2,0,0.2-0.2,0.3-0.2h0.2
			h0.2c0,0,0.2,0,0.2,0.2c0,0,0,0,0,0.2l0,0c0,0,0,0,0,0.2c0,0,0,0,0,0.2v0.2c0,0.2,0,0.2,0,0.2v0.2l0,0l0,0l0,0c0,0,0,0-0.2-0.2
			c0,0-0.2,0-0.2-0.2h-0.2H63c0,0,0,0-0.2,0.2v0.2v0.2c0,0.2,0,0.2,0,0.3c0,0,0,0.2,0.2,0.2l0.2,0.2l0.2,0.2l0.2,0.2
			c0,0,0.2,0.2,0.2,0.3s0.2,0.2,0.2,0.3C64,115.2,64.2,115.4,64.2,115.5z"/>
		<path class="st0" d="M66.7,112.1L66.7,112.1c0.2,0.2,0.2,0.2,0.2,0.3l0.2,4.5c0,0,0,0,0,0.2l0,0c0,0,0,0-0.2,0h-0.2h-0.2
			c0,0,0,0-0.2,0l0,0c0,0,0,0,0-0.2l-0.2-3.8h-1l0.2,2.2c0,0.3,0,0.5,0,0.5c0,0.2,0.2,0.2,0.2,0.2s0,0,0.2,0l0,0l0,0l0,0l0,0l0,0
			v0.2v0.2c0,0.2,0,0.3,0,0.3v0.2c0,0,0,0,0,0.2c0,0,0,0-0.2,0c0,0,0,0-0.2,0h-0.2c-0.2,0-0.2,0-0.3-0.2c-0.2,0-0.2-0.2-0.2-0.3
			c0-0.2-0.2-0.3-0.2-0.5c0-0.2,0-0.5,0-0.7l-0.2-2.3H64c0,0,0,0,0-0.2c0,0,0-0.2,0-0.3s0-0.2,0-0.3v-0.2c0,0,0,0,0-0.2l0,0h0.3v-1
			c0,0,0,0,0-0.2l0,0c0,0,0,0,0.2,0h0.2h0.2c0,0,0,0,0.2,0l0,0c0,0,0,0,0,0.2v1L66.7,112.1z M66.8,110.6c0,0.3,0,0.5,0,0.5
			c0,0.2-0.2,0.2-0.3,0.2s-0.2,0-0.3-0.2c0-0.2-0.2-0.3-0.2-0.5c0-0.3,0-0.5,0-0.5c0-0.2,0.2-0.2,0.3-0.2s0.2,0,0.3,0.2
			C66.7,110.1,66.8,110.4,66.8,110.6z"/>
		<path class="st0" d="M69,116.2c0,0.2,0,0.3,0,0.3v0.2c0,0,0,0,0,0.2c0,0,0,0-0.2,0c0,0,0,0-0.2,0h-0.2c-0.2,0-0.2,0-0.3,0
			c-0.2,0-0.2-0.2-0.2-0.3c0-0.2-0.2-0.3-0.2-0.5c0-0.2,0-0.5-0.2-0.7l-0.2-2.3h-0.3c0,0,0,0,0-0.2c0,0,0-0.2,0-0.3s0-0.2,0-0.3
			v-0.2c0,0,0,0,0-0.2l0,0h0.3l-0.2-1c0,0,0,0,0-0.2l0,0c0,0,0,0,0.2,0h0.2h0.2c0,0,0,0,0.2,0l0,0c0,0,0,0,0,0.2v1h0.5l0,0
			c0,0,0,0,0,0.2v0.2c0,0,0,0.2,0,0.3s0,0.3,0,0.3v0.2H68l0.2,2.2c0,0.3,0,0.5,0.2,0.5c0,0.2,0.2,0.2,0.2,0.2s0,0,0.2,0l0,0l0,0l0,0
			l0,0l0,0v0.2C69,116,69,116.2,69,116.2z"/>
		<path class="st0" d="M71.6,116.4C71.6,116.4,71.6,116.5,71.6,116.4C71.6,116.5,71.6,116.5,71.6,116.4c0,0.2,0,0.2-0.2,0.2
			c0,0,0,0-0.2,0h-0.2c0,0,0,0-0.2,0l0,0c0,0,0,0,0-0.2v-0.5c-0.2,0.3-0.2,0.5-0.3,0.7c-0.2,0.2-0.2,0.2-0.3,0.3
			c-0.2,0-0.3,0-0.3-0.2c-0.2-0.2-0.2-0.2-0.3-0.3c-0.2-0.2-0.2-0.3-0.2-0.7c0-0.2-0.2-0.5-0.2-0.8l-0.3-2.8c0,0,0,0,0-0.2l0,0
			c0,0,0,0,0.2,0h0.2h0.2c0,0,0,0,0.2,0l0,0c0,0,0,0,0,0.2l0.3,2.7c0,0.2,0,0.5,0.2,0.5c0,0.2,0,0.2,0.2,0.3c0,0.2,0.2,0.2,0.2,0.2
			h0.2c0,0,0.2,0,0.2-0.2c0-0.2,0.2-0.3,0.2-0.5l-0.5-3.1c0,0,0,0,0-0.2l0,0c0,0,0,0,0.2,0h0.2H71c0,0,0,0,0.2,0l0,0c0,0,0,0,0,0.2
			L71.6,116.4z"/>
		<path class="st0" d="M73.4,115.7c0,0.2,0,0.3,0,0.3v0.2c0,0,0,0,0,0.2c0,0,0,0-0.2,0c0,0,0,0-0.2,0H73c-0.2,0-0.2,0-0.3,0
			c-0.2,0-0.2-0.2-0.3-0.3c0-0.2-0.2-0.3-0.2-0.5c0-0.2-0.2-0.5-0.2-0.7l-0.2-2.3h-0.3c0,0,0,0-0.2-0.2c0,0,0-0.2-0.2-0.3
			c0-0.2,0-0.2,0-0.3v-0.2c0,0,0,0,0-0.2l0,0h0.3l-0.2-1c0,0,0,0,0-0.2l0,0c0,0,0,0,0.2,0h0.2h0.2c0,0,0,0,0.2,0l0,0c0,0,0,0,0,0.2
			l0.2,1h0.5l0,0l0,0v0.2c0,0,0,0.2,0,0.3c0,0.2,0,0.3,0,0.3v0.2h-0.5l0.3,2.2c0,0.3,0.2,0.5,0.2,0.5c0,0.2,0.2,0.2,0.2,0.2
			s0,0,0.2,0l0,0l0,0l0,0l0,0l0,0v0.2C73.4,115.4,73.4,115.5,73.4,115.7z"/>
		<path class="st0" d="M75.6,113.2c0,0.2,0,0.3,0,0.3s0,0.2-0.2,0.2l-1.3,0.3c0,0.2,0.2,0.3,0.2,0.5c0,0.2,0.2,0.3,0.2,0.3
			c0,0.2,0.2,0.2,0.2,0.2c0.2,0,0.2,0,0.3,0c0.2,0,0.2,0,0.3-0.2l0.2-0.2l0.2-0.2c0,0,0,0,0.2,0l0,0l0,0c0,0,0,0,0,0.2v0.2v0.2v0.2
			c0,0,0,0,0,0.2l0,0c0,0,0,0,0,0.2l-0.2,0.2l-0.2,0.2c-0.2,0-0.2,0-0.3,0.2c-0.2,0-0.3,0-0.5,0c-0.2,0-0.3-0.2-0.5-0.3
			c-0.2-0.2-0.3-0.5-0.3-0.8c-0.2-0.3-0.2-0.7-0.3-1.2c-0.2-0.3-0.2-0.8-0.2-1.2c0-0.3,0-0.7,0-0.8c0-0.2,0.2-0.5,0.2-0.7
			c0.2-0.2,0.3-0.2,0.5-0.3c0.2,0,0.3,0,0.5,0c0.2,0.2,0.3,0.2,0.5,0.3c0.2,0.2,0.2,0.3,0.3,0.7c0.2,0.3,0.2,0.5,0.2,0.8L75.6,113.2
			z M74.9,112.9c0-0.3-0.2-0.7-0.3-0.8c-0.2-0.2-0.3-0.3-0.3-0.2c0,0-0.2,0-0.2,0.2c0,0,0,0.2-0.2,0.3c0,0.2,0,0.2,0,0.3
			s0,0.3,0,0.5L74.9,112.9z"/>
		<path class="st0" d="M77.1,114.6c0,0.2,0,0.3,0.2,0.3c0,0.2,0,0.2,0,0.3c0,0.2,0,0.2,0,0.3c0,0.2,0,0.2,0,0.3v1c0,0,0,0,0,0.2l0,0
			l0,0c0,0,0,0-0.2,0h-0.2l0,0l0,0c0,0,0,0,0-0.2v-1.5l-0.2-0.8c0-0.2,0-0.2,0-0.3v-0.2c0,0,0,0,0.2-0.2h0.2h0.2c0,0,0,0,0.2,0
			c0,0,0,0,0.2,0.2C77.1,114.4,77.1,114.4,77.1,114.6z"/>
		<path class="st0" d="M81.1,113.4c0,0.2,0,0.2,0,0.2v0.2c0,0,0,0,0,0.2c0,0,0,0,0,0.2v0.2c0,0,0,0.2-0.2,0.2l-0.2,0.2
			c0,0-0.2,0.2-0.3,0.2s-0.5,0-0.7,0c-0.2-0.2-0.5-0.2-0.7-0.5c-0.2-0.2-0.3-0.5-0.7-1c-0.2-0.3-0.3-0.8-0.5-1.3
			c-0.2-0.5-0.3-1-0.3-1.5c0-0.5-0.2-0.8,0-1.2c0-0.3,0.2-0.7,0.2-0.8c0.2-0.2,0.3-0.3,0.5-0.3s0.2,0,0.3,0s0.2,0,0.3,0
			s0.2,0,0.2,0.2l0.2,0.2c0,0,0,0,0,0.2c0,0,0,0,0,0.2v0.2v0.2c0,0.2,0,0.2,0,0.3v0.2c0,0,0,0,0,0.2l0,0c0,0,0,0-0.2,0l-0.2-0.2
			c0,0-0.2-0.2-0.3-0.2c-0.2,0-0.2,0-0.3,0c-0.2,0-0.2,0.2-0.3,0.3c0,0.2-0.2,0.3-0.2,0.5c0,0.2,0,0.5,0,0.8c0,0.3,0.2,0.7,0.3,1
			c0.2,0.3,0.2,0.7,0.3,1c0.2,0.3,0.3,0.5,0.3,0.7c0.2,0.2,0.3,0.3,0.3,0.3c0.2,0,0.2,0,0.3,0s0.2-0.2,0.3-0.2l0.2-0.2
			c0-0.2,0-0.2,0-0.2v-0.2l0,0l0,0v0.2C80.9,113.1,80.9,113.2,81.1,113.4z"/>
		<path class="st0" d="M83.7,113.2C83.9,113.2,83.9,113.2,83.7,113.2c0,0.2,0,0.2,0,0.2l0,0c0,0,0,0-0.2,0h-0.2c0,0,0,0-0.2,0l0,0
			l0,0l-1-2.5c0-0.2-0.2-0.3-0.2-0.5c0-0.2-0.2-0.2-0.2-0.3l-0.2-0.2h-0.2c0,0-0.2,0.2-0.2,0.3s0,0.3,0,0.7l1.2,2.8c0,0,0,0,0,0.2
			l0,0l0,0c0,0,0,0-0.2,0h-0.2c0,0,0,0-0.2,0l0,0l0,0l-2.8-6.3c0,0,0,0,0-0.2l0,0l0,0c0,0,0,0,0.2,0h0.2c0,0,0,0,0.2,0l0,0l0,0
			l1,2.5c0-0.2,0-0.5,0.2-0.7c0-0.2,0.2-0.2,0.3-0.3c0.2,0,0.3,0,0.3,0c0.2,0,0.3,0.2,0.3,0.3c0.2,0.2,0.2,0.3,0.3,0.5
			c0.2,0.2,0.2,0.5,0.3,0.8L83.7,113.2z"/>
		<path class="st0" d="M82.6,106.9c0.2,0.2,0.2,0.5,0.2,0.5c0,0.2,0,0.2-0.2,0.3c-0.2,0-0.2,0-0.3,0c0,0-0.2-0.2-0.3-0.5
			c-0.2-0.2-0.2-0.5-0.2-0.5c0-0.2,0-0.2,0.2-0.3c0.2,0,0.2,0,0.3,0C82.2,106.6,82.4,106.8,82.6,106.9z M85,112.7L85,112.7
			c0,0.2,0,0.2,0,0.2l0,0c0,0,0,0-0.2,0h-0.2c0,0,0,0-0.2,0l0,0l0,0l-1.8-4.3c0,0,0,0,0-0.2l0,0l0,0c0,0,0,0,0.2,0h0.2
			c0,0,0,0,0.2,0l0,0l0,0L85,112.7z"/>
		<path class="st0" d="M87.5,111.6L87.5,111.6c0,0.2,0,0.2,0,0.2l0,0c0,0,0,0-0.2,0h-0.2c0,0,0,0-0.2,0l0,0l0,0l-1.2-2.3
			c-0.2-0.2-0.2-0.3-0.3-0.5c0-0.2-0.2-0.2-0.2-0.3l-0.2-0.2H85c0,0-0.2,0.2-0.2,0.3s0,0.3,0,0.7l1.3,2.8c0,0,0,0,0,0.2l0,0l0,0
			c0,0,0,0-0.2,0h-0.2c0,0,0,0-0.2,0l0,0l0,0l-2.2-4.1c0,0,0,0,0-0.2l0,0l0,0c0,0,0,0,0.2,0h0.2c0,0,0,0,0.2,0l0,0l0,0l0.2,0.5
			c0-0.3,0-0.5,0-0.7s0.2-0.3,0.3-0.3c0.2,0,0.3,0,0.3,0c0.2,0,0.3,0.2,0.5,0.3c0.2,0.2,0.3,0.3,0.3,0.5c0.2,0.2,0.3,0.5,0.5,0.8
			L87.5,111.6z"/>
		<path class="st0" d="M88.7,108.1c0,0.2,0.2,0.3,0.2,0.3v0.2l-1.2,0.7c0.2,0.2,0.2,0.3,0.3,0.5c0.2,0.2,0.2,0.2,0.3,0.3
			c0.2,0,0.2,0.2,0.3,0.2c0.2,0,0.2,0,0.3,0s0.2-0.2,0.2-0.2l0.2-0.2v-0.2c0,0,0,0,0-0.2l0,0l0,0c0,0,0,0,0,0.2c0,0,0,0.2,0.2,0.2
			c0,0,0,0.2,0.2,0.2v0.2c0,0,0,0,0,0.2l0,0c0,0,0,0,0,0.2c0,0,0,0.2-0.2,0.2l-0.2,0.2l-0.2,0.2c-0.2,0.2-0.3,0.2-0.5,0.2
			c-0.2,0-0.3-0.2-0.5-0.2c-0.2-0.2-0.3-0.3-0.7-0.7c-0.2-0.3-0.5-0.5-0.7-1c-0.2-0.3-0.3-0.7-0.5-1c-0.2-0.3-0.2-0.7-0.2-0.8
			c0-0.3,0-0.5,0-0.7c0-0.2,0.2-0.3,0.3-0.3c0.2-0.2,0.3-0.2,0.5,0c0.2,0,0.3,0.2,0.5,0.3c0.2,0.2,0.3,0.3,0.5,0.5
			c0.2,0.2,0.3,0.5,0.5,0.8L88.7,108.1z M88,107.9c-0.2-0.3-0.3-0.5-0.5-0.7c-0.2-0.2-0.3-0.2-0.5-0.2l-0.2,0.2c0,0,0,0.2,0,0.3
			c0,0.2,0,0.2,0.2,0.3c0,0.2,0.2,0.3,0.2,0.5L88,107.9z"/>
		<path class="st0" d="M91.2,107.9c0.2,0.2,0.3,0.5,0.3,0.7c0,0.2,0.2,0.3,0.2,0.5c0,0.2,0,0.3-0.2,0.5c0,0.2-0.2,0.2-0.3,0.3
			c0,0-0.2,0-0.2,0.2h-0.2h-0.2h-0.2c0,0,0,0-0.2-0.2c0,0-0.2-0.2-0.2-0.3s-0.2-0.2-0.2-0.2v-0.2l0,0l0,0c0,0,0,0,0.2,0h0.2h0.2
			c0.2,0,0.2,0,0.2,0s0,0,0.2-0.2v-0.2v-0.2c0,0,0-0.2-0.2-0.2c0-0.2-0.2-0.2-0.2-0.2s-0.2,0-0.2-0.2h-0.2c0,0-0.2,0-0.3,0
			c-0.2,0-0.2,0-0.3,0s-0.2,0-0.3-0.2c-0.2,0-0.2-0.2-0.3-0.3c-0.2-0.2-0.2-0.3-0.3-0.5c-0.2-0.2-0.2-0.3-0.3-0.5
			c0-0.2-0.2-0.3-0.2-0.5c0-0.2,0-0.3,0-0.3c0-0.2,0.2-0.2,0.3-0.3h0.2h0.2h0.2H89l0,0l0,0c0,0,0,0,0,0.2c0,0,0,0.2,0.2,0.2l0.2,0.2
			v0.2l0,0l0,0c0,0,0,0-0.2,0H89h-0.2h-0.2c0,0,0,0-0.2,0.2v0.2v0.2c0,0,0,0.2,0.2,0.2c0,0.2,0.2,0.2,0.2,0.2s0.2,0,0.2,0.2h0.2
			c0,0,0.2,0,0.3,0c0.2,0,0.2,0,0.3,0c0.2,0,0.2,0,0.3,0.2c0.2,0,0.2,0.2,0.3,0.3C91,107.6,91,107.8,91.2,107.9z"/>
		<path class="st0" d="M92.5,105.6c0.2,0.2,0.2,0.2,0.2,0.3v0.2l-1.2,0.8c0.2,0.2,0.2,0.3,0.3,0.5c0.2,0.2,0.2,0.2,0.3,0.3
			c0.2,0,0.2,0.2,0.3,0.2s0.2,0,0.3,0c0.2,0,0.2-0.2,0.2-0.2l0.2-0.2v-0.2c0,0,0,0,0-0.2l0,0l0,0c0,0,0,0,0.2,0.2c0,0,0,0.2,0.2,0.2
			c0,0,0,0.2,0.2,0.2v0.2c0,0,0,0,0,0.2l0,0c0,0,0,0,0,0.2v0.2l-0.2,0.2l-0.2,0.2c-0.2,0.2-0.3,0.2-0.5,0.2s-0.3,0-0.7-0.2
			c-0.2-0.2-0.5-0.3-0.7-0.5c-0.2-0.2-0.5-0.5-0.7-0.8c-0.2-0.3-0.5-0.7-0.7-1c-0.2-0.3-0.3-0.5-0.3-0.8c0-0.2,0-0.5,0-0.7
			s0.2-0.3,0.3-0.3c0.2-0.2,0.3-0.2,0.5-0.2c0.2,0,0.3,0.2,0.5,0.2c0.2,0.2,0.3,0.3,0.5,0.5c0.2,0.2,0.3,0.5,0.7,0.7L92.5,105.6z
			 M91.8,105.6c-0.2-0.3-0.5-0.5-0.7-0.7c-0.2-0.2-0.3-0.2-0.5,0l-0.2,0.2c0,0.2,0,0.2,0,0.3c0,0.2,0.2,0.2,0.2,0.3s0.2,0.3,0.2,0.3
			L91.8,105.6z"/>
		<path class="st0" d="M97.3,104.6c0.2,0,0.2,0.2,0.2,0.2l0.2,0.2c0,0,0,0,0,0.2c0,0,0,0-0.2,0.2l-0.2,0.2c0,0,0,0-0.2,0l0,0
			c0,0,0,0-0.2,0l-1-1.2l-1,0.8l0.7,1.2c0,0,0,0,0,0.2c0,0,0,0,0,0.2c0,0,0,0,0,0.2c0,0,0,0-0.2,0.2c0,0-0.2,0-0.2,0.2
			c0,0,0,0-0.2,0c0,0,0,0-0.2-0.2l-0.2-0.2l-3.1-5.3v-0.2c0,0,0,0,0-0.2c0,0,0,0,0-0.2c0-0.2,0.2,0,0.2-0.2l0.2-0.2h0.2
			c0,0,0,0,0.2,0c0,0,0,0,0.2,0.2L97.3,104.6z M92.8,101.6L92.8,101.6l1.5,2.5l0.7-0.5L92.8,101.6z"/>
		<path class="st0" d="M98.6,102.8l0.2,0.2c0,0,0,0.2,0.2,0.2c0,0,0,0,0,0.2c0,0,0,0,0,0.2v0.2v0.2v0.2c0,0,0,0.2-0.2,0.2
			c-0.2,0-0.3,0.2-0.5,0.2c-0.2,0-0.3,0-0.7-0.2c-0.2-0.2-0.5-0.3-0.7-0.5c-0.3-0.2-0.5-0.5-0.8-0.7c-0.3-0.3-0.7-0.7-0.8-1
			c-0.2-0.3-0.3-0.5-0.5-0.8c-0.2-0.2-0.2-0.5-0.2-0.7c0-0.2,0.2-0.3,0.2-0.3s0.2,0,0.2-0.2h0.2h0.2h0.2c0,0,0,0,0.2,0
			c0,0,0,0,0.2,0c0,0,0,0,0.2,0.2l0.2,0.2c0.2,0.2,0.2,0.3,0.3,0.3v0.2c0,0,0,0-0.2,0h-0.2H96c0,0-0.2,0-0.2,0.2
			c-0.2,0.2-0.2,0.3,0,0.5c0.2,0.3,0.3,0.5,0.7,1c0.2,0.2,0.3,0.3,0.5,0.5c0.2,0.2,0.3,0.2,0.3,0.3c0.2,0,0.2,0.2,0.3,0.2
			c0.2,0,0.2,0,0.2,0l0.2-0.2v-0.2V103v-0.2l0,0l0,0c0,0,0.2,0,0.2,0.2C98.5,102.6,98.6,102.8,98.6,102.8z"/>
		<path class="st0" d="M100.8,101.6C101,101.8,101,101.8,100.8,101.6c0,0.2,0,0.2,0,0.2s0,0-0.2,0.2l-0.2,0.2c0,0,0,0-0.2,0
			c0,0,0,0-0.2,0l0.2-0.3c0.2,0.2,0.2,0.3,0.2,0.5c0,0.2,0,0.3-0.2,0.3c0,0-0.2,0.2-0.3,0.2c-0.2,0-0.2,0-0.3,0
			c-0.2,0-0.3-0.2-0.5-0.2c-0.2-0.2-0.3-0.2-0.5-0.5c-0.2-0.2-0.3-0.3-0.5-0.5c-0.2-0.2-0.2-0.3-0.2-0.5c0-0.2,0-0.3,0-0.5
			c0-0.2,0.2-0.3,0.3-0.5l0.2-0.2l-0.2-0.2c-0.2-0.2-0.2-0.2-0.3-0.3c-0.2,0-0.2-0.2-0.3-0.2h-0.2c0,0-0.2,0-0.2,0.2l-0.2,0.2
			c0,0.2,0,0.2,0,0.3s0,0.2,0,0.2v0.2l0,0c0,0,0,0-0.2,0c0,0,0,0-0.2-0.2l-0.2-0.2l-0.2-0.2c0,0,0-0.2-0.2-0.2v-0.2c0,0,0-0.2,0-0.3
			c0-0.2,0-0.2,0.2-0.3c0-0.2,0.2-0.2,0.2-0.2c0.2-0.2,0.3-0.2,0.3-0.2c0.2,0,0.3,0,0.5,0s0.3,0.2,0.5,0.3s0.3,0.3,0.7,0.5
			L100.8,101.6z M99,100.8L99,100.8c-0.2,0.2-0.3,0.2-0.3,0.3v0.2c0,0,0,0.2,0.2,0.2l0.2,0.2c0.2,0.2,0.3,0.2,0.3,0.3
			c0.2,0,0.2,0,0.3,0c0,0,0-0.2,0-0.3s0-0.3-0.2-0.5L99,100.8z"/>
		<path class="st0" d="M102.8,99.6L102.8,99.6C102.8,99.6,102.8,99.8,102.8,99.6c0.2,0.2,0,0.2,0,0.2s0,0,0,0.2c0,0,0,0-0.2,0.2l0,0
			l0,0c0,0,0,0-0.2,0l-0.5-0.5c0.2,0.3,0.2,0.5,0.2,0.7c0,0.2,0,0.3-0.2,0.5c0,0.2,0,0.2-0.3,0.2c-0.2,0-0.3,0-0.7-0.2
			c-0.2-0.2-0.5-0.2-0.7-0.5c-0.3-0.2-0.5-0.3-0.8-0.7c-0.3-0.3-0.7-0.5-0.8-0.8c-0.2-0.3-0.3-0.5-0.5-0.7C98,98,98,97.8,98,97.6
			s0-0.3,0.2-0.5c0.2-0.2,0.2-0.2,0.3-0.2s0.3,0,0.5,0.2l-2-1.7l0,0l0,0c0,0,0,0,0-0.2c0,0,0,0,0.2-0.2c0,0,0,0,0.2-0.2
			c0,0,0,0,0.2,0c0,0,0,0,0.2,0l0,0L102.8,99.6z M100,98c-0.2-0.2-0.5-0.2-0.7-0.2c-0.2,0-0.3,0-0.3,0V98c0,0.2,0,0.2,0.2,0.3
			c0.2,0.2,0.2,0.2,0.3,0.3c0.2,0.2,0.3,0.3,0.3,0.3c0.2,0.2,0.3,0.3,0.5,0.3c0.2,0.2,0.3,0.2,0.5,0.3c0.2,0,0.3,0.2,0.3,0.2
			c0.2,0,0.2,0,0.2,0s0,0,0-0.2v-0.2c0,0,0-0.2-0.2-0.3c0-0.2-0.2-0.2-0.2-0.3L100,98z"/>
		<path class="st0" d="M102.6,96c0.2,0.2,0.2,0.2,0.3,0.3v0.2l-1,1c0.2,0.2,0.3,0.2,0.5,0.3c0.2,0.2,0.3,0.2,0.3,0.2
			c0.2,0,0.2,0,0.3,0c0.2,0,0.2,0,0.2-0.2c0,0,0.2-0.2,0.2-0.3v-0.2v-0.2V97l0,0l0,0c0,0,0,0,0.2,0c0.2,0,0.2,0,0.2,0.2l0.2,0.2
			c0,0,0,0,0.2,0.2l0,0l0,0c0,0,0,0,0,0.2v0.2c0,0,0,0.2,0,0.3c0,0.2-0.2,0.2-0.2,0.3c-0.2,0.2-0.3,0.2-0.5,0.3c-0.2,0-0.3,0-0.7,0
			c-0.2,0-0.5-0.2-0.8-0.3c-0.3-0.2-0.7-0.3-1-0.7c-0.3-0.3-0.7-0.5-0.8-0.8c-0.2-0.3-0.5-0.5-0.5-0.7c-0.2-0.2-0.2-0.5-0.2-0.7
			c0-0.2,0-0.3,0.2-0.5c0.2-0.2,0.3-0.2,0.5-0.3c0.2,0,0.3,0,0.7,0c0.2,0,0.5,0.2,0.7,0.3c0.3,0.2,0.5,0.3,0.8,0.5L102.6,96z
			 M101.8,96.2c-0.3-0.2-0.5-0.3-0.8-0.5c-0.2,0-0.3,0-0.5,0v0.2c0,0.2,0,0.2,0.2,0.3c0,0.2,0.2,0.2,0.2,0.3
			c0.2,0.2,0.2,0.2,0.3,0.3L101.8,96.2z"/>
		<path class="st0" d="M106.9,94.2C107.1,94.3,107.1,94.3,106.9,94.2C107.1,94.3,107.1,94.3,106.9,94.2c0.2,0.2,0.2,0.2,0,0.2
			c0,0,0,0,0,0.2c0,0,0,0.2-0.2,0.2c0,0,0,0-0.2,0l0,0l0,0l-2.3-1.7c-0.2-0.2-0.3-0.2-0.3-0.2c-0.2,0-0.2-0.2-0.3-0.2s-0.2,0-0.2,0
			h-0.2c0,0,0,0.2,0,0.3c0,0.2,0.2,0.3,0.3,0.5l2.7,1.8l0,0l0,0c0,0,0,0,0,0.2c0,0,0,0,0,0.2c0,0,0,0.2-0.2,0.2c0,0,0,0-0.2,0l0,0
			c0,0,0,0-0.2,0l-2.3-1.7c-0.2-0.2-0.3-0.2-0.3-0.2c-0.2,0-0.2-0.2-0.3-0.2c-0.2,0-0.2,0-0.2,0h-0.2c0,0,0,0.2,0,0.3
			c0,0.2,0.2,0.3,0.3,0.5l2.7,1.8l0,0l0,0c0,0,0,0,0,0.2c0,0,0,0,0,0.2c0,0,0,0.2-0.2,0.2c0,0,0,0-0.2,0l0,0c0,0,0,0-0.2,0l-3.8-2.7
			l0,0l0,0c0,0,0,0,0-0.2c0,0,0,0,0-0.2c0,0,0,0,0.2-0.2l0,0l0,0l0,0l0.5,0.3c-0.2-0.3-0.3-0.5-0.3-0.7s0-0.3,0-0.5l0.2-0.2
			c0,0,0.2,0,0.3,0s0.2,0,0.3,0c0.2,0,0.2,0,0.3,0.2c-0.2-0.2-0.2-0.3-0.2-0.3c0-0.2-0.2-0.2-0.2-0.3c0-0.2,0-0.2,0-0.2V92
			c0.2-0.2,0.2-0.2,0.3-0.2c0.2,0,0.3,0,0.5,0s0.3,0.2,0.7,0.3c0.2,0.2,0.5,0.3,0.7,0.3L106.9,94.2z"/>
		<path class="st0" d="M108.3,92.7l1.3,1.2l0.2,0.2c0,0,0,0.2-0.2,0.3c0,0,0,0.2-0.2,0.2c0,0,0,0-0.2,0c0,0,0,0-0.2,0
			c0,0,0,0-0.2-0.2l-1.2-1.2c0,0,0,0-0.2,0h-0.2l-4.1-1.7c-0.2,0-0.2-0.2-0.3-0.2c0,0-0.2,0-0.2-0.2c0,0,0,0,0-0.2
			c0,0,0-0.2,0.2-0.2c0,0,0-0.2,0.2-0.2c0,0,0,0,0.2,0c0,0,0,0,0.2,0h0.2l3,1.3l0,0l-2.5-2.2l-0.2-0.2c0,0,0,0,0-0.2v-0.2
			c0,0,0-0.2,0.2-0.2c0,0,0,0,0.2,0h0.2c0,0,0.2,0,0.2,0.2L108.3,92.7z"/>
		<path class="st0" d="M108.3,87.7c0.3,0.2,0.7,0.3,1,0.7c0.3,0.2,0.5,0.3,0.7,0.7c0.2,0.2,0.3,0.3,0.3,0.7c0,0.2,0,0.3-0.2,0.5
			s-0.2,0.3-0.3,0.3c-0.2,0-0.3,0.2-0.7,0c-0.2,0-0.5-0.2-0.8-0.2c-0.3-0.2-0.7-0.3-1-0.5c-0.3-0.2-0.7-0.3-1-0.7
			c-0.3-0.2-0.5-0.3-0.7-0.7c-0.2-0.2-0.3-0.3-0.3-0.7c0-0.2,0-0.3,0.2-0.5c0.2-0.2,0.2-0.3,0.3-0.3c0.2,0,0.3-0.2,0.7,0
			c0.2,0,0.5,0.2,0.8,0.2C107.4,87.2,107.9,87.4,108.3,87.7z M107.9,88.2c-0.2-0.2-0.3-0.2-0.7-0.3c-0.2,0-0.3-0.2-0.5-0.2
			c-0.2,0-0.3,0-0.3,0c-0.2,0-0.2,0-0.2,0.2c0,0,0,0.2,0,0.3c0,0.2,0.2,0.2,0.2,0.3c0.2,0.2,0.2,0.2,0.3,0.3
			c0.2,0.2,0.3,0.2,0.5,0.3c0.2,0.2,0.3,0.2,0.5,0.3c0.2,0,0.3,0.2,0.5,0.2c0.2,0,0.3,0,0.3,0c0.2,0,0.2,0,0.2-0.2c0,0,0-0.2,0-0.3
			s-0.2-0.2-0.2-0.3c-0.2-0.2-0.2-0.2-0.3-0.3C108.4,88.4,108.3,88.4,107.9,88.2z"/>
		<path class="st0" d="M105.3,84.2c0.2,0,0.2,0.2,0.2,0.2h0.2l0,0l0,0l0,0l0,0l0,0l0,0c0,0,0,0,0,0.2c0,0,0,0.2,0.2,0.2l0.2,0.2
			c0.2,0,0.2,0.2,0.3,0.2l0.3,0.2l0.2-0.3l0,0c0,0,0,0,0.2,0h0.2c0,0,0.2,0,0.2,0.2c0.2,0.2,0.3,0.2,0.3,0.2s0.2,0.2,0,0.2l-0.2,0.3
			l3.5,1.8l0,0l0,0c0,0,0,0,0,0.2v0.2V88l0,0l0,0c0,0,0,0-0.2,0l-3.5-1.8l-0.2,0.2c0,0,0,0-0.2,0s-0.2,0-0.3-0.2
			c-0.2,0-0.2-0.2-0.2-0.2s-0.2,0-0.2-0.2l0,0l0,0l0.2-0.2l-0.3-0.2c-0.3-0.2-0.5-0.3-0.7-0.5c-0.2-0.2-0.3-0.3-0.5-0.3
			c-0.2-0.2-0.2-0.3-0.2-0.3c0-0.2,0-0.2,0-0.3c0,0,0-0.2,0.2-0.2h0.2c0,0,0,0,0.2,0c0,0,0,0,0.2,0h0.2
			C105.1,84.1,105.3,84.2,105.3,84.2z"/>
		<path class="st0" d="M110.9,83.4c0.3,0.2,0.7,0.3,0.8,0.5c0.2,0.2,0.3,0.3,0.5,0.5c0.2,0.2,0.2,0.3,0.2,0.5c0,0.2,0,0.3,0,0.5
			s-0.2,0.2-0.2,0.2l-0.2,0.2c0,0-0.2,0-0.2,0.2h-0.2h-0.2c0,0-0.2,0-0.3-0.2c-0.2,0-0.2-0.2-0.2-0.2s-0.2,0-0.2-0.2l0,0l0,0
			c0,0,0,0,0.2,0h0.2c0.2,0,0.2,0,0.3-0.2c0.2,0,0.2-0.2,0.2-0.2v-0.2c0,0,0-0.2-0.2-0.2l-0.2-0.2c-0.2,0-0.2-0.2-0.3-0.2
			c-0.2,0-0.3-0.2-0.3-0.2c-0.2,0-0.2,0-0.3,0c-0.2,0-0.2,0-0.3,0.2c-0.2,0-0.2,0-0.3,0.2c-0.2,0-0.2,0-0.3,0.2c-0.2,0-0.3,0-0.5,0
			c-0.2,0-0.3,0-0.5-0.2c-0.2,0-0.5-0.2-0.7-0.3c-0.3-0.2-0.5-0.3-0.8-0.5c-0.2-0.2-0.3-0.3-0.5-0.5c-0.2-0.2-0.2-0.3-0.2-0.5
			s0-0.3,0-0.5c0,0,0-0.2,0.2-0.2l0.2-0.2c0,0,0.2,0,0.2-0.2h0.2c0,0,0,0,0.2,0c0,0,0,0,0.2,0h0.2c0,0,0.2,0,0.2,0.2
			c0.2,0,0.2,0,0.2,0.2c0,0,0.2,0,0.2,0.2l0,0l0,0c0,0,0,0-0.2,0h-0.2c0,0-0.2,0-0.2,0.2l-0.2,0.2v0.2c0,0,0,0.2,0.2,0.2l0.2,0.2
			c0,0,0.2,0.2,0.3,0.2c0.2,0,0.3,0.2,0.3,0.2c0.2,0,0.2,0,0.3,0c0.2,0,0.2,0,0.3-0.2c0.2,0,0.2,0,0.3-0.2c0.2,0,0.2,0,0.3-0.2
			c0.2,0,0.3,0,0.5,0c0.2,0,0.3,0,0.5,0.2C110.4,83.2,110.7,83.4,110.9,83.4z"/>
		<path class="st0" d="M112.9,81.9c0.2,0,0.2,0,0.2,0.2h0.2c0,0,0,0,0.2,0l0,0c0,0,0,0,0.2,0.2v0.2v0.2v0.2c0,0.2-0.2,0.3-0.3,0.3
			c-0.2,0-0.3,0.2-0.7,0.2c-0.2,0-0.5,0-0.8-0.2c-0.3-0.2-0.7-0.2-1-0.3c-0.5-0.2-0.8-0.3-1.2-0.5c-0.3-0.2-0.5-0.3-0.7-0.5
			c-0.2-0.2-0.3-0.3-0.3-0.5c0-0.2,0-0.3,0-0.5c0,0,0-0.2,0.2-0.2l0.2-0.2h0.2h0.2c0,0,0,0,0.2,0c0,0,0,0,0.2,0h0.2
			c0,0,0.2,0,0.2,0.2c0.2,0,0.3,0.2,0.3,0.2l0.2,0.2c0,0,0,0-0.2,0h-0.2h-0.2l-0.2,0.2c0,0.2,0,0.3,0.2,0.5c0.2,0.2,0.5,0.3,1,0.7
			c0.2,0.2,0.5,0.2,0.7,0.2c0.2,0,0.3,0.2,0.5,0.2c0.2,0,0.2,0,0.3,0s0.2,0,0.2-0.2v-0.2c0,0,0-0.2-0.2-0.2c0,0,0-0.2-0.2-0.2v-0.2
			l0,0c0,0,0,0,0.2,0h0.2C112.7,81.9,112.7,81.9,112.9,81.9z"/>
		<path class="st0" d="M108.1,78.9c0.3,0.2,0.3,0.2,0.5,0.3s0,0.2,0,0.2c0,0.2-0.2,0.2-0.2,0.2c-0.2,0-0.3,0-0.5-0.2
			c-0.3-0.2-0.3-0.2-0.5-0.3c0-0.2-0.2-0.2,0-0.3c0-0.2,0.2-0.2,0.2-0.2C107.6,78.8,107.8,78.8,108.1,78.9z M113.9,81.4
			C114.1,81.4,114.1,81.4,113.9,81.4C114.1,81.4,114.1,81.4,113.9,81.4c0.2,0.2,0.2,0.2,0.2,0.2v0.2v0.2l0,0l0,0c0,0,0,0-0.2,0
			l-4.5-1.8c0,0,0,0-0.2,0l0,0c0,0,0,0,0-0.2v-0.2v-0.2l0,0c0,0,0,0,0.2,0c0,0,0,0,0.2,0L113.9,81.4z"/>
		<path class="st0" d="M112.6,77.9c0.2,0,0.3,0.2,0.3,0.2v0.2l-0.5,1.2c0.2,0,0.3,0.2,0.5,0.2c0.2,0,0.3,0,0.5,0c0.2,0,0.2,0,0.3,0
			l0.2-0.2c0-0.2,0-0.2,0-0.3c0-0.2,0-0.2,0-0.2v-0.2c0,0,0,0,0-0.2l0,0l0,0c0,0,0,0,0.2,0h0.2h0.2h0.2c0,0,0,0,0.2,0l0,0
			c0,0,0,0,0,0.2v0.2c0,0,0,0.2,0,0.3s0,0.2,0,0.3c0,0.2-0.2,0.3-0.3,0.3c-0.2,0.2-0.3,0.2-0.7,0.2c-0.2,0-0.5,0-0.8-0.2
			c-0.3,0-0.7-0.2-1.2-0.3c-0.3-0.2-0.8-0.3-1-0.5c-0.3-0.2-0.5-0.3-0.7-0.5c-0.2-0.2-0.3-0.3-0.3-0.5c0-0.2,0-0.3,0-0.5
			c0-0.2,0.2-0.3,0.3-0.3c0.2,0,0.3-0.2,0.5-0.2c0.2,0,0.5,0,0.8,0.2c0.3,0,0.5,0.2,0.8,0.3L112.6,77.9z M112.1,78.4
			c-0.3-0.2-0.7-0.2-0.8-0.2c-0.2,0-0.3,0-0.5,0.2v0.2l0.2,0.2c0.2,0,0.2,0.2,0.3,0.2s0.3,0.2,0.5,0.2L112.1,78.4z"/>
		<path class="st0" d="M115.9,76.4L115.9,76.4L115.9,76.4c0.2,0.2,0.2,0.2,0.2,0.2v0.2v0.2l0,0l0,0c0,0,0,0-0.2,0l-2.8-0.8
			c-0.2,0-0.3-0.2-0.5-0.2c-0.2,0-0.2,0-0.3,0c-0.2,0-0.2,0-0.2,0s-0.2,0-0.2,0.2c0,0,0,0.2,0.2,0.3c0.2,0.2,0.2,0.3,0.5,0.3l3,1
			l0,0l0,0c0,0,0,0,0,0.2v0.2v0.2l0,0l0,0c0,0,0,0-0.2,0l-4.5-1.5c0,0,0,0-0.2,0l0,0c0,0,0,0,0-0.2c0,0,0,0,0-0.2v-0.2l0,0l0,0
			c0,0,0,0,0.2,0l0.5,0.2c-0.2-0.2-0.3-0.3-0.5-0.5c-0.2-0.2-0.2-0.3,0-0.5c0-0.2,0.2-0.2,0.3-0.3c0.2,0,0.3-0.2,0.5-0.2
			c0.2,0,0.3,0,0.7,0c0.2,0,0.5,0.2,0.8,0.2L115.9,76.4z"/>
		<path class="st0" d="M115.9,74.1c0.2,0,0.2,0,0.2,0h0.2c0,0,0,0,0.2,0c0,0,0,0,0.2,0c0,0,0,0,0.2,0.2c0,0,0,0.2,0.2,0.2v0.2v0.2
			c0,0.2-0.2,0.3-0.3,0.3c-0.2,0.2-0.3,0.2-0.7,0.2c-0.2,0-0.5,0-0.8,0c-0.3,0-0.7-0.2-1-0.3c-0.5-0.2-0.8-0.3-1.2-0.5
			c-0.3-0.2-0.5-0.3-0.8-0.5c-0.2-0.2-0.3-0.3-0.3-0.5s0-0.3,0-0.5c0,0,0-0.2,0.2-0.2l0.2-0.2c0,0,0.2,0,0.2-0.2h0.2c0,0,0,0,0.2,0
			c0,0,0,0,0.2,0h0.2h0.2c0.2,0,0.3,0.2,0.3,0.2s0.2,0,0.2,0.2c0,0,0,0-0.2,0h-0.2c0,0-0.2,0-0.2,0.2l-0.2,0.2c0,0.2,0,0.3,0.3,0.5
			c0.2,0.2,0.7,0.3,1.2,0.5c0.2,0,0.5,0.2,0.7,0.2c0.2,0,0.3,0,0.5,0s0.3,0,0.3,0l0.2-0.2v-0.2c0,0,0-0.2-0.2-0.2l-0.2-0.2
			c0,0,0,0,0-0.2l0,0c0,0,0,0,0.2,0h0.2C115.5,73.9,115.7,73.9,115.9,74.1z"/>
		<path class="st0" d="M114.7,71.3c0.2,0,0.3,0.2,0.3,0.2s0.2,0.2,0,0.2l-0.2,1.2c0.2,0,0.3,0.2,0.5,0.2c0.2,0,0.3,0,0.5,0
			c0.2,0,0.2,0,0.3-0.2l0.2-0.2c0-0.2,0-0.2,0-0.3c0-0.2,0-0.2,0-0.2V72c0,0,0,0,0-0.2l0,0l0,0c0,0,0,0,0.2,0h0.2h0.2h0.2
			c0,0,0,0,0.2,0l0,0c0,0,0,0,0,0.2v0.2c0,0,0,0.2,0,0.3c0,0.2,0,0.2,0,0.3c0,0.2-0.2,0.3-0.3,0.5c-0.2,0.2-0.3,0.2-0.5,0.2
			c-0.2,0-0.5,0-0.8,0s-0.7-0.2-1.2-0.2c-0.3-0.2-0.8-0.2-1.2-0.3c-0.3-0.2-0.5-0.3-0.8-0.5c-0.2-0.2-0.3-0.3-0.5-0.5
			c0-0.2-0.2-0.3,0-0.5c0-0.2,0.2-0.3,0.3-0.3c0.2-0.2,0.3-0.2,0.5-0.2c0.2,0,0.5,0,0.8,0s0.7,0.2,1,0.2L114.7,71.3z M114.2,71.6
			c-0.3-0.2-0.7-0.2-0.8-0.2c-0.2,0-0.3,0.2-0.3,0.2v0.2l0.2,0.2c0.2,0,0.2,0.2,0.3,0.2s0.3,0.2,0.5,0.2L114.2,71.6z"/>
		<path class="st0" d="M116.4,69.5c0.3,0,0.5,0.2,0.7,0.2c0.2,0.2,0.3,0.2,0.5,0.3c0.2,0.2,0.2,0.2,0.2,0.3c0,0.2,0,0.3,0,0.3
			s0,0.2-0.2,0.2l-0.2,0.2l-0.2,0.2H117h-0.2c0,0-0.2,0-0.3,0s-0.2,0-0.2,0h-0.2l0,0l0,0c0,0,0,0,0.2,0c0,0,0.2,0,0.2-0.2l0.2-0.2
			l0.2-0.2v-0.2v-0.2c0,0-0.2,0-0.2-0.2h-0.2c-0.2,0-0.2,0-0.3,0H116c0,0-0.2,0-0.2,0.2l-0.2,0.2l-0.2,0.2c-0.2,0-0.2,0-0.3,0.2
			c-0.2,0-0.3,0-0.5,0c-0.2,0-0.3,0-0.5-0.2c-0.2,0-0.5-0.2-0.7-0.2c-0.2,0-0.3-0.2-0.5-0.3c-0.2-0.2-0.2-0.2-0.2-0.3
			c0-0.2,0-0.3,0-0.3v-0.2c0,0,0-0.2,0.2-0.2c0,0,0.2,0,0.2-0.2h0.2c0,0,0,0,0.2,0c0,0,0,0,0.2,0h0.2h0.2c0.2,0,0.2,0,0.2,0h0.2l0,0
			l0,0l0,0h-0.2c0,0-0.2,0-0.2,0.2l-0.2,0.2v0.2v0.2c0,0,0.2,0,0.2,0.2h0.2c0.2,0,0.2,0,0.3,0h0.2c0,0,0.2,0,0.2-0.2l0.2-0.2
			l0.2-0.2c0.2,0,0.2,0,0.3-0.2c0.2,0,0.3,0,0.5,0C116,69.5,116.2,69.5,116.4,69.5z"/>
	</g>
	<g>
		<g>
			<g>
				<path class="st1" d="M48.9,73.6l15.7-26.4V27.4L30.9,80.1C36.5,77.3,42.5,74.9,48.9,73.6z"/>
			</g>
			<g>
				<path class="st3" d="M64.7,71.8V52.1L52.7,72.8C56.5,72.1,60.5,71.8,64.7,71.8z"/>
			</g>
			<g>
				<path class="st1" d="M64.7,52.1v19.7c4.1,0,8.1,0.3,11.9,1L64.7,52.1z"/>
			</g>
			<g>
				<path class="st3" d="M98.5,80.1L64.7,27.4v19.9l15.7,26.4C86.9,74.9,92.8,77.3,98.5,80.1z"/>
			</g>
		</g>
		<g>
			<path class="st4" d="M56,74.6h3.5l3.1,7.1h-3l-0.3-0.8h-3L56,81.7h-3.1L56,74.6z M57.9,76.8L57.9,76.8L57,79.2h1.7L57.9,76.8z"/>
			<path class="st4" d="M63,74.6h2.8v7.1H63V74.6z"/>
			<path class="st4" d="M67.5,74.6h6.1c0.8,0,1.3,0,1.7,0.3c0.5,0.3,1,1,1,1.7s-0.3,1.3-1.2,1.7l0,0c0.5,0.2,0.8,0.5,0.8,1.2
				l0.2,1.5c0,0.3,0.2,0.7,0.3,0.8h-3.1c-0.2-0.2-0.2-0.5-0.2-1.3c0-0.5-0.2-0.8-0.8-0.8h-2v2.2h-2.8C67.5,81.7,67.5,74.6,67.5,74.6
				z M70.3,77.8h2c0.5,0,0.8-0.2,0.8-0.7c0-0.5-0.3-0.7-0.8-0.7h-2V77.8z"/>
		</g>
	</g>
	<g>
		<path class="st0" d="M10.6,53.4l0.7-1.7l0.5,0.2l0.3-1.3l-2-0.5l0.7-1.7l1.8,0.5l0.3-1.5l-0.5-1l1.7-1l0.5,0.5l4.5,1.2l-0.2,1.8
			l-0.8-0.2l-0.3,1.5l3.5,1l-0.3,1.7l-3.6-1l-0.3,1.3l0.7,0.2l-0.2,1.8L10.6,53.4z M15.9,53.1l0.3-1.3l-3.1-0.8l-0.3,1.3L15.9,53.1z
			 M13.6,49.1l3.1,0.8l0.3-1.5l-3-0.8L13.6,49.1z"/>
		<path class="st0" d="M13,42.5l0.8-1.2h0.2l2.3-4.6l-0.2-0.8l1.5-0.5l0.3,0.3l8,4.1l-0.5,1.5L25,41.1l-2.3,4.6l0.3,0.2l-0.7,1.3
			L13,42.5z M21.7,45.3l2.3-4.6l-1-0.5l0.2,0.5l-2,4h-0.7l0.8-1.5l-2-1L18.8,43l-0.8-0.2l0.7-1.2L17.3,41l-0.7,1.2L15.8,42l1.7-3.1
			l-0.3-0.7l1.2-0.3l0.2,0.7l-0.7,1.2l1.3,0.7l0.2-0.3l-0.2-0.7l1.2-0.3l0.3,0.7l-0.7,1.2l2,1l0.3-0.7l-0.2-0.7l1.2-0.3l-6-3
			l-2.3,4.6L21.7,45.3z M20.2,40.1c0.7-0.2,1.2-0.3,1.5-0.5l0.2,1.3c-0.5-0.2-1-0.2-1.7-0.2V40.1z"/>
		<path class="st0" d="M22.2,32.3l-0.2-0.7h1.2l0.2,0.5l-0.8,1l0.5,0.3c1-0.2,1.8-0.2,2.7,0V35c-0.5-0.2-0.8-0.3-1.3-0.5l3.5,2.8
			l-0.5,1.3L24.1,36c0.5,0.8,0.8,1.7,1,2.3h-0.7c-0.8-1.3-1.8-2.7-2.8-3.8l-0.5,0.7l-0.8-0.3l0.8-1.2L20.2,33
			c-0.2,0.3-0.5,0.7-0.7,1l-0.8-0.3c0.7-1.2,1-2.2,1-3.1h1.7c0,0.5-0.2,1-0.5,1.3l1.2,0.8L22.2,32.3z M27.5,30l1.2-0.2l0.2,0.7
			l-0.5,0.8l2.7,2.2l-0.8,1.3l-2.5-2l-1,2l-0.8-0.3l1.2-2.3l-3.3-2.7l0.2,1.7c-1-0.5-1.8-0.7-2.5-1v-0.8c0.8,0,1.7,0,2.3,0.2l-2-1.5
			l1.2-1l4.8,3.8l0,0L27.5,30z M23.6,31.5c1-0.2,1.7-0.2,2.3,0L26,33c-1-0.3-1.8-0.7-2.5-0.7L23.6,31.5z"/>
		<path class="st0" d="M26.5,23.1c0.3,0,1,0,2,0.2l-0.2,1.7c-0.7-0.3-1.3-0.5-1.8-0.7V23.1z M29.7,20.1l1.7-0.5
			c0.3,1,0.3,1.8,0.3,2.7l0.7-0.5l-0.2-1l1.8,0.2l-0.5,0.5l0.3,1.7L33,23.2l-0.2-1l-4.5,3.6c0.2,0.3,0.2,0.7,0.3,1L27.2,27
			c0-0.7-0.2-1.5-0.5-2.2l1-0.3c0.2,0.2,0.2,0.3,0.3,0.3l2.7-2.3C30.4,21.9,30,21.1,29.7,20.1z M28.2,21.6c0.3,0,0.8,0,1.7,0.2
			l-0.2,1.5c-0.7-0.3-1.2-0.5-1.7-0.7L28.2,21.6z M31.7,26.5l0.7-0.5v-0.8l-2.8,2.3l-0.7-0.7l3.1-2.7l0.2-1l1.8,0.3l-0.3,0.7
			l-0.2,1.7l1.5-1.2v-0.8l1.5,0.2v0.7l-2.5,2l1.3,1.5c0.5,0.7,0.5,1.2,0,1.7l-0.7,0.5c-0.5-0.5-1-0.5-1.8,0.2L32.3,30
			c0.3-0.3,0.8-0.7,1.2-0.8c0.2-0.2,0.2-0.3,0-0.5l-0.8-1L29.9,30l-0.7-0.5L32,27L31.7,26.5z"/>
		<path class="st0" d="M33.8,17.4l1.2-0.5l0.2,0.3l0.5-0.3l0.2-0.8l1.7,0.5c0-0.2,0-0.3-0.2-0.5l0.8-0.2c0,0.2,0.2,0.2,0.2,0.3
			l1-0.5c-0.3-0.2-0.7-0.3-1-0.5l0.2-0.8c0.5,0,1,0,1.5,0.2l-0.2,0.8l1-0.5l0.2-0.7l1.5,0.5l-0.3,0.5v1.3h-0.8l-0.2-0.8l-2.8,1.5
			c0.2,0.3,0.2,0.8,0.2,1.2l-1.2-0.2c0-0.5,0-1,0-1.5l0,0.3l0.2,2.7c1,0.3,1.8,1.2,2.5,2.2c0.5,1,0.5,1.7,0,2l-0.3,0.2
			c-0.2-0.3-0.5-0.7-0.8-0.7l1.3,2.5l-1.2,1L33.8,17.4z M38.3,23.1l0.5-0.2c0,0,0-0.2-0.2-0.5c-0.5-0.8-1-1.5-1.7-2.2l-0.8-2.3
			l-0.5,0.2L38.3,23.1z M41.3,17.4l0.2-0.7l1.2,0.3l-0.2,0.7L39,19.6l-0.5-0.7L41.3,17.4z M43,18.8l0.2-0.8l1.3,0.5l-0.2,0.7
			L43,19.7l1.2,2.2c0.2,0.2,0.2,0.2,0.2,0.2l0.3-0.2c0,0,0-0.2,0-0.3l-0.5-1.2l0.5-0.2c0,0.2,0.2,0.3,0.2,0.5c0.3,0.5,0.7,0.8,1,0.8
			c0.2,0.7,0,1.2-0.3,1.3l-1.3,0.8c-0.3,0.2-0.7-0.2-1-0.8l-1.5-2.7l-0.5,0.3l0.3,0.5c0.8,1.5,0.7,2.8-0.3,4.3L40.6,25
			c0.5-1.2,0.5-2.3-0.2-3.3l-0.2-0.5l-0.7,0.3l-0.5-0.7L43,18.8z"/>
		<path class="st0" d="M50.7,11.6l0.3-0.8l1.7,0.7L52.2,12l-0.3,1.7l-0.7-0.2l-0.2-0.8l-5.1,1.7c0,0.5,0.2,1,0.2,1.7l-1.5-0.5
			c0.2-0.8,0.2-1.8,0.2-2.7h1c0,0.2,0,0.3,0.2,0.5l2-0.7c-0.3-0.3-0.7-0.5-1-0.8l0.3-1c0.5,0.2,1.2,0.3,1.8,0.7l-0.5,0.7L50.7,11.6z
			 M47.1,13.9l1.5,0.7c-0.5,1.7-1.5,2.8-2.8,3.5l-0.3-0.8C46.1,16.4,46.8,15.3,47.1,13.9z M52.1,16.4l0.3-0.8l1.2,0.7l-0.2,0.5
			l-2.8,1l0.7,2.3l2.2-0.7l0.3-0.8l1.2,0.7l-0.2,0.5l-8.1,2.5l-0.3-0.7l3.5-1l-0.7-2.3l-2.5,0.8l-0.3-0.8L52.1,16.4z M49.2,13.4
			c1.3,0,2.5,0.3,3.5,0.7l-0.7,1.8c-1-0.7-2.2-1.2-3.1-1.5L49.2,13.4z"/>
		<path class="st0" d="M61.8,12.8l0.5-0.7l1,0.8L63,13.4l-3.1,0.3c0.3,0.7,0.8,1.3,1.5,2c0.5,0.5,1.3,1,2.5,1.5L63,19.1
			c-1.7-0.8-3-2.2-3.8-4.1c-0.5,2.2-1.8,3.8-3.6,5l-0.3-0.5c1.3-1.5,2.3-3.3,2.7-5.3l-3,0.3l-0.3-0.8l3.3-0.3c0.2-0.8,0.2-1.7,0-2.5
			l-3.1,0.3l-0.2-0.8l6.6-0.7L61.7,9l1,0.8l-0.3,0.5l-2.8,0.3c0,0.8,0,1.8,0,2.5L61.8,12.8z"/>
		<path class="st0" d="M66.8,8.5l1.5,0.8c-0.2,0.3-0.2,0.7-0.3,0.8l2.5,0.2c-0.2-0.3-0.2-0.8-0.3-1.2L71,8.6c0.3,0.3,0.7,0.8,1,1.3
			l-0.7,0.5l1.3,0.2l0.7-0.7l0.8,1.2l-0.5,0.5L68,11.1v-0.7c-0.2,0.5-0.3,0.8-0.5,1.2l-0.8,7.6h-1.5l0.5-5.5
			c-0.2,0.2-0.3,0.2-0.3,0.3l-0.7-0.7c0.5-0.7,1-1.5,1.3-2.5C66.3,10.1,66.5,9.3,66.8,8.5z M67.6,14.9l1.5,0.3v0.5l2.2,0.2l0.7-0.7
			l1.2,1.3l-0.3,0.5l-0.3,2.7h-1.7v-0.7l-2-0.2v0.5h-1.7L67.6,14.9z M72,13.9l0.7-0.5l0.8,1.2L73,15.1l-5.3-0.5v-0.8L72,13.9z
			 M72.3,12.3l0.7-0.7l0.8,1.2l-0.5,0.5l-5.5-0.5V12L72.3,12.3z M71.1,18.3l0.2-1.5L69,16.6l-0.2,1.5L71.1,18.3z"/>
		<path class="st0" d="M75.1,16.8l0.7,0.5c-0.3,0.8-0.8,1.7-1.5,2.7l-1-1.2C74.1,18.1,74.6,17.4,75.1,16.8z M76.9,10.5l1.3,0.7v0.3
			l0.7,0.2c0.2-0.3,0.3-0.7,0.5-1l1.7,1c-0.3,0.2-0.5,0.3-0.8,0.5l1.8,0.7l0.8-0.3l0.8,1.5l-0.5,0.3l-1.3,4.3l-1.5-0.3l0.2-0.5
			l-2-0.7c0.2,0.3,0.5,0.8,0.8,1.5l-1.5,0.7c0-0.8-0.2-1.7-0.2-2.2l0.5-0.2l-1.7-0.5l-0.2,0.3l-1.3-0.3L76.9,10.5z M76.3,16.9
			l1.3,0.7l-0.5,1.7c0,0.2,0,0.3,0.2,0.3l1.7,0.5c0.2,0,0.2,0,0.3-0.2l0.7-1l0.7,0.3c-0.2,0.2-0.2,0.3-0.3,0.7
			c-0.2,0.5-0.2,1,0.2,1.3c-0.3,0.5-0.8,0.8-1.3,0.7l-3-1c-0.5-0.2-0.7-0.7-0.5-1.3L76.3,16.9z M76.9,15.6l4,1.2l0.2-0.5l-4-1.3
			L76.9,15.6z M77.4,14.1l4,1.2l0.2-0.5l-4-1.2L77.4,14.1z M77.8,12.8l4,1.2l0.2-0.5l-4-1.2L77.8,12.8z M81.2,18.4
			c0.3,0.8,0.7,1.7,0.8,2.5l-1.5,0.7c0-1,0-2-0.2-2.8L81.2,18.4z"/>
		<path class="st0" d="M88.5,14.4l1.3,1.2c-0.2,0.2-0.3,0.2-0.3,0.3c0.5,1,0.8,1.8,0.8,2.5l1-1.8l1.2,0.8l-3.8,6.5l-1.3-0.5l2.5-4.5
			l-1.2,0.7l0.2,0.5l-0.5,0.2l-0.5,0.8c-0.7,1.2-1.3,1.5-2,1l-0.5-0.2c0.3-0.5,0.3-0.8,0-1.2l0.3-0.5c0.3,0.2,0.5,0.3,0.7,0.5
			c0.2,0,0.2,0,0.3-0.3l0.5-0.8L86,18.9l-1.7,3.1c-0.2,0.2,0,0.3,0.2,0.5l1.3,0.7c0.2,0.2,0.3,0,0.5-0.2l0.7-0.8l0.3,0.3
			c-0.2,0.2-0.3,0.3-0.3,0.5c0,0.5,0,1,0,1.5c-0.5,0.3-1,0.5-1.3,0.2l-2.5-1.3c-0.7-0.3-0.8-0.8-0.5-1.5l2.2-3.8c-0.2,0-0.3,0-0.5,0
			v-0.8C85.9,16.8,87.2,15.8,88.5,14.4z M88.7,19.1c0-0.7-0.2-1.5-0.3-2.3c-0.7,0.3-1.3,0.7-1.8,1l0.3,0.2l-0.2,0.2l1.2,0.7l0.7-0.3
			L88.7,19.1z M93.3,16.8l1.2,0.8l-4.3,8c-0.5,0.8-1,1.2-1.7,0.8L88,26c0.3-0.7,0.3-1,0-1.2l0.5-0.7c0.2,0.2,0.3,0.3,0.5,0.3
			c0.2,0,0.3,0,0.3-0.2L93.3,16.8z"/>
		<path class="st0" d="M98.1,22.1l0.8-0.2v1.3l-0.7,0.2l-0.5-0.5l0.3,0.5c-0.7,0.3-1.3,0.5-2,0.5l0.3,0.3l0.8-0.2v1.2l2.7-3.1l0.8,1
			l-0.3,0.3c0.7,0.3,1.3,0.3,2,0.3l0.2,1.5c-0.8-0.2-1.7-0.5-2.7-1.2l-1,1.2l1.2,1h0.7v1.2l-0.5,0.3l-0.3-0.3l-4.1,5l-1.2-0.7l4.3-5
			l-0.5-0.3l-0.2,0c-1,1.2-1.8,1.8-2.7,2.3S94,29.5,93,29.9L92.8,29c0.3-0.2,0.7-0.3,1.2-0.7h-1c0.3-0.7,0.5-1.2,0.8-1.8L92.7,28
			c-0.5,0.5-0.8,0.7-1.3,0.2L90.5,28c0.3-0.5,0.3-0.8,0-1.2l0.3-0.3l0.3,0.3c0.2,0.2,0.3,0,0.5-0.2l0.7-0.7
			c-0.7,0.3-1.5,0.5-2.2,0.7v-0.8c0.7-0.3,1.3-0.7,2.2-1.3l0.5,1l0.5-0.5l-1-0.8l0.3-0.8l1.2,1l0.5-0.7l-1.2-1l0.3-0.8l1,0.8
			c0.2-0.7,0.3-1.2,0.3-1.7h0.5l-0.5-0.3l0.3-0.8l1.3,1.2c0.2-0.3,0.2-0.8,0.3-1.2h1c0,0.5,0.2,1,0.2,1.7h-0.7L98.1,22.1z M94,26.2
			h0.5c0,0.7,0,1.3,0,1.8c1-0.7,2-1.7,2.8-2.7h-0.5l-1.3-1.2L95,24.9l0.3,0.2l0.8-0.2v1.3l-0.7,0.2l-1-0.8L94,26.2z M95,22.9
			l0.5,0.5c0.5-0.2,1.2-0.5,1.8-0.8l-1.5-1.3c0.2,0.7,0.2,1.2,0.2,1.5L95,22.9z"/>
		<path class="st0" d="M105.8,28.5h0.8l-0.2,1.3h-0.7l-0.8-1c-0.7,0.5-1.5,0.8-2.2,1l0,0l0.3,0.3l0.8,0.2l-0.2,1.3l0.5,0.5l2.3-1.8
			l-0.2-0.3l0.5-0.7l2.2,2.8h0.8l-0.2,1.3h-0.7l-0.5-0.7l-2.3,1.8h0.8l-0.2,1.3h-0.7l-0.7-0.8l-4.3,3.5l-1-1l4.5-3.5l-0.3-0.5
			l-0.8,0.7c-1.5,1.2-3,1.7-4.8,1.3l0.2-0.8c1.3,0,2.7-0.5,3.6-1.3l1.2-0.8l-0.5-0.5l0.3-0.3h-0.2l-4,3.1l-0.8-0.8l0.5-0.3l-0.3-0.5
			l-0.5,0.3L97,33l3.1-2.5c-0.2,0-0.3,0-0.5,0l0.2-0.7c1.2-0.3,2.7-1.2,4.3-2.2l-0.5-0.5l0.5-0.7L105.8,28.5z M99.1,32.8l0.3,0.5
			l3-2.3l-0.3-0.5L99.1,32.8z M107.4,31.3l-2.3,1.8l0.3,0.5l2.3-1.8L107.4,31.3z"/>
		<path class="st0" d="M108.6,42.5l0.8,0.3l-0.5,1.7l-0.7-0.2l-1.7,0.8c-0.2,0.2-0.3,0.3-0.2,0.5c0.2,0.3,0.3,0.3,0.5,0.3l1.3-0.5
			l0.2,0.7c-0.3,0.2-0.5,0.2-0.7,0.3c-0.5,0.3-0.8,0.5-1,1c-0.7,0.2-1.2,0.2-1.5-0.3l-0.7-1.3c-0.3-0.7-0.2-1.2,0.7-1.7l2.3-1.2
			l-0.5-1c-0.2,0-0.3,0.2-0.3,0.2c-1,0.3-1.8,0.3-2.7,0c-1-0.3-1.8-1-2.5-1.8l0.7-0.7c1.5,1.2,2.8,1.5,4.3,1l-0.8-1.7l0.7-0.5l1,1.8
			l1.2-0.7l0.5,1.5c-0.3,0.2-0.5,0.3-0.8,0.3L108.6,42.5z M113.6,42l1,0.2l-0.3,1.7l-0.7-0.3l-1.7-0.3v-0.8l0.8-0.2l-1.8-3.6
			l-0.5,1.7c-1.5-0.3-2.8-1.2-3.6-2.7l0.7-0.5c1,0.8,2.2,1.3,3.5,1.3l-0.5-1c-0.5,0.2-1,0.2-1.7,0.3l0.2-1.5c0.8,0,1.8,0,2.7-0.2
			l0.2,1c-0.2,0-0.3,0.2-0.5,0.2l0.8,1.8c0.2-0.3,0.3-0.5,0.3-0.8l1,0.3c0,0.5,0,1.2-0.2,1.7l-0.7-0.3L113.6,42z M111.6,40.8
			c0.2,1.5,0.2,2.7,0,3.8l-2-0.3c0.5-1.3,0.7-2.5,0.8-3.5L111.6,40.8z"/>
		<path class="st0" d="M116.4,45.3l0.2,1.3l-0.5,0.2l0.2,0.5l0.8,0.3l-0.8,1.5c0.2,0,0.3,0,0.5,0v0.8c-0.2,0-0.2,0-0.3,0l0.3,1
			c0.3-0.3,0.5-0.5,0.7-0.8l0.7,0.3c-0.2,0.5-0.3,1-0.5,1.5l-0.7-0.3l0.3,1.2l0.7,0.3l-1,1.2l-0.3-0.3l-1.3-0.3l0.2-0.7h0.8l-0.8-3
			c-0.3,0-0.8,0-1.2,0l0.3-1.2c0.5,0.2,1,0.2,1.5,0.3l-0.2-0.2l-2.7-0.5c-0.7,1-1.5,1.5-2.7,1.8c-1.2,0.3-1.8,0.2-2-0.5l-0.2-0.3
			c0.5-0.2,0.7-0.3,0.8-0.7l-2.7,0.7l-0.5-1.2L116.4,45.3z M112.9,53.7l0.8,0.3l-0.7,1.2l-0.5-0.3l-0.7-1.2l-2.5,0.7
			c-0.2,0-0.3,0.2-0.2,0.2l0.2,0.3c0,0,0.2,0,0.3,0l1.2-0.2v0.5c-0.2,0-0.3,0-0.5,0.2c-0.5,0.2-0.8,0.3-1.2,0.8
			c-0.7,0-1-0.2-1.2-0.7l-0.3-1.5c0-0.3,0.3-0.7,1-0.8l2.8-0.8l-0.2-0.5l-0.7,0.2c-1.5,0.5-3,0-4.1-1.3l0.7-0.7c1,0.8,2.2,1,3.3,0.7
			l0.5-0.2l-0.2-0.7l0.8-0.3L112.9,53.7z M109.7,48.3l0.2,0.5c0,0,0.2,0,0.5,0c0.8-0.2,1.7-0.7,2.3-1.2l2.5-0.3v-0.5L109.7,48.3z
			 M114.6,52.6l0.7,0.3l-0.7,1l-0.5-0.3l-1-3.8l0.8-0.3L114.6,52.6z"/>
	</g>
</g>
</svg>
