<?xml version="1.0" encoding="utf-8"?>
<!-- Generator: Adobe Illustrator 24.3.0, SVG Export Plug-In . SVG Version: 6.00 Build 0)  -->
<svg version="1.1" id="图层_1" xmlns="http://www.w3.org/2000/svg" xmlns:xlink="http://www.w3.org/1999/xlink" x="0px" y="0px"
	 viewBox="0 0 128 40" style="enable-background:new 0 0 128 40;" xml:space="preserve">
<style type="text/css">
	.st0{fill:#1A1311;}
</style>
<g>
	<path class="st0" d="M5.9,27.8h1.3c0.5,0,1.1,0.1,1.1,0.7c0,0.5-0.4,1-0.9,1c-0.1,0-0.1,0-0.2,0H5.5L5.9,27.8z M4,30.5h3.3
		c1.2,0,2.3-0.7,2.3-2c0-0.6-0.4-1.1-0.9-1.2l0,0c0.7-0.1,1.2-0.7,1.1-1.4c0-1.2-0.8-1.4-2-1.4H5.3L4,30.5z M6.4,25.5h1.4
		c0.4,0,0.7,0.2,0.7,0.6c0,0.5-0.4,0.8-0.8,0.8H7.6H6.1L6.4,25.5z M14.3,28.6c0-0.2,0.1-0.5,0.1-0.7c0-1.3-0.8-1.9-2.1-1.9
		c-1.5,0-2.4,1.3-2.4,2.7c0,1.3,0.8,1.9,2,1.9c1.3,0,1.9-0.5,2.3-1.5H13c-0.2,0.4-0.5,0.6-0.9,0.6c-0.7,0-1-0.4-1-0.9
		c0-0.1,0-0.2,0-0.3L14.3,28.6z M11.1,27.8c0.1-0.6,0.6-0.9,1.2-0.9c0.7,0,0.8,0.5,0.8,0.9H11.1z M16.7,24.7h-1.2L15.2,26h-0.8
		l-0.2,0.8H15l-0.5,2.4c0,0.1-0.1,0.3-0.1,0.4c0,0.7,0.6,0.9,1.2,0.9c0.3,0,0.5,0,0.8,0l0.2-0.9c-0.1,0-0.3,0-0.4,0
		c-0.2,0-0.4,0-0.4-0.3c0-0.1,0-0.1,0-0.2l0.5-2.2h0.9l0.2-0.8h-0.9L16.7,24.7z M19.8,24.7h-1.2L18.3,26h-0.8l-0.2,0.8h0.8l-0.5,2.4
		c0,0.1-0.1,0.3-0.1,0.4c0,0.7,0.6,0.9,1.2,0.9c0.3,0,0.5,0,0.8,0l0.2-0.9c-0.1,0-0.3,0-0.4,0c-0.2,0-0.4,0-0.4-0.3
		c0-0.1,0-0.1,0-0.2l0.5-2.2h0.9l0.2-0.8h-0.9L19.8,24.7z M24.3,28.6c0.1-0.2,0.1-0.5,0.1-0.7c0-1.3-0.8-1.9-2.1-1.9
		c-1.5,0-2.5,1.3-2.5,2.7c0,1.3,0.8,1.9,2,1.9c1.3,0,1.9-0.5,2.3-1.5h-1.2c-0.2,0.4-0.5,0.6-0.9,0.6c-0.7,0-1-0.4-1-0.9
		c0-0.1,0-0.2,0-0.3L24.3,28.6z M21.2,27.8c0.1-0.6,0.6-0.9,1.2-0.9c0.7,0,0.8,0.5,0.8,0.9H21.2z M24,30.5h1.2l0.4-2
		c0.2-0.8,0.5-1.5,1.4-1.5c0.2,0,0.4,0,0.5,0.1l0.3-1.2c-0.1,0-0.3,0-0.4,0c-0.7,0-1.3,0.4-1.5,0.9l0,0l0.2-0.8h-1.2L24,30.5z
		 M33.1,27.4c0-1.1-0.8-1.4-1.8-1.4c-0.9,0-2,0.4-2,1.4c0,0.7,0.4,0.9,1,1.1l0.9,0.3c0.3,0.1,0.4,0.2,0.4,0.5c0,0.4-0.4,0.5-0.8,0.5
		s-0.9-0.2-0.9-0.6v-0.1h-1.1v0.2c0,1,1,1.4,1.9,1.4c1,0,2.1-0.4,2.1-1.5c0-0.7-0.5-1.1-1.2-1.3L31,27.7c-0.4-0.1-0.6-0.2-0.6-0.4
		c0-0.3,0.3-0.4,0.7-0.4c0.5,0,0.7,0.2,0.7,0.6L33.1,27.4z M33.1,28.7c0,1.3,0.8,1.9,2,1.9c1.6,0,2.6-1.2,2.6-2.8
		c0-1.3-0.9-1.9-2.1-1.9C34.1,26,33.1,27.2,33.1,28.7L33.1,28.7z M34.3,28.7c0-0.8,0.4-1.8,1.3-1.8c0.6,0,0.9,0.4,0.9,1
		c0,0.7-0.4,1.9-1.3,1.9C34.7,29.7,34.3,29.3,34.3,28.7C34.3,28.8,34.3,28.8,34.3,28.7L34.3,28.7z M42.6,26.1h-1.2l-0.5,2.4
		c-0.1,0.6-0.5,1.2-1.3,1.2c-0.3,0-0.6-0.2-0.6-0.5c0-0.2,0-0.4,0.1-0.5l0.5-2.6h-1.2l-0.5,2.6c-0.1,0.3-0.1,0.5-0.1,0.8
		c0,0.8,0.5,1.2,1.3,1.2c0.6,0,1.2-0.3,1.6-0.7l0,0l-0.1,0.6h1.2L42.6,26.1z M42,30.5h1.2l0.5-2.4c0.1-0.6,0.5-1.2,1.2-1.2
		c0.3,0,0.6,0.2,0.6,0.5c0,0.2,0,0.4-0.1,0.5L45,30.5h1.2l0.6-2.6c0.1-0.3,0.1-0.5,0.1-0.8c0-0.8-0.5-1.2-1.3-1.2
		c-0.6,0-1.2,0.3-1.6,0.7l0,0l0.1-0.6H43L42,30.5z M49.8,30.5H51l1.3-6.1H51l-0.5,2.3l0,0c-0.2-0.5-0.7-0.8-1.2-0.7
		c-1.6,0-2.4,1.5-2.4,2.9c-0.1,0.9,0.6,1.7,1.4,1.7c0.1,0,0.2,0,0.3,0c0.5,0,1-0.2,1.3-0.7l0,0L49.8,30.5z M49.4,26.9
		c0.6,0,0.9,0.4,0.9,1c0,0.8-0.4,1.9-1.3,1.9c-0.5,0-0.9-0.4-0.9-0.9v-0.1C48.1,28,48.5,26.9,49.4,26.9L49.4,26.9z M56.2,24.7H55
		L54.7,26H54l-0.2,0.8h0.8l-0.5,2.4c0,0.1-0.1,0.3-0.1,0.4c0,0.7,0.6,0.9,1.2,0.9c0.3,0,0.5,0,0.8,0l0.2-0.9c-0.1,0-0.3,0-0.4,0
		c-0.2,0-0.4,0-0.4-0.3c0-0.1,0-0.1,0-0.2l0.5-2.2h0.9l0.2-0.8h-0.9L56.2,24.7z M56.2,30.5h1.2l0.5-2.4c0.1-0.6,0.5-1.2,1.2-1.2
		c0.3,0,0.6,0.2,0.6,0.5c0,0.2,0,0.4-0.1,0.5l-0.5,2.6h1.2l0.5-2.6c0.1-0.3,0.1-0.5,0.1-0.8c0-0.8-0.5-1.2-1.3-1.2
		c-0.6,0-1.1,0.2-1.5,0.6l0,0l0.5-2.2h-1.2L56.2,30.5z M60.8,30.5H62l0.4-2c0.2-0.8,0.5-1.5,1.4-1.5c0.2,0,0.3,0,0.5,0.1l0.3-1.2
		c-0.1,0-0.3,0-0.4,0c-0.7,0-1.3,0.4-1.5,0.9l0,0l0.2-0.8h-1.2L60.8,30.5z M64,28.7c0,1.3,0.8,1.9,2,1.9c1.6,0,2.6-1.2,2.6-2.8
		c0-1.3-0.9-1.9-2.1-1.9C65,26,64,27.2,64,28.7L64,28.7z M65.3,28.7c0-0.8,0.4-1.8,1.3-1.8c0.6,0,0.9,0.4,0.9,1
		c0,0.7-0.4,1.9-1.3,1.9C65.6,29.7,65.2,29.3,65.3,28.7C65.3,28.8,65.3,28.8,65.3,28.7L65.3,28.7z M73.5,26.1h-1.2l-0.5,2.4
		c-0.1,0.6-0.5,1.2-1.3,1.2c-0.3,0-0.6-0.2-0.6-0.5c0-0.2,0-0.4,0.1-0.5l0.5-2.6h-1.2l-0.6,2.6c-0.1,0.3-0.1,0.5-0.1,0.8
		c0,0.8,0.5,1.2,1.3,1.2c0.6,0,1.2-0.3,1.6-0.7l0,0l-0.1,0.6h1.2L73.5,26.1z M75.7,26.9c0.5,0,0.9,0.3,0.9,0.8v0.1
		c0,0.8-0.4,1.7-1.3,1.7c-0.6,0-0.8-0.4-0.8-1C74.5,27.9,74.9,26.9,75.7,26.9L75.7,26.9z M78.2,26.1H77l-0.1,0.7l0,0
		c-0.2-0.5-0.8-0.9-1.4-0.8c-1.4,0-2.2,1.4-2.2,2.7c0,1.1,0.7,1.8,1.7,1.8c0.5,0,0.9-0.2,1.2-0.6l0,0c-0.2,0.9-0.5,1.5-1.2,1.5
		c-0.4,0-0.8-0.2-0.8-0.6H73c0,1.1,1,1.5,1.9,1.5c1.5,0,2.2-0.6,2.5-1.9L78.2,26.1z M77.5,30.5h1.2l0.5-2.4c0.1-0.6,0.5-1.2,1.3-1.2
		c0.3,0,0.6,0.2,0.6,0.5c0,0.2,0,0.4-0.1,0.5l-0.5,2.6h1.2l0.5-2.6c0.1-0.3,0.1-0.5,0.1-0.8c0-0.8-0.4-1.2-1.3-1.2
		c-0.6,0-1.1,0.2-1.5,0.6l0,0l0.4-2.2h-1.2L77.5,30.5z M84.3,30.5h1.2l0.4-2c0.2-0.8,0.5-1.5,1.4-1.5c0.2,0,0.3,0,0.5,0.1l0.3-1.2
		c-0.1,0-0.3,0-0.4,0c-0.7,0-1.3,0.4-1.5,0.9l0,0l0.2-0.8h-1.2L84.3,30.5z M92,28.6c0-0.2,0.1-0.5,0.1-0.7c0-1.3-0.8-1.9-2.1-1.9
		c-1.5,0-2.5,1.3-2.5,2.7c0,1.3,0.8,1.9,2,1.9c1.3,0,1.9-0.5,2.3-1.5h-1.2c-0.2,0.4-0.5,0.6-0.9,0.6c-0.7,0-1-0.4-1-0.9
		c0-0.1,0-0.2,0-0.3L92,28.6z M88.9,27.8c0.1-0.6,0.6-0.9,1.2-0.9c0.7,0,0.8,0.5,0.8,0.9H88.9z M96.2,27.4c0-1.1-0.8-1.4-1.8-1.4
		c-0.9,0-2,0.4-2,1.4c0,0.7,0.4,0.9,1,1.1l0.9,0.3c0.3,0.1,0.4,0.2,0.4,0.5c0,0.4-0.4,0.5-0.8,0.5S93,29.6,93,29.2v-0.1h-1.1v0.2
		c0,1,1,1.4,1.9,1.4c1,0,2.1-0.4,2.1-1.5c0-0.7-0.5-1.1-1.2-1.3l-0.6-0.2c-0.4-0.1-0.6-0.2-0.6-0.4c0-0.3,0.3-0.4,0.8-0.4
		s0.7,0.2,0.7,0.6L96.2,27.4z M100.7,28.6c0-0.2,0.1-0.5,0.1-0.7c0-1.3-0.8-1.9-2.1-1.9c-1.5,0-2.4,1.3-2.4,2.7c0,1.3,0.8,1.9,2,1.9
		c1.3,0,1.9-0.5,2.3-1.5h-1.2c-0.2,0.4-0.5,0.6-0.9,0.6c-0.7,0-1-0.4-1-0.9c0-0.1,0-0.2,0-0.3L100.7,28.6z M97.5,27.8
		c0.1-0.6,0.6-0.9,1.2-0.9c0.7,0,0.8,0.5,0.8,0.9H97.5z M103.6,28.8c-0.1,0.5-0.4,1-1.2,1c-0.3,0-0.7-0.2-0.7-0.5
		c0-0.6,0.4-0.7,0.9-0.7c0.4,0,0.7-0.1,1-0.2L103.6,28.8z M102.3,27.4c0.1-0.4,0.5-0.7,0.9-0.7c0.3,0,0.8,0.1,0.8,0.5
		c0,0.6-0.5,0.5-1.7,0.6c-1.1,0.1-1.7,0.7-1.7,1.5c0,0.6,0.5,1.2,1.4,1.2c0.5,0,1-0.2,1.4-0.6v0.4h1.2c0-0.1,0-0.2,0-0.3
		c0-0.2,0-0.4,0.1-0.6l0.4-1.8c0.1-0.2,0.1-0.5,0.1-0.7c0-1-1.1-1.2-1.8-1.2c-1,0-2,0.4-2.1,1.5L102.3,27.4z M104.9,30.5h1.2l0.4-2
		c0.2-0.8,0.5-1.5,1.4-1.5c0.2,0,0.4,0,0.5,0.1l0.2-1.2c-0.1,0-0.3,0-0.4,0c-0.7,0-1.3,0.4-1.5,0.9l0,0l0.2-0.8h-1.2L104.9,30.5z
		 M112.6,27.6c0-1.2-0.9-1.7-2-1.7c-1.6,0-2.5,1.3-2.5,2.8c0,1.3,0.7,1.9,2,1.9c1.1,0,2-0.7,2.3-1.7h-1.2c-0.1,0.5-0.5,0.8-1,0.8
		c-0.6,0-0.8-0.4-0.8-1c0-0.8,0.3-1.9,1.2-1.9c0.5,0,0.8,0.2,0.8,0.7L112.6,27.6z M112.3,30.5h1.2l0.5-2.4c0.1-0.6,0.5-1.2,1.2-1.2
		c0.3,0,0.6,0.2,0.6,0.5c0,0.2,0,0.4-0.1,0.5l-0.5,2.6h1.2l0.6-2.6c0.1-0.3,0.1-0.5,0.1-0.8c0-0.8-0.5-1.2-1.3-1.2
		c-0.6,0-1.1,0.2-1.5,0.6l0,0l0.5-2.2h-1.2L112.3,30.5z"/>
	<path class="st0" d="M120.1,12.7c0,1.1,0.9,1.9,1.9,1.9c1.1,0,1.9-0.9,1.9-1.9c0-1.1-0.9-1.9-1.9-1.9
		C121,10.8,120.1,11.7,120.1,12.7L120.1,12.7z M120.5,12.7c0-0.9,0.7-1.6,1.6-1.6s1.6,0.7,1.6,1.6c0,0.9-0.7,1.6-1.6,1.6
		S120.5,13.6,120.5,12.7C120.5,12.8,120.5,12.8,120.5,12.7z"/>
	<path class="st0" d="M121.3,13.7h0.4V13h0.4c0.3,0,0.3,0.1,0.3,0.4c0,0.1,0,0.3,0,0.4h0.4l0,0c-0.1,0-0.1-0.1-0.1-0.4
		c0-0.3-0.1-0.4-0.2-0.5c0.2-0.1,0.3-0.3,0.3-0.5c0-0.3-0.2-0.5-0.5-0.5c0,0,0,0-0.1,0h-0.9L121.3,13.7z M121.7,12.6v-0.5h0.5
		c0.1,0,0.3,0.1,0.3,0.2l0,0c0,0.2-0.1,0.3-0.3,0.3H121.7z"/>
	<path class="st0" d="M94.9,7.8l-8.2,14.9h20.1l1.3-2.4H96.8l2.1-3.8h11.3l1.3-2.5h-11.3l2.1-3.9h21.6V7.8H94.9z"/>
	<path class="st0" d="M75.1,7.8c-1.7,0-3.2,0.8-4.1,2.2l-2.3,4.1c-1.3,2.5,1.2,2.5,1.2,2.5h8.4c0.3,0,0.1,0.3,0.1,0.3L77,19.5
		c-0.2,0.4-0.6,0.6-1,0.6h-0.8c-0.8-0.1-0.5-0.6-0.5-0.6l0.5-0.8h-8.9l-1.2,2.1c-1,2,1.5,2,1.5,2h15.2c2.4,0,3.6-2.2,3.6-2.2
		l2.3-4.1c1.2-2.3-1.4-2.3-1.4-2.3h-8.6l1.3-2.7c0.3-0.6,0.8-1,1.5-1.1h0.7c0.8,0,0.5,0.5,0.5,0.5L81,12.1h8.9l1.2-2.3
		c1.2-2-1.3-2-1.3-2H75.1z"/>
	<path class="st0" d="M58.9,10.4c1,0,0.7,0.6,0.7,0.6L55,19.5c-0.3,0.5-0.9,0.8-1.5,0.9h-1.2c-1.3,0-0.9-0.7-0.9-0.7l4.6-8.5
		c0.2-0.5,0.6-0.8,1.1-0.8H58.9z M52.2,7.8c-2.7,0-4.2,2.6-4.2,2.6l-5.4,9.8c-1.3,2.5,1.1,2.5,1.1,2.5H59c2.5,0,3.9-2.5,3.9-2.5
		l5.4-9.8c1.4-2.6-1.1-2.6-1.1-2.6L52.2,7.8z"/>
	<path class="st0" d="M36.2,22.7c0,0,2.7,0,3.7-2l1.8-3.3c0.7-1.2-0.4-2.2-0.4-2.2c1-0.2,1.9-0.8,2.6-1.6L46,9.8c0.7-2-1.9-2-1.9-2
		H26.9L20,20.3H4.1v2.4H36.2z M28.8,20.3l2-3.7h4.1c1.1,0.1,0.5,1.1,0.5,1.1l-1,1.9c-0.3,0.5-0.8,0.8-1.3,0.8L28.8,20.3z M38.3,10.4
		c0.9,0.1,0.6,1,0.6,1L38,13.2c-0.4,0.5-1,0.8-1.6,0.8h-4.1l2-3.6H38.3z"/>
	<path class="st0" d="M117.6,28.9c0,1.1,0.9,1.9,1.9,1.9c1.1,0,1.9-0.9,1.9-1.9c0-1.1-0.9-1.9-1.9-1.9l0,0
		C118.5,27,117.6,27.9,117.6,28.9z M117.9,28.9c0-0.9,0.7-1.6,1.6-1.6s1.6,0.7,1.6,1.6s-0.7,1.6-1.6,1.6
		C118.7,30.5,117.9,29.8,117.9,28.9z"/>
	<path class="st0" d="M118.8,29.9h0.4v-0.7h0.4c0.3,0,0.3,0.1,0.3,0.4c0,0.1,0,0.3,0,0.4h0.4v-0.1c-0.1,0-0.1-0.1-0.1-0.4
		c0-0.4-0.1-0.4-0.2-0.5c0.2-0.1,0.3-0.3,0.3-0.5c0-0.3-0.2-0.5-0.5-0.5c0,0,0,0-0.1,0h-0.9L118.8,29.9z M119.2,28.8v-0.5h0.5
		c0.2,0,0.3,0.1,0.3,0.2c0,0.2-0.1,0.3-0.3,0.3H119.2z"/>
</g>
</svg>
