<?xml version="1.0" encoding="utf-8"?>
<!-- Generator: Adobe Illustrator 24.3.0, SVG Export Plug-In . SVG Version: 6.00 Build 0)  -->
<svg version="1.1" id="图层_1" xmlns="http://www.w3.org/2000/svg" xmlns:xlink="http://www.w3.org/1999/xlink" x="0px" y="0px"
	 viewBox="0 0 128 90" style="enable-background:new 0 0 128 90;" xml:space="preserve">
<style type="text/css">
	.st0{fill:#22549D;}
	.st1{fill:#020202;}
</style>
<g>
	<path class="st0" d="M110.2,7.1c2.5,0,5,0.4,7.4,1.2c1.9,0.6,3.6,1.9,4.7,3.6c1,1.6,1.6,3.5,1.6,5.4c0,1.8-0.2,3.5-0.7,5.2h-11.9
		c0.5-1.9,0.3-3.4-0.4-4.4c-0.9-1.1-2.4-1.7-3.8-1.6c-2.4,0.1-4.6,1-6.4,2.5c-2,1.7-3.7,4.5-5.2,8.3c-0.8,1.9-1.3,3.9-1.3,6
		c0,1.2,0.5,2.3,1.4,3.1c1.1,0.7,2.3,1.1,3.6,1c1.9,0,3.7-0.5,5.2-1.6c1.7-1.2,3-2.8,3.8-4.7h12.1c-1,2.1-2.2,4.1-3.6,5.9
		c-1.5,1.8-3.3,3.4-5.2,4.8c-2.2,1.6-4.6,2.8-7.2,3.7c-2.7,0.9-5.4,1.3-8.2,1.3c-2.6,0.1-5.2-0.4-7.7-1.3c-2-0.7-3.7-2-4.9-3.7
		c-1.1-1.6-1.8-3.5-2-5.4c-0.2-3.2,0.3-6.5,1.5-9.4c1.1-2.9,2.6-5.7,4.5-8.2c1.8-2.4,3.9-4.6,6.4-6.4c2.2-1.6,4.5-2.9,7.1-3.9
		C103.9,7.7,107,7.1,110.2,7.1z M32.9,7.1c2.5,0,5,0.4,7.4,1.2c1.9,0.6,3.6,1.9,4.7,3.6c1,1.6,1.6,3.5,1.6,5.4
		c0,1.8-0.2,3.5-0.7,5.2H33.9c0.5-1.9,0.3-3.4-0.4-4.4c-0.8-1.1-2-1.6-3.8-1.6c-2.4,0.1-4.6,1-6.4,2.5c-2,1.7-3.7,4.5-5.2,8.3
		c-0.8,1.9-1.3,3.9-1.3,6c0,1.2,0.5,2.3,1.4,3.1c1.1,0.7,2.3,1.1,3.6,1c1.9,0,3.7-0.5,5.2-1.6c1.7-1.2,3-2.8,3.8-4.7h12.1
		c-1,2.1-2.2,4.1-3.6,5.9C37.7,39,35.9,40.6,34,42c-2.2,1.6-4.6,2.8-7.2,3.7c-2.6,0.9-5.4,1.3-8.2,1.3c-2.6,0.1-5.2-0.4-7.7-1.3
		c-2-0.7-3.7-2-4.9-3.7c-1.1-1.6-1.8-3.5-1.9-5.4c-0.2-3.2,0.3-6.4,1.5-9.4c1.1-2.9,2.6-5.7,4.5-8.2c1.8-2.4,3.9-4.6,6.4-6.4
		c2.2-1.6,4.5-2.9,7.1-3.9C26.5,7.7,29.7,7.1,32.9,7.1L32.9,7.1z M86.7,8.3l-3.3,8.9H64.3l-2,5.3h16.2l-3.2,8.6H59.2L57,37h19.8
		l-3.4,9.1h-32l14-37.8L86.7,8.3L86.7,8.3z"/>
	<path class="st1" d="M118.2,65.3l-2.7,2.7h-1.9v2.7H124l-2.7,2.7h-7.7v5.4c-0.1,2.1-1.8,3.7-3.8,3.8H99.1l3.1-3.1h7.7v-6.1H96
		l2.7-2.7h11.1v-2.7l2.7-2.7H118.2L118.2,65.3z M81.1,58.7v1.5h7.7c2.1,0,3.8,1.7,3.8,3.8v8.8c0,2.1-1.7,3.8-3.8,3.8v-9.6L86,69.9
		h-5v4.2H88l-2.7,2.7h-4.2v2.7h11.5l-3.1,3.1h-8.4c-2.3,0-4.2-1.5-4.2-3.8v-1.9l-7.5,0c-2.1,0-3.9-1.7-4-3.8v-8.8
		c0-2.1,1.7-3.8,3.8-3.8h7.7v-1.5L81.1,58.7L81.1,58.7z M57.7,59.1c2,0.1,3.6,1.7,3.8,3.7l0,0.2v15.3c-0.1,2.1-1.8,3.7-3.8,3.8V61.8
		H38.9v17.6h18l-2.7,2.7H38.9c-2.1-0.1-3.7-1.8-3.8-3.8V62.9c0.1-2.1,1.8-3.7,3.8-3.8L57.7,59.1L57.7,59.1z M56.1,63.7L53.8,66H50
		v3.1h6.1l-2.3,2.3H50v3.8h2.3v-1.9h3.8v1.9l-2.3,2.3H40l2.3-2.3h3.8v-3.8H40l2.3-2.3h3.8V66H40l2.3-2.3L56.1,63.7L56.1,63.7z
		 M69.2,69.9v4.2h7.7v-4.2L69.2,69.9z M76.8,63h-7.7v6.9l2.7-2.7h5L76.8,63z M119,59.1c2.1,0.1,3.7,1.8,3.8,3.8v1.5
		c0,1.9-1.9,3.5-3.8,3.5v-6.1H97.5l2.7-2.7H119z M88.7,62.9h-7.7v4.2h7.7L88.7,62.9L88.7,62.9z M19.7,58.4v2.3h7.7
		c2.1,0.1,3.7,1.8,3.8,3.8V76c-0.1,2.1-1.8,3.7-3.8,3.8V63.7h-7.7v13h6.9l-3.1,3.1h-3.8v3.1h-4.2v-3.1H7.8C5.8,79.7,4.1,78,4,76
		V64.5c0.1-2.1,1.8-3.7,3.8-3.8h7.7v-2.3L19.7,58.4L19.7,58.4z M15.5,63.7H7.8v13h7.7L15.5,63.7L15.5,63.7z"/>
</g>
</svg>
