<?xml version="1.0" encoding="utf-8"?>
<!-- Generator: Adobe Illustrator 24.3.0, SVG Export Plug-In . SVG Version: 6.00 Build 0)  -->
<svg version="1.1" id="图层_1" xmlns="http://www.w3.org/2000/svg" xmlns:xlink="http://www.w3.org/1999/xlink" x="0px" y="0px"
	 viewBox="0 0 128 60" style="enable-background:new 0 0 128 60;" xml:space="preserve">
<style type="text/css">
	.st0{fill:#BE1C20;}
	.st1{fill:#0F1211;}
</style>
<g>
	<path class="st0" d="M26.4,37.3c-0.6,0.1-1.1,0.2-1.7,0.2c-1.8,0.1-3.6-0.9-3.9-2.3c-0.5-2.1,0.5-4.1,2.7-4.5c1-0.2,2-0.4,2.8-0.9
		c1.2-0.6,2-1.5,2.1-3c0.2-1.6-0.7-3.2-2.1-4c-0.5-0.2-1.1-0.4-1.6-0.5c0.5,0,1.1,0.1,1.6,0.2c3.4,0.8,5.8,3.9,5.8,7.4
		C32.2,33.5,29.8,36.5,26.4,37.3 M26.4,21.8c-0.6-0.1-1.1-0.2-1.7-0.2c-4.6,0-8.3,3.8-8.3,8.4c0,4.6,3.7,8.2,8.3,8.3
		c0.6,0,1.2-0.1,1.7-0.2c4.5-1,7.4-5.4,6.5-9.9C32.2,25,29.7,22.5,26.4,21.8"/>
	<path class="st0" d="M29.8,14.2c0,2.8-2.2,5-5,5c-2.8,0-5-2.2-5-5c0-2.8,2.2-5,5-5c0,0,0,0,0,0C27.5,9.2,29.8,11.5,29.8,14.2"/>
	<path class="st0" d="M14,30c0,2.8-2.2,5-5,5c-2.8,0-5-2.2-5-5c0-2.8,2.2-5,5-5C11.8,25,14,27.2,14,30"/>
	<path class="st0" d="M45.5,30c0,2.8-2.2,5-5,5c-2.8,0-5-2.2-5-5c0-2.8,2.2-5,5-5c0,0,0,0,0,0C43.3,25,45.5,27.2,45.5,30"/>
	<path class="st0" d="M29.8,45.8c0,2.8-2.2,5-5,5s-5-2.2-5-5c0-2.8,2.2-5,5-5c0,0,0,0,0,0C27.5,40.7,29.8,43,29.8,45.8
		C29.8,45.8,29.8,45.8,29.8,45.8"/>
	<path class="st0" d="M39.4,22.4c-2,2-5.1,2-7.1,0c-2-2-2-5.1,0-7.1c2-2,5.1-2,7.1,0C41.4,17.3,41.4,20.4,39.4,22.4
		C39.4,22.4,39.4,22.4,39.4,22.4"/>
	<path class="st0" d="M17.2,22.4c-2,2-5.1,2-7.1,0c-2-2-2-5.1,0-7.1c2-2,5.1-2,7.1,0C19.1,17.3,19.1,20.5,17.2,22.4
		C17.2,22.4,17.2,22.4,17.2,22.4"/>
	<path class="st0" d="M39.4,44.7c-2,2-5.1,2-7.1,0c-2-2-2-5.1,0-7.1c2-2,5.1-2,7.1,0C41.4,39.6,41.4,42.7,39.4,44.7
		C39.4,44.7,39.4,44.7,39.4,44.7"/>
	<path class="st0" d="M17.2,44.7c-2,2-5.1,2-7.1,0c-2-2-2-5.1,0-7.1c2-2,5.1-2,7.1,0c0,0,0,0,0,0C19.1,39.6,19.1,42.7,17.2,44.7
		C17.2,44.7,17.2,44.7,17.2,44.7"/>
	<path class="st1" d="M75.2,14.1v17.5h3.2v-7.3h9v-2.9h-9v-4.9h10.2v-2.9H75.7C75.4,13.6,75.2,13.8,75.2,14.1
		C75.2,14,75.2,14.1,75.2,14.1"/>
	<path class="st1" d="M95.1,13.6h-3.1v17.5c0,0.2,0.2,0.4,0.4,0.4h12.2v-2.9h-9.4L95.1,13.6z"/>
	<path class="st1" d="M120.4,22.6c0,3.5-2.5,6-6.2,6h-3.5V16.5h3.5C118,16.5,120.4,19.1,120.4,22.6L120.4,22.6z M114.2,13.6h-6.7
		v17.9h6.7c5.6,0,9.5-3.9,9.5-9v-0.1C123.7,17.5,119.8,13.6,114.2,13.6"/>
	<path class="st1" d="M64.8,29c-3.4,0-5.9-2.9-5.9-6.4v-0.1c0-3.5,2.5-6.3,5.9-6.3c2,0,3.6,0.9,5,2.2l1.8-2.6
		c-1.7-1.5-3.6-2.6-6.8-2.6c-5.4,0-9.3,4.2-9.3,9.3v0.1c0,5.1,3.9,9.2,9.1,9.2c3.1,0,5.1-1.1,6.9-2.8l-1.7-2.4
		C68.4,28.1,67,29,64.8,29"/>
	<path class="st1" d="M57.1,39.6v2.5h1.5v-2.5l0.4,1.3c0.6-0.2,1.8-0.6,1.8-0.6v0.2c0,1,0.5,1.4,1.5,1.4h2c0.9,0,1.5-0.5,1.5-1.4
		v-0.9h-1.3v0.5c0,0.4-0.2,0.6-0.7,0.6h-1c-0.5,0-0.8-0.2-0.8-0.6v-0.5c1.3-0.6,2.2-1.2,3.3-1.8l-0.7-1.2c-0.8,0.5-1.7,1-2.6,1.5
		v-1.9h-1.4v2.5c-0.8,0.3-2.2,0.8-2.2,0.8V38c0.5-0.5,1-1.3,1-1.3l-1.1-0.8c-0.9,1.3-2,2.5-3.3,3.6l0.8,1
		C56.4,40.2,56.8,39.9,57.1,39.6"/>
	<path class="st1" d="M61.6,41.9H60v1h-4.4v1.4H60v2.4h1.6v-2.4H66v-1.4h-4.4L61.6,41.9z"/>
	<path class="st1" d="M72.6,44.7c-0.5-0.2-1-0.4-1.5-0.7h3.3C73.8,44.2,73.2,44.5,72.6,44.7 M69.8,41.2h5.4v0.4h-5.4L69.8,41.2z
		 M69.8,40h5.4v0.4h-5.4L69.8,40z M69.8,38.8h5.4v0.4h-5.4L69.8,38.8z M76.6,44V43h-6c0.1-0.1,0.5-0.5,0.5-0.5h5.5v-4.7h-4l0.2-0.4
		h4.7v-1.1H67.3v1.1h3.9l-0.2,0.4h-2.5v4.7h0.9c-0.7,0.7-1.5,1.2-2.3,1.7l0.7,1c0.6-0.3,1.1-0.7,1.7-1.1c0.5,0.4,0.9,0.7,1.5,1
		c-1.1,0.3-2.3,0.4-3.5,0.5l0.2,1c1.7-0.1,3.4-0.5,5-0.9c1.5,0.5,3.1,0.8,4.7,0.9l0.1-1c-1-0.1-2-0.2-3.1-0.5
		C75.1,44.8,75.9,44.4,76.6,44"/>
	<path class="st1" d="M107.8,43.6v-0.8h-1.4v0.8h-1.8c0,0,0.7-0.6,1-0.9h2.9c0.5,0.5,1.1,0.9,1.1,0.9L107.8,43.6z M105.2,41h3.8v0.6
		h-3.8V41z M105.2,39.5h3.8v0.6h-3.8V39.5z M105.2,38.1h3.8v0.6h-3.8V38.1z M112.3,42.7v-1.1h-1.9v-3.5h1.5V37h-1.5V36H109V37h-3.8
		V36h-1.4V37h-1.6v1.1h1.6v3.5h-1.9v1.1h2.1c-0.7,0.6-1.4,1.1-2.2,1.5l0.6,0.9c0.6-0.3,1.2-0.7,1.7-1v0.7h2.3v0.6h-3.9v1h9.2v-1
		h-3.9v-0.6h2.3V44c0.5,0.4,1.1,0.8,1.7,1.1l0.7-0.9c-0.8-0.4-1.6-0.9-2.2-1.5H112.3z"/>
	<path class="st1" d="M82.7,41.5l-0.4-1.2h3.2l-0.4,1.2H82.7z M84.7,42.7h3.9v-1.2h-2l0.4-1.2h2.2V39h-4.5v-0.8h3.8V37h-3.8v-0.9
		h-1.5V37h-3.7v1.3h3.7V39h-4.5v1.3h2.1l0.4,1.2h-1.9v1.2h3.8v0.9h-4.5v1.3h4.5v1.8h1.5v-1.8h4.5v-1.3h-4.5L84.7,42.7z"/>
	<path class="st1" d="M120.9,45.2v-1.3h1.1l1.7-5.8h-1.4l-1.5,4.9v-6.7h-1.5v8.9h-1.5v-8.9h-1.5v6.8l-1.5-5h-1.4l1.7,5.8h1.2v1.3h-3
		v1.2H124v-1.2L120.9,45.2z"/>
	<path class="st1" d="M93.9,36.5h6.6v1.1h-6.6V36.5z"/>
	<path class="st1" d="M95.4,44.6h1.1v1h-1.1V44.6z M95.4,42.6h1.1v1h-1.1V42.6z M97.9,44.6H99v1h-1.1V44.6z M97.9,42.6H99v1h-1.1
		V42.6z M93.6,40.8H93c0.5-0.8,0.8-1.6,0.8-1.6V38H93l-0.6-1.7H91l0.6,1.7h-1.2v1.4h1.8c-0.4,0.8-1.5,2.2-2.3,3.1l0.8,1.1
		c0.3-0.3,0.7-0.6,0.9-1v4.1h1.4V42l0.4,1.1h0.6v3.6h6.5v-5.1h-6.5L93.6,40.8z"/>
	<path class="st1" d="M98.6,39.9h-2.8v-0.7h2.8V39.9z M94.4,41h5.6v-2.9h-5.6V41z"/>
</g>
</svg>
