<?xml version="1.0" encoding="utf-8"?>
<!-- Generator: Adobe Illustrator 24.3.0, SVG Export Plug-In . SVG Version: 6.00 Build 0)  -->
<svg version="1.1" id="图层_1" xmlns="http://www.w3.org/2000/svg" xmlns:xlink="http://www.w3.org/1999/xlink" x="0px" y="0px"
	 viewBox="0 0 128 128" style="enable-background:new 0 0 128 128;" xml:space="preserve">
<style type="text/css">
	.st0{fill:#0080EA;}
</style>
<g>
	<path class="st0" d="M51.9,122.8c-7.7-1.6-15-4.6-21.5-9c-9.6-6.5-17.2-15.7-21.7-26.4C7.2,83.7,6,80,5.2,76.1
		c-1.6-8-1.6-16.2,0-24.2c1.6-7.7,4.6-15,9-21.5c6.5-9.6,15.7-17.2,26.4-21.7c3.6-1.5,7.4-2.7,11.3-3.5c8-1.6,16.2-1.6,24.2,0
		c7.7,1.6,15,4.6,21.5,9c9.6,6.5,17.2,15.7,21.7,26.4c1.5,3.6,2.7,7.4,3.5,11.3c1.6,8,1.6,16.2,0,24.2c-1.6,7.7-4.6,15-9,21.5
		c-6.5,9.6-15.7,17.2-26.4,21.7c-3.6,1.5-7.4,2.7-11.3,3.5C68.1,124.4,59.9,124.4,51.9,122.8L51.9,122.8z M52.3,7.2
		c-7.4,1.5-14.5,4.5-20.7,8.7c-9.3,6.3-16.6,15.2-21,25.5c-1.5,3.5-2.6,7.2-3.4,10.9C5.6,60,5.6,68,7.2,75.7
		c1.5,7.4,4.5,14.5,8.7,20.7c6.3,9.3,15.2,16.6,25.5,21c3.5,1.5,7.2,2.6,10.9,3.4c7.7,1.6,15.7,1.6,23.4,0
		c7.4-1.5,14.5-4.5,20.7-8.7c9.3-6.3,16.6-15.2,21-25.5c1.5-3.5,2.6-7.2,3.4-10.9c1.6-7.7,1.6-15.7,0-23.4
		c-1.5-7.4-4.5-14.5-8.7-20.7c-6.3-9.3-15.2-16.6-25.5-21c-3.5-1.5-7.2-2.6-10.9-3.4C68,5.6,60,5.6,52.3,7.2z M63.2,117.1l0.1-4.8
		l-1.9,0l0-0.5l4.4,0.1l0,0.5l-1.9,0l-0.1,4.8L63.2,117.1z M66.4,111.8l3.8-0.3l0,0.5l-3.2,0.2l0.1,1.8l3-0.2l0,0.5l-3,0.2l0.1,1.9
		l3.3-0.2l0,0.5l-3.9,0.3L66.4,111.8z M59.5,117l-2.5-4.7h0l-0.5,4.3l-0.6-0.1l0.6-5.3l0.6,0.1l2.5,4.7h0l0.5-4.3l0.6,0.1l-0.6,5.3
		L59.5,117z M71,111.5l2.3-0.4c0.4-0.1,0.9,0,1.3,0.1c0.4,0.2,0.6,0.6,0.7,1c0.1,0.3,0,0.6-0.1,0.8c-0.1,0.3-0.4,0.5-0.6,0.6v0
		c0.5,0,0.9,0.3,1,0.8l0.2,0.8c0.1,0.3,0.2,0.5,0.4,0.7l-0.7,0.1c-0.2-0.2-0.3-0.4-0.3-0.7l-0.2-0.7c0-0.3-0.2-0.5-0.4-0.6
		c-0.3-0.1-0.5-0.1-0.8-0.1l-1.6,0.3l0.4,2.3l-0.6,0.1L71,111.5z M73.3,111.6l-1.6,0.3l0.3,1.9l1.6-0.3c0.3,0,0.6-0.2,0.8-0.4
		c0.3-0.5,0.2-1.1-0.2-1.4c-0.2-0.1-0.4-0.1-0.5-0.1C73.6,111.6,73.5,111.6,73.3,111.6L73.3,111.6z M50.8,115.5l1.1-5.2l3.7,0.8
		l-0.1,0.5l-3.1-0.7l-0.4,1.7l2.9,0.6l-0.1,0.5l-2.9-0.6l-0.4,1.9l3.2,0.7l-0.1,0.5L50.8,115.5z M75.9,110.6L78,110
		c1.2-0.3,1.9,0,2.2,1c0.3,1-0.2,1.7-1.4,2l-1.5,0.4l0.6,2.1l-0.6,0.2L75.9,110.6z M78.1,110.5l-1.5,0.4l0.6,2l1.5-0.4
		c0.3-0.1,0.6-0.2,0.9-0.5c0.2-0.3,0.2-0.6,0.1-0.8c-0.1-0.3-0.2-0.5-0.5-0.7c-0.1-0.1-0.3-0.1-0.4-0.1
		C78.5,110.4,78.3,110.5,78.1,110.5L78.1,110.5z M43.1,112.9l1.9-5l3.5,1.3l-0.2,0.5l-3-1.1l-0.6,1.7l2.8,1.1l-0.2,0.5l-2.8-1.1
		l-0.7,1.8l3.1,1.2l-0.2,0.5L43.1,112.9z M80.5,109.3l2.1-0.8c0.4-0.2,0.9-0.2,1.3-0.1c0.4,0.1,0.7,0.5,0.8,0.9
		c0.1,0.3,0.1,0.6,0.1,0.8c-0.1,0.3-0.3,0.5-0.5,0.7v0c0.5-0.1,1,0.2,1.1,0.6l0.4,0.7c0.1,0.3,0.3,0.5,0.5,0.6l-0.6,0.2
		c-0.2-0.2-0.4-0.4-0.5-0.6l-0.3-0.6c-0.1-0.2-0.3-0.4-0.6-0.5c-0.3-0.1-0.5,0-0.8,0.1l-1.5,0.6L83,114l-0.6,0.2L80.5,109.3z
		 M82.7,109l-1.5,0.6l0.7,1.8l1.5-0.6c0.3-0.1,0.6-0.3,0.7-0.6c0.2-0.5,0-1.1-0.5-1.4c-0.1,0-0.2,0-0.3,0
		C83.2,108.8,82.9,108.9,82.7,109z M41.4,112.2c0-0.3,0-0.5,0.1-0.7l0.2-0.7c0.1-0.2,0.1-0.5,0-0.8c-0.1-0.2-0.4-0.4-0.6-0.5
		l-1.4-0.7l-1,2.1l-0.5-0.3l2.4-4.8l2.1,1c0.4,0.2,0.8,0.5,1,0.9c0.2,0.4,0.1,0.8-0.1,1.2c-0.1,0.3-0.3,0.5-0.6,0.6
		c-0.3,0.1-0.6,0.2-0.9,0.1l0,0c0.4,0.3,0.5,0.8,0.3,1.2l-0.3,0.8c-0.1,0.3-0.1,0.5-0.1,0.8L41.4,112.2z M39.9,108.3l1.4,0.7
		c0.3,0.2,0.6,0.2,0.9,0.2c0.5-0.2,0.8-0.8,0.6-1.3c-0.2-0.3-0.4-0.5-0.7-0.6l-1.4-0.7L39.9,108.3z M85.3,107.4l0.5-0.3l2.3,4.8
		l-0.5,0.3L85.3,107.4z M89.7,110.8c-0.6-0.1-1-0.4-1.3-0.9l0.5-0.3c0.2,0.3,0.5,0.6,0.9,0.7c0.4,0,0.8-0.1,1.1-0.3
		c0.3-0.2,0.6-0.4,0.8-0.7c0.2-0.2,0.2-0.5,0-0.8c-0.2-0.3-0.5-0.5-0.8-0.4c-0.4,0-0.8,0.1-1.2,0.2c-0.4,0.1-0.8,0.2-1.3,0.2
		c-0.4,0-0.8-0.2-1-0.6c-0.2-0.4-0.2-0.8,0-1.2c0.2-0.4,0.6-0.8,1-1c0.4-0.3,0.9-0.4,1.4-0.3c0.5,0.1,0.9,0.4,1.2,0.8l-0.5,0.3
		c-0.2-0.3-0.5-0.5-0.8-0.5c-0.4,0-0.7,0-1,0.2c-0.3,0.1-0.5,0.4-0.7,0.6c-0.2,0.3-0.1,0.8,0.2,1c0.1,0.1,0.3,0.1,0.5,0.1
		c0.3,0,0.7-0.1,1-0.2c0.5-0.1,1-0.2,1.5-0.2c0.5,0,0.9,0.2,1.1,0.7c0.2,0.4,0.2,0.8,0,1.2c-0.3,0.5-0.7,0.8-1.1,1.1
		c-0.4,0.2-0.8,0.4-1.3,0.4C89.8,110.8,89.8,110.8,89.7,110.8L89.7,110.8z M36.7,109.8l0.3-1.6l-2.1-1.3l-1.3,1l-0.6-0.3l4.6-3.4
		l0.6,0.4l-1,5.6L36.7,109.8z M35.3,106.6l1.7,1.1l0.6-2.8l0,0L35.3,106.6z M90.9,104.3l3.1-2.1l0.3,0.4l-2.6,1.8l1,1.5l2.5-1.7
		l0.3,0.4l-2.5,1.7l1.1,1.6l2.7-1.9l0.3,0.4l-3.2,2.2L90.9,104.3z M55.4,105.9c-5.5-1.1-10.7-3.3-15.3-6.4
		c-6.9-4.6-12.3-11.2-15.5-18.8c-1.1-2.6-1.9-5.3-2.5-8c-0.6-2.8-0.9-5.7-0.9-8.6c0-0.5,0-1.1,0-1.6c0.1-1.5,0.2-2.9,0.4-4.4v0
		l0-0.1l0-0.1l0-0.1l0-0.1v0l0-0.1v0c0.1-0.4,0.1-0.8,0.2-1.2v0l0-0.1v0l0-0.1l0-0.1l0-0.1l0-0.1v0c0.1-0.6,0.2-1.2,0.4-1.8
		c1.3-5.3,3.5-10.3,6.7-14.8c2.5-3.6,5.6-6.7,9.1-9.4l0,0l0.1-0.1l0.1-0.1l0,0l0.1-0.1c0.6-0.4,1.1-0.8,1.7-1.2
		c1.5-1,3.1-1.9,4.7-2.8l0,0l0.1,0l0,0l0.1,0l0.1,0l0,0c0.8-0.4,1.7-0.8,2.6-1.2c2.4-1,4.8-1.7,7.3-2.3l0,0l0.1,0l0.1,0h0l0.2,0
		c2.6-0.5,5.3-0.8,8-0.9h1.3c2.7,0,5.3,0.3,8,0.9c1.4,0.3,2.7,0.6,4.1,1l0.1,0h0l0.1,0l0,0l0.1,0l0.1,0l0.1,0l0.1,0l0,0l0.1,0h0
		l0.1,0c1,0.3,1.9,0.7,2.9,1.1c2.1,0.9,4.1,1.9,6,3c0.6,0.3,1.1,0.7,1.6,1.1c0.3,0.2,0.7,0.4,1,0.7l0,0l0.1,0.1l0,0l0.1,0l0.1,0.1
		l0,0c3.8,2.8,7.1,6.1,9.8,9.9l0,0l0,0l0.1,0.1l0,0l0.1,0.1l0,0l0.1,0.1v0l0.1,0.1l0,0l0.1,0.1l0,0l0.1,0.1l0,0l0.1,0.1l0,0l0,0
		l0.1,0.1l0,0l0.1,0.1v0c1.1,1.7,2.1,3.4,3,5.3l0,0l0,0.1l0,0.1l0,0c0.2,0.4,0.4,0.8,0.6,1.3c1,2.3,1.8,4.6,2.4,7.1
		c0.6,2.7,1,5.5,1.1,8.3c0,0.5,0,1.1,0,1.6c0,2.9-0.3,5.8-0.9,8.6c-1.1,5.5-3.3,10.7-6.4,15.3c-4.6,6.9-11.2,12.3-18.8,15.5
		c-2.6,1.1-5.3,1.9-8,2.5C66.9,107.1,61.1,107.1,55.4,105.9L55.4,105.9z M22.8,64c0,2.8,0.3,5.6,0.8,8.3c1.1,5.3,3.2,10.3,6.2,14.7
		C34.3,93.7,40.6,98.8,48,102c2.5,1.1,5.1,1.9,7.7,2.4c5.5,1.1,11.1,1.1,16.6,0c5.3-1.1,10.3-3.2,14.7-6.2
		C93.7,93.7,98.9,87.4,102,80c1.1-2.5,1.9-5.1,2.4-7.7c0.6-2.7,0.8-5.5,0.8-8.3c0-0.5,0-1.1,0-1.6H22.8C22.8,62.9,22.8,63.5,22.8,64
		z M46.4,51.6c0.4,0.7,0.9,1.3,1.5,1.8c0.7,0.5,1.4,0.8,2.2,1c0.8,0.2,1.7,0.3,2.6,0.3c1,0,1.9-0.1,2.9-0.4c0.8-0.2,1.5-0.6,2.1-1.1
		c0.5-0.4,1-1,1.3-1.6c0.3-0.6,0.4-1.3,0.4-2c0-0.8-0.2-1.5-0.6-2.2c-0.4-0.5-0.8-1-1.4-1.4c-0.5-0.3-1-0.6-1.6-0.7
		c-0.5-0.2-0.9-0.3-1.2-0.3c-0.9-0.2-1.8-0.5-2.4-0.6c-0.5-0.1-1-0.3-1.5-0.5c-0.3-0.1-0.5-0.3-0.7-0.5c-0.1-0.2-0.2-0.5-0.2-0.8
		c0-0.3,0.1-0.6,0.2-0.8c0.1-0.2,0.3-0.4,0.6-0.6c0.2-0.2,0.5-0.3,0.8-0.3c0.3-0.1,0.6-0.1,0.8-0.1c0.4,0,0.8,0,1.2,0.1
		c0.3,0.1,0.7,0.2,1,0.4c0.3,0.2,0.5,0.4,0.7,0.7c0.2,0.4,0.3,0.8,0.3,1.2h3.4c0-0.8-0.2-1.6-0.5-2.4c-0.3-0.6-0.8-1.2-1.4-1.6
		c-0.6-0.4-1.3-0.7-2-0.9C54,38.1,53.2,38,52.4,38c-0.7,0-1.4,0.1-2.1,0.3c-0.7,0.2-1.3,0.5-1.9,0.9c-0.6,0.4-1,0.9-1.4,1.5
		c-0.4,0.7-0.5,1.4-0.5,2.1c0,1.2,0.5,2.4,1.5,3.1c0.5,0.3,1,0.6,1.5,0.8c0.6,0.2,1.1,0.4,1.7,0.5c0.6,0.2,1.2,0.3,1.7,0.4
		c0.5,0.1,1,0.3,1.5,0.5c0.4,0.2,0.8,0.4,1.1,0.7c0.3,0.3,0.4,0.7,0.4,1c0,0.4-0.1,0.7-0.3,1c-0.2,0.3-0.5,0.5-0.8,0.6
		c-0.3,0.1-0.7,0.3-1,0.3c-0.3,0-0.7,0.1-1,0.1c-0.5,0-0.9-0.1-1.3-0.2c-0.4-0.1-0.8-0.3-1.1-0.5c-0.3-0.2-0.6-0.5-0.8-0.9
		c-0.2-0.4-0.3-0.9-0.3-1.4h-3.4C45.8,49.9,46,50.8,46.4,51.6L46.4,51.6z M34.2,38.7c-0.9,0.4-1.8,1-2.5,1.8
		c-0.7,0.8-1.2,1.7-1.5,2.7c-0.4,1.1-0.5,2.2-0.5,3.3c0,1.1,0.2,2.2,0.5,3.2c0.3,1,0.9,1.9,1.5,2.6c0.7,0.8,1.5,1.4,2.5,1.8
		c1,0.4,2.2,0.7,3.3,0.6c0.9,0,1.8-0.1,2.7-0.4c0.8-0.3,1.5-0.7,2.1-1.3c0.6-0.6,1.1-1.3,1.5-2.1c0.4-0.9,0.6-1.8,0.7-2.7h-3.4
		c-0.1,1-0.5,1.9-1.1,2.6c-0.7,0.7-1.6,1-2.5,1c-0.7,0-1.4-0.1-2-0.5c-0.5-0.3-1-0.7-1.3-1.2c-0.3-0.5-0.6-1.1-0.7-1.7
		c-0.2-0.6-0.2-1.3-0.2-2c0-0.7,0.1-1.4,0.2-2c0.1-0.6,0.4-1.2,0.7-1.8c0.3-0.5,0.8-0.9,1.3-1.2c0.6-0.3,1.3-0.5,2-0.5
		c0.4,0,0.8,0.1,1.2,0.2c0.4,0.1,0.7,0.3,1.1,0.6c0.3,0.2,0.6,0.5,0.8,0.9c0.2,0.3,0.3,0.7,0.4,1.1h3.4c-0.1-0.9-0.3-1.7-0.8-2.5
		c-0.4-0.7-0.9-1.3-1.5-1.8c-0.6-0.5-1.3-0.9-2.1-1.1C38.1,37.8,36,37.9,34.2,38.7L34.2,38.7z M75.8,54.3h12.1v-3h-8.6v-3.9h7.7
		v-2.7h-7.7v-3.4h8.4v-2.9H75.8V54.3z M61.4,54.3h12.1v-3h-8.6v-3.9h7.7v-2.7h-7.7v-3.4h8.4v-2.9H61.4L61.4,54.3z M30.9,105.9
		l1.8-4.2l0,0l-3.7,2.7l-0.5-0.4l2.1-5.1l0.5,0.4l-1.9,4.2l0,0l3.7-2.7l0.5,0.4l-1.8,4.2l0,0l3.7-2.8l0.5,0.4l-4.5,3.2L30.9,105.9z
		 M96.8,100l2.8-2.6l0.4,0.4l-2.3,2.2l1.2,1.3l2.2-2l0.4,0.4l-2.2,2l1.3,1.4l2.4-2.2l0.4,0.4l-2.9,2.7L96.8,100z M25.1,100.8
		l3.4-3.4l-1.3-1.3l0.4-0.4l3.1,3.1l-0.4,0.4l-1.3-1.3l-3.4,3.4L25.1,100.8z M99.9,97.1l0.4-0.5l4.6,1.8l0,0l-2.4-4.3l0.4-0.5l2.7,5
		l-0.5,0.6L99.9,97.1z M23.3,95l-1.9,1.6L21,96.2l4.1-3.4l2.3,2.7l-0.4,0.3L25,93.6l-1.4,1.1l1.8,2.1l-0.4,0.3L23.3,95z M104.1,91.9
		l0.4-0.6l5.6,1.4l-0.4,0.5l-1.5-0.4l-1.4,2l0.9,1.3l-0.4,0.5L104.1,91.9z M104.9,92l1.6,2.4l1.2-1.7L104.9,92L104.9,92z M20.4,94.2
		c-0.7-0.1-1.3-0.5-1.7-1.1c-0.4-0.6-0.6-1.3-0.4-2c0.2-0.7,0.6-1.3,1.3-1.6c0.6-0.4,1.3-0.6,2-0.6c1.4,0.2,2.4,1.6,2.1,3
		c0,0,0,0.1,0,0.1c-0.2,0.7-0.7,1.3-1.3,1.6c-0.5,0.4-1.1,0.6-1.7,0.6C20.6,94.2,20.5,94.2,20.4,94.2z M19.9,90
		c-0.5,0.3-0.9,0.8-1,1.3c-0.2,0.5,0,1.1,0.3,1.5c0.3,0.5,0.8,0.8,1.3,0.9c0.6,0,1.1-0.1,1.6-0.5c0.5-0.3,0.9-0.8,1.1-1.3
		c0.2-1.1-0.4-2.1-1.5-2.3c0,0-0.1,0-0.1,0c-0.1,0-0.1,0-0.2,0C20.8,89.5,20.3,89.6,19.9,90L19.9,90z M106,89.2l0.3-0.5l4.2,2.4
		l1.5-2.7l0.5,0.3l-1.8,3.2L106,89.2z M16.8,89.4c-0.5-0.3-0.8-0.7-1.1-1.1c-0.3-0.4-0.4-1-0.3-1.5c0.1-0.6,0.5-1,1-1.3l0.3,0.5
		c-0.3,0.2-0.6,0.5-0.7,0.9c0,0.4,0,0.8,0.2,1.1c0.2,0.3,0.4,0.6,0.7,0.8c0.2,0.2,0.5,0.2,0.8,0c0.3-0.2,0.5-0.5,0.4-0.8
		c0-0.4-0.1-0.8-0.2-1.2c-0.1-0.4-0.2-0.8-0.2-1.3c0-0.4,0.2-0.8,0.6-1c0.4-0.2,0.9-0.2,1.2,0c0.4,0.2,0.7,0.6,1,1
		c0.3,0.4,0.4,0.9,0.3,1.4c-0.1,0.5-0.4,0.9-0.8,1.1l-0.3-0.5c0.3-0.2,0.5-0.5,0.5-0.8c0-0.4,0-0.7-0.2-1c-0.1-0.3-0.3-0.5-0.6-0.7
		c-0.2-0.2-0.5-0.2-0.8,0c-0.2,0.1-0.4,0.4-0.4,0.7c0,0.3,0.1,0.7,0.2,1c0.1,0.5,0.2,1,0.2,1.5c0,0.5-0.3,0.9-0.7,1.1
		c-0.2,0.1-0.4,0.2-0.6,0.2C17.2,89.6,17,89.5,16.8,89.4L16.8,89.4z M111.1,86.8l-3-1.3l0.2-0.6l3,1.3c0.4,0.2,0.8,0.3,1.2,0.2
		c0.8-0.4,1.2-1.3,0.9-2.1c-0.2-0.4-0.5-0.7-0.9-0.8l-3-1.3l0.2-0.6l3,1.3c0.5,0.2,1,0.6,1.2,1.1c0.3,1.2-0.2,2.4-1.3,2.9
		c-0.2,0.1-0.4,0.1-0.6,0.1C111.8,87,111.4,87,111.1,86.8L111.1,86.8z M13.1,82.4l1.2-1l-0.8-2.3L12,79l-0.2-0.6l5.7,0.2l0.2,0.7
		L13.4,83L13.1,82.4z M14.8,81l2.2-1.8l0,0l-2.9-0.1L14.8,81z M110.6,79.2l0.2-0.7l5.7-0.4l-0.2,0.6l-1.6,0.1l-0.7,2.3l1.3,1
		l-0.2,0.6L110.6,79.2z M111.3,79.1L111.3,79.1l2.2,1.8l0.6-2L111.3,79.1z M11.4,76.8l3.6-3.9v0l-4.3,1l-0.1-0.6l5.2-1.2l0.1,0.6
		l-3.6,3.9v0l4.2-1l0.1,0.6l-5.2,1.2L11.4,76.8z M111.4,76.4l0.9-4.3l0.5,0.1l-0.4,1.8l4.7,1l-0.1,0.6l-4.7-1l-0.4,1.8L111.4,76.4z
		 M112.4,71.5l0.1-0.6l5.3,0.7l-0.1,0.6L112.4,71.5z M10.2,71.1l5.3-0.8l0.1,0.6l-5.3,0.8L10.2,71.1z M115.3,70.1
		c-0.7,0-1.4-0.3-1.9-0.8c-1-1.1-0.9-2.7,0.1-3.7c0,0,0,0,0.1-0.1c1.2-0.8,2.8-0.7,3.9,0.2c1,1.1,0.9,2.7-0.1,3.7c0,0,0,0-0.1,0.1
		c-0.5,0.4-1.1,0.6-1.8,0.6C115.4,70.1,115.4,70.1,115.3,70.1z M113.9,66c-0.8,0.7-0.9,2-0.2,2.8c0,0,0.1,0.1,0.1,0.1
		c0.9,0.7,2.2,0.8,3.2,0.2c0.4-0.3,0.7-0.9,0.7-1.4c0.1-0.5-0.1-1.1-0.5-1.5c-0.4-0.4-1-0.6-1.6-0.6h-0.2
		C114.8,65.6,114.3,65.8,113.9,66z M10,69l2.5-0.2l-0.2-3.1l-2.5,0.2l0-0.6l5.3-0.4l0,0.6l-2.3,0.2l0.2,3.1l2.3-0.2l0,0.6L10,69.6
		L10,69z M112.8,63.6l4.1-3.3v0l-4.3,0.3l0-0.6l5.3-0.3l0,0.6l-4.2,3.3v0l4.4-0.3l0,0.6l-5.3,0.3L112.8,63.6z M13.4,63.5
		c0.4,0,0.7-0.2,0.9-0.5c0.2-0.3,0.3-0.7,0.3-1c0.1-0.6-0.2-1.1-0.6-1.5c-0.4-0.4-1-0.5-1.6-0.5c-0.6-0.1-1.1,0.1-1.6,0.4
		c-0.4,0.3-0.7,0.8-0.7,1.4c0,0.4,0.1,0.8,0.3,1.1c0.2,0.3,0.6,0.6,1,0.7l0,0.6c-1.3-0.3-2.1-1.7-1.7-3c0.1-0.5,0.4-1,0.8-1.3
		c0.6-0.4,1.3-0.6,2-0.5c0.7,0,1.4,0.2,1.9,0.7c0.5,0.5,0.8,1.2,0.8,1.9c0,0.5-0.2,1.1-0.5,1.5c-0.3,0.4-0.8,0.6-1.3,0.7L13.4,63.5z
		 M103.3,39.4l0.7-0.5l-2.2-2.8l-0.8,0.6l-0.6-0.8c0.3-0.2,0.6-0.4,1-0.7l2.7-2.1c0.2-0.1,0.3-0.3,0.5-0.4c0.2,0.3,0.7,0.9,1.4,1.8
		l1.6-1.3c-0.7-0.9-1.4-1.7-1.9-2.3l0.8-0.7c0.4,0.6,1,1.4,1.8,2.4l0.8-0.6c0.4-0.3,0.7-0.6,1-0.9c0.2,0.4,0.4,0.7,0.7,1
		c0.1,0.1,0.1,0.1,0,0.1c0,0-0.1,0-0.2,0c-0.2,0-0.5,0.1-0.6,0.2l-1.2,0.9c0.8,1,1.5,1.8,2,2.4l-0.8,0.7c-0.6-0.9-1.2-1.7-1.8-2.5
		l-1.6,1.3c0.8,1,1.3,1.6,1.5,1.8c-0.2,0.1-0.4,0.2-0.6,0.4l-2.7,2.1c-0.4,0.3-0.6,0.5-0.8,0.7L103.3,39.4z M102.4,35.6l2.2,2.8
		l2-1.6l-2.2-2.8L102.4,35.6z M20.6,37.5l-2-1.6c-0.3-0.3-0.7-0.5-1-0.7c0.4-0.3,1.2-1.3,2.5-2.9L19.6,32c-0.4-0.4-0.9-0.7-1.4-1
		c0.3-0.3,0.6-0.6,0.8-0.9c0.1-0.1,0.1-0.1,0.1-0.1c0,0,0,0.1,0,0.2s0.1,0.3,0.4,0.5l1.1,0.9c1.2-1.6,2-2.6,2.3-3.2
		c0.4,0.4,0.8,0.7,1.1,0.9l1.8,1.4c0.3,0.2,0.7,0.5,1.4,1l-0.7,0.9L26,32.1l-1.7,2.2l1.3,1.1c0.6,0.4,1.1,0.8,1.7,1.2l-0.8,1
		c-0.6-0.6-1.1-1-1.6-1.4l-1.3-1.1l-1.7,2.1l0.7,0.5l-0.7,0.9C21.5,38.2,21,37.8,20.6,37.5z M19.1,35l2.2,1.7l1.7-2.1l-2.2-1.7
		L19.1,35z M21.4,32l2.2,1.7l1.7-2.2l-2.2-1.7L21.4,32z M98.7,33.9c0.7-0.4,1.3-0.9,1.9-1.4l2.9-2.3c-0.5,0-1,0-1.3,0.1
		c0.1-0.3,0.2-0.7,0.2-1.1c0.9,0.1,1.8,0,2.7-0.2c0.9-0.2,1.8-0.5,2.6-0.9c0,0.4,0.1,0.8,0.3,1.1c0,0.1,0,0.1,0,0.1
		c-0.1,0-0.2,0-0.2,0c-0.8,0.1-1.5,0.2-2.3,0.4l-6.1,4.9L98.7,33.9z M31,29.9l-4.2-5.6c-0.3-0.4-0.6-0.7-0.9-1
		c1.3-0.8,2.6-1.7,3.8-2.7c2.1-1.6,3.4-2.6,3.7-2.9c0.2,0.4,0.4,0.8,0.7,1.1l4.1,5.6c0.4,0.5,0.7,0.9,1.1,1.4l-0.8,0.6l-0.3-0.5
		l-5.8,4.4l0.4,0.6L32,31.5C31.7,31,31.3,30.4,31,29.9z M27.3,23.4l4.6,6.2l5.8-4.4l-4.6-6.2L27.3,23.4z M93.1,29.4
		c0.4-0.5,0.8-1,1.2-1.5l1.1-1.4c-1-0.7-1.8-1.3-2.4-1.6l0.7-0.9c0.6,0.5,1.3,1.1,2.3,1.8l2.8-3.8c-0.9-0.7-1.7-1.2-2.2-1.5l0.6-0.9
		c0.6,0.5,1.4,1.2,2.5,2c1.1,0.8,2,1.4,2.6,1.8l-0.6,0.9c-0.5-0.5-1.2-1-2.1-1.7l-2.8,3.8c1.1,0.8,2,1.5,2.7,1.9l-0.7,0.9
		c-0.6-0.5-1.4-1.2-2.5-2L95,28.5c-0.3,0.4-0.7,1-1,1.6L93.1,29.4z M31.3,27.7c0.4-0.2,1.1-0.7,2-1.4l-1.1-1.5
		c-0.6,0.5-1.1,0.9-1.5,1.2l-0.5-0.7c0.4-0.3,0.9-0.6,1.6-1.1l-0.8-1.1c-0.8,0.6-1.3,1-1.7,1.3l-0.6-0.8c0.5-0.3,1.2-0.8,2.3-1.7
		c0.7-0.5,1.4-1.1,2.1-1.6l0.6,0.8c-0.6,0.3-1.2,0.8-2,1.4l0.8,1.1c0.8-0.6,1.4-1.1,1.7-1.4l0.5,0.7c-0.4,0.2-1,0.6-1.8,1.3l1.1,1.5
		c1-0.7,1.7-1.3,2.2-1.7l0.6,0.8c-0.4,0.2-1.2,0.8-2.4,1.7c-1.2,0.9-2,1.5-2.4,1.9L31.3,27.7z M97.8,25.8c0.8-0.5,1.6-1.1,2.3-1.8
		c0.2,0.3,0.5,0.6,0.8,0.9C101,25,101,25,101,25.1c0,0-0.1,0-0.2,0s-0.4,0.1-0.8,0.4c-0.4,0.3-1,0.6-1.6,1
		C98.3,26.3,98.1,26,97.8,25.8z M89.4,25.4c0.3,0,0.6-0.2,0.9-0.6l2.4-3.3c-0.4-0.3-0.8-0.5-1.2-0.8l0.7-0.9c0.3,0.3,0.6,0.6,1,0.8
		c0.3,0.3,0.7,0.5,1.1,0.7c-0.4,0.4-0.7,0.7-1,1.2l-2,2.7c0.4-0.1,0.8-0.2,1.2-0.3c-0.1,0.3-0.1,0.7-0.1,1l-1.7,0.4
		c-0.4,0.1-0.7,0.2-1,0.3C89.6,26.1,89.5,25.7,89.4,25.4L89.4,25.4z M33.7,24.5l0.3-0.8c0.4,0.1,0.8,0.2,1.2,0.3l-0.4,0.9
		C34.5,24.7,34.1,24.5,33.7,24.5L33.7,24.5z M94.9,24c0.4-0.8,0.7-1.6,0.9-2.5l0.9,0.4c-0.2,0.8-0.5,1.6-0.8,2.4L94.9,24z
		 M82.3,22.1c-2.6-1.1-4.3-1.7-4.8-1.8l0.4-1c0.6,0.3,1.6,0.8,3,1.3l2.7-6.6c0.2-0.5,0.4-1,0.5-1.6c0.3,0.2,0.7,0.4,1.1,0.5
		c0.1,0,0.1,0.1,0.1,0.1c0,0-0.1,0.1-0.2,0.1c-0.1,0-0.2,0.1-0.3,0.3l-3,7.6l1.2,0.5l2.6-6.6c0.2-0.5,0.4-1,0.5-1.6
		c0.3,0.2,0.7,0.4,1.1,0.5c0.1,0,0.1,0.1,0.1,0.1c0,0-0.1,0.1-0.2,0.1c-0.1,0-0.2,0.1-0.3,0.3l-3,7.6c1.6,0.6,2.7,1,3.3,1.2l-0.4,1
		C86.5,23.8,84.9,23.1,82.3,22.1z M42.9,21.4c-0.6,0.4-1.2,0.8-1.7,1.3c-0.2-0.3-0.5-0.7-0.8-0.9c0.4-0.2,1.1-0.6,2.2-1.1L42,19.2
		c-0.7,0.3-1.3,0.6-1.9,1c-0.2-0.3-0.4-0.6-0.6-0.8c0.2-0.2,0.3-0.5,0.3-0.8c0-0.4,0-1.1-0.1-2.2c-0.4,0.1-0.7,0.3-1,0.5l-0.4-0.9
		c0.3-0.1,0.8-0.2,1.4-0.5c0-0.5-0.1-1.1-0.3-1.6c0.4,0,0.8-0.1,1.2-0.2c0.1,0,0.1,0,0.1,0c0,0,0,0.1-0.1,0.1
		c-0.1,0.1-0.1,0.2-0.1,0.4c0,0.2,0,0.5,0,0.9c0.7-0.3,1.4-0.6,2.1-0.9l0.4,0.9c-0.8,0.3-1.7,0.6-2.5,0.9l0.1,2.9l1.1-0.4
		c-0.4-0.9-0.6-1.5-0.8-1.8c0.3-0.1,0.7-0.2,1-0.3c0.1,0,0.1,0,0.1,0c0,0,0,0.1-0.1,0.1c-0.1,0.1-0.1,0.2,0,0.3l0.5,1.3
		c0.6-0.2,1.1-0.5,1.6-0.7l0.4,0.9c-0.2,0.1-0.8,0.3-1.7,0.6l0.5,1.3c0.5-0.3,1.1-0.6,1.5-1c0,0.3,0.1,0.7,0.3,1
		c-0.5,0.2-1,0.5-1.5,0.8c0.4,0.9,0.7,1.7,1,2.3l-1,0.4C43.4,22.9,43.2,22.2,42.9,21.4L42.9,21.4z M44.9,22.4
		c0.5-0.7,0.8-1.4,1.1-2.2c0.1-0.7,0.1-1.5-0.1-2.2c-0.2-0.8-0.4-1.6-0.8-2.4c0.4-0.1,0.8-0.2,1.1-0.3c0.1,0,0.2,0,0.2,0
		c0,0.1,0,0.2,0,0.2c-0.1,0.3,0,0.6,0.1,0.8c0.4,0.9,1,1.7,1.7,2.3c0.7,0.6,1.6,0.9,2.5,0.8c-0.2,0.4-0.3,0.9-0.2,1.4
		c-0.8-0.2-1.5-0.5-2.2-1c-0.6-0.5-1.2-1.2-1.6-1.9c0.2,0.8,0.2,1.7,0.1,2.5c-0.1,0.8-0.4,1.5-0.9,2.2
		C45.7,22.5,45.3,22.4,44.9,22.4z M85.2,19.9c1.2-1.1,2.2-2.4,2.9-3.8c0.3,0.3,0.7,0.6,1.1,0.8c0.1,0,0.1,0.1,0.1,0.1
		c0,0-0.1,0.1-0.2,0.1c-0.2,0.1-0.3,0.2-0.5,0.3c-0.2,0.2-0.4,0.4-0.6,0.6c-0.7,0.9-1.4,1.7-2,2.4C85.9,20.2,85.6,20,85.2,19.9
		L85.2,19.9z M94.4,20.2c0.1-0.7,0.2-1.5,0.1-2.2l1.1,0.1c-0.1,0.7-0.1,1.4-0.1,2.1L94.4,20.2z M54,17.6l-0.5-4.2
		c-0.2,0.6-0.6,1.2-0.9,2c-0.2-0.3-0.5-0.5-0.8-0.7c1-1.6,1.7-3.3,1.9-5.2c0.4,0.1,0.7,0.2,1.1,0.2c0.1,0,0.2,0.1,0.2,0.1
		c0,0.1-0.1,0.1-0.2,0.3c-0.2,0.5-0.4,1-0.6,1.5l1.1,8.4l-1,0.1C54.2,19.2,54.1,18.4,54,17.6z M70.2,19c-2.2-0.3-3.9-0.4-5-0.5
		l0.1-1.2c0.7,0.2,1.4,0.3,2,0.4l0.3-2.4c0.1-0.6,0.2-1.3,0.2-1.9c0.4,0.1,0.8,0.2,1.2,0.2c0.1,0,0.1,0,0.1,0.1s0,0.1-0.1,0.1
		c-0.1,0-0.2,0.2-0.2,0.4l-0.5,3.7l1.9,0.2l0.5-3.8c0.1-0.6,0.1-1.3,0.1-1.9c0.2,0.1,0.5,0.1,0.7,0.2c0.2,0,0.4,0.1,0.5,0.1
		s0.2,0,0.2,0.1s-0.1,0.1-0.1,0.1c-0.1,0-0.2,0.1-0.2,0.2c-0.1,0.1-0.1,0.2-0.1,0.4l-0.2,1.4c1,0.2,2.1,0.2,3.1,0.3l-0.1,1.1
		c-1-0.2-2-0.4-3.1-0.5l-0.3,2.5c1.6,0.2,3,0.3,4.1,0.4l-0.1,1.2C74,19.5,72.4,19.3,70.2,19L70.2,19z M59.1,17.4l-0.2-1.6
		c-1.2,0.2-2.3,0.3-3.1,0.5l-0.1-1.1c0.9,0,1.9-0.1,3.2-0.3l-0.3-2.3l-2,0.2c-0.1,0.5-0.2,1.1-0.4,1.6c-0.3-0.1-0.7-0.1-1-0.1
		c0.5-1.4,0.8-2.9,0.9-4.4c0.4,0.1,0.7,0.2,1.1,0.2c0.1,0,0.1,0,0.1,0.1c0,0,0,0.1,0,0.1c-0.1,0.2-0.2,0.5-0.2,0.7
		c-0.1,0.3-0.1,0.6-0.2,1l1.7-0.2l-0.1-1.1c-0.1-0.6-0.2-1.2-0.3-1.8c0.2,0,0.4,0,0.7,0l0.5-0.1c0.1,0,0.2,0,0.2,0.1
		c0,0.1,0,0.1-0.1,0.2s-0.1,0.4,0,0.9l0.2,1.6c1.1-0.2,1.9-0.3,2.4-0.4l0.1,1c-0.7,0-1.5,0.1-2.4,0.2l0.3,2.3c1.1-0.1,2-0.3,2.8-0.5
		l0.1,1.1c-0.9,0-1.8,0.1-2.8,0.2l0.2,1.6c0.1,0.6,0.2,1.3,0.4,2.1l-1.2,0.2C59.2,18.8,59.2,18.1,59.1,17.4L59.1,17.4z M80,18.2
		c0.3-1.5,0.4-3,0.2-4.4l1.2,0c-0.1,1.5-0.2,3-0.1,4.5L80,18.2z M43.3,12.3c0.4,0,0.8-0.1,1.2-0.2c0.1,0,0.2,0,0.2,0
		c0,0,0,0.1-0.1,0.2c-0.1,0.5-0.2,1.1-0.1,1.6l1.9-0.8c0.5-0.2,0.9-0.4,1.4-0.7l0.3,2.6l-1,0.2l-0.1-1.5l-2.4,1
		c0,0.6-0.1,1.2-0.1,1.8c-0.3,0-0.7,0-1,0.1C43.6,15.3,43.6,13.8,43.3,12.3z M72.8,12.4c-0.6-0.7-1.1-1.5-1.5-2.4
		c-0.7,0.8-1.4,1.5-2.2,2.1c-0.9,0.6-1.8,1.1-2.8,1.5c-0.2-0.4-0.5-0.7-0.8-1c1.2-0.2,2.3-0.7,3.3-1.4c0.9-0.6,1.6-1.3,2.1-2.3
		c0.4,0.2,0.8,0.3,1.2,0.4c0.1,0,0.1,0.1,0.1,0.1c0,0.1-0.1,0.1-0.3,0.1c0.4,0.9,1,1.7,1.8,2.3c0.8,0.6,1.7,1,2.6,1.2
		c-0.4,0.3-0.7,0.6-0.9,1.1C74.5,13.7,73.6,13.1,72.8,12.4L72.8,12.4z"/>
	<path d="M93.2,91.7h-5.3v-5h-7l-3,4.8H67.4c0,0,1.8-5,2.8-8.8c0.7-2.6,1.3-5.1,1.9-7.7c0,0-2.3,0-4.5,0c-1.3,0-2.3,0-3.1,0h-0.2
		c-0.3,0-0.6,0-0.8,0h-0.8c-1.3,0-2.4,0.1-2.9,1c-0.4,0.6-0.5,1.3-0.3,1.9c0.4,0.9,1.3,1.5,2.2,1.7c1.5,0.5,2.9,1.3,4,2.4
		c0.6,0.6,1,1.3,1.2,2.1c0.2,0.9,0.2,1.8-0.1,2.6c-0.4,1-0.9,1.9-1.7,2.7c-0.7,0.6-1.4,1.1-2.3,1.4c-1.6,0.5-3.2,0.8-4.9,0.7
		c-0.6,0-1.2,0-1.9,0c-1.5,0-3.2,0.1-5.3,0.1c-2.1,0-4.2,0-6.6-0.1c-7.1-0.2-8.6-0.8-11.5-2.9c-0.8-0.6-1.4-1.4-1.7-2.3
		c-0.5-1.2-0.7-2.4-0.8-3.7c-0.1-1.6,0.1-3.1,0.5-4.6c0.4-1.8,1.1-3.6,2-5.2c0.8-1.6,2-3,3.3-4.1c1.1-0.9,2.4-1.7,3.8-2.2
		c2.2-0.7,4.6-1,6.9-1h9.8l-1.8,3.9c0,0-2.5-0.1-5.1-0.1c-1.6,0-2.9,0-4,0.1c-1.5,0-3,0.3-4.5,0.7c-1,0.3-1.9,0.8-2.7,1.5
		c-1,1.1-1.8,2.3-2.4,3.7c-0.9,1.9-1.5,4-1.7,6.1c-0.2,1.8,0.3,3.5,1.5,4.9c1,1.1,2.4,1.8,3.9,1.8c2.3,0.1,12.6,0.3,16.1,0.3
		c1.4,0.1,2.8,0,4.2-0.3c0.9-0.2,1.6-1,1.6-1.9c0.1-2-2.7-3-4-3.4l-0.2-0.1c-0.6-0.2-1.2-0.5-1.7-0.9c-0.7-0.5-1.3-1.2-1.7-2.1
		c-0.5-1.2-0.4-2.6,0.1-3.7c1.5-3.4,4.8-3.8,7.1-3.8c0.3,0,0.6,0,0.8,0l0.4,0l15.6,0.2c0,0.1-4.5,15.6-4.8,16.6
		c-0.1,0.2,0,0.4,0.1,0.6c0.1,0.1,0.3,0.2,0.5,0.2c0.1,0,0.2,0,0.3,0l10.9-16.8h6.6L93.2,91.7L93.2,91.7z M87.4,76l-4.5,7.5h4.8
		L87.4,76z"/>
</g>
</svg>
