<?xml version="1.0" encoding="utf-8"?>
<!-- Generator: Adobe Illustrator 24.3.0, SVG Export Plug-In . SVG Version: 6.00 Build 0)  -->
<svg version="1.1" id="图层_1" xmlns="http://www.w3.org/2000/svg" xmlns:xlink="http://www.w3.org/1999/xlink" x="0px" y="0px"
	 viewBox="0 0 128 70" style="enable-background:new 0 0 128 70;" xml:space="preserve">
<style type="text/css">
	.st0{fill:#585A58;}
	.st1{fill:#D60200;}
</style>
<g>
	<path class="st0" d="M93.2,62.3c-0.3-0.1-0.7-0.1-1-0.1c-0.6,0-1.2-0.2-1.8-0.4c-0.4-0.2-0.7-0.5-0.9-0.8c-0.2-0.3-0.4-0.7-0.5-1.1
		c-0.1-0.4-0.2-0.9-0.2-1.4s0.1-1,0.3-1.5c0.5-1.6,1.1-3.2,1.8-4.8c0.7-1.4,1.7-2.7,3-3.6c0.4-0.3,0.9-0.5,1.4-0.6
		c0.5-0.2,1-0.3,1.5-0.4l0.7-0.1l0.4-0.1H98c0.1,0,0.3,0,0.4,0c2.8,0,4.6,0.6,5.5,1.7c0.3,0.4,0.5,0.9,0.5,1.5c0,0.7,0,1.4-0.3,2
		l-1.1,3c-0.3,0.8-0.6,1.6-1,2.4c-0.3,0.7-0.8,1.3-1.2,1.9c-0.5,0.6-1.1,1-1.7,1.4c-0.8,0.4-1.6,0.7-2.5,0.9
		c-0.7,0.1-1.5,0.2-2.2,0.2C93.9,62.4,93.6,62.4,93.2,62.3L93.2,62.3z M98,49.1c-0.2,0.1-0.4,0.2-0.6,0.3c-0.3,0.1-0.6,0.2-0.8,0.4
		c-0.7,0.7-1.2,1.5-1.6,2.4c-0.5,1.1-0.9,2.3-1.2,3.3c-0.2,0.6-0.4,1.1-0.5,1.6v0.1c-0.2,0.6-0.4,1.3-0.5,1.9c-0.1,0.3,0,0.7,0.1,1
		s0.3,0.5,0.6,0.7c0.3,0.1,0.5,0.2,0.8,0.1c0.3,0,0.6,0,0.8-0.1c2.5-0.6,3.3-3,4-5.4c0.2-0.6,0.4-1.3,0.6-1.9
		c0.1-0.2,0.1-0.3,0.2-0.5c0.4-0.8,0.9-1.9,0.5-2.9c-0.1-0.4-0.4-0.6-0.8-0.7c-0.4-0.1-0.9-0.2-1.3-0.2C98.2,49.1,98.1,49.1,98,49.1
		L98,49.1z M73.1,62h-5.7l0.7-1.9h6.8c0.4-0.1,0.7-0.5,0.8-0.9c0.3-1.2-0.9-2-1.3-2.6c-1.6-2-4.9-4.8-1.8-7.9
		c0.7-0.7,1.5-0.8,2.6-1.2h8l0,0l-0.7,1.9c-1.9,0-6.9-0.5-7.2,0.9C75,51.4,76,52,76.5,52.5c1.1,1.4,3.9,3.3,3.3,6.1
		C79.1,61.7,76.9,62,73.1,62L73.1,62z M113,61.8c-1.5-0.6-3-6.1-3.6-7.8l-0.7-1.8v0.1l-3.5,9.6H103l0,0l5.3-14.4h2.8l3.6,10l0,0
		l3.6-10h2.2L115.2,62c-0.2,0-0.4,0-0.6,0s-0.4,0-0.6,0C113.6,62,113.3,61.9,113,61.8L113,61.8z M80.6,61.9l5.3-14.5h4.3l0,0
		l-5.3,14.4L80.6,61.9z M60.6,61.9l5.3-14.5h4.3l-5.3,14.4L60.6,61.9z M51.4,61.9l-1.1-14.5c0.7,0,3.9-0.2,4.2,0.1l0.8,9.6h0.1
		l6.5-9.6h2.4L54.5,62L51.4,61.9z M56.6,38.6l0.6-0.6l0,0h0.3c-0.1,0.1-0.3,0.1-0.4,0.3h0.3c-0.2,0.1-0.2,0.1-0.2,0.4h-0.6V38.6z
		 M60.7,37.2h0.2H60.7c-0.1,0.5-0.6,0.8-1.1,0.9C59.7,37.6,60.3,37.5,60.7,37.2z M60.7,36.8l0.1,0.4h-0.1V36.8z M58.2,36.4
		c0.3,0,0.6,0,0.7,0.1L58.2,36.4z M58.2,36.2L58.2,36.2h0.2C58.4,36.2,58.4,36.2,58.2,36.2C58.3,36.2,58.3,36.2,58.2,36.2L58.2,36.2
		z M58.5,36L58.5,36L58.5,36L58.5,36z M117.6,31c-1.1-0.6-1.7-3.9-2-5.3l-0.1,0.1L112,31h-4.4v-0.1l5.9-9v-8.8h4v8.6h0.6l1.6,5.9
		c0.2,0.7,0.2,1.6,0.8,1.9c0.7,0.4,2.4,0.3,3.4,0.2v1.6c-0.9,0-2.2,0.1-3.5,0.1C119.5,31.4,118.5,31.3,117.6,31L117.6,31z M88,30.4
		c-0.5-0.7-0.3-1.9-0.7-2.8c-1,0.6-2.2,1-3.3,1.2l0.4-0.4c0.5-1.1,2.4-2.3,2.6-3.5l-1.4-10.6H71.3v-1.4h14.1l-0.2-1.5H68.8V9.6H85
		l-0.2-2h4.6l0.2,2c2.1,0,2.5-0.4,3-2h2.9l-0.6,1.7c-1,2.6-1.4,2.2-4.9,2.1l0.7,5.2l1-3.7h3.2c-0.8,2.5-1.5,4.9-2.3,7.4L91.3,23
		l0.2,1.6c0.3,1.5,0.2,3.1,0.7,4.3c0.8,0.2,1.6,0.3,2.5,0.2V31c-0.7,0-1.9,0.1-3.1,0.1C90,31.1,88.4,31,88,30.4L88,30.4z M25.6,31
		c-0.3,0-0.6,0-0.9,0H13.1v-7.7h-2.4v-2h2.4v-7.8H25c0.3,0,0.7,0,1.1,0l0,0c0.4,0,0.9,0,1.3,0c0.5,0,0.9,0,1.4,0.1
		c0.4,0,0.7,0.2,1.1,0.4c0.9,0.6,0.8,4,0.7,6.3c0,0.4,0,0.8,0,1.2h1.2v2h-1.2c0,0.4,0,0.9,0,1.4c0.1,1.1,0.1,2.2,0,3.4
		c-0.1,1.2-0.4,2-0.8,2.3s-0.9,0.4-1.4,0.5c-0.6,0.1-1.2,0.1-1.8,0.1C26.2,31,25.9,31,25.6,31L25.6,31z M18.7,25.9h2l0,0h2.1
		l0.1,0.2l1.2,3.3H26v-6.1h-8.9v6.1H20l0,0L18.7,25.9L18.7,25.9L18.7,25.9z M18.7,17.9h1.8h2.4l1.3,3.4h1.9v-5.9h-8.9v5.9H20l0,0
		l-0.7-1.7L18.7,17.9L18.7,17.9L18.7,17.9z M52.9,31H48v-8.7h-7.2v-1.8H48V18h-4.4l0,0h-4.2c0,0.6,0,1.4,0,2.3l0,0
		c0.1,1.9,0.1,4.2,0,6.2c0,0.9-0.1,1.8-0.3,2.7c-0.1,0.4-0.1,0.7-0.3,1c-0.1,0.3-0.2,0.5-0.4,0.7H34l0,0c0.2-0.4,0.4-0.8,0.5-1.2
		c0.1-0.5,0.2-1,0.2-1.5c0.1-1.1,0.1-2.2,0.1-3.4c0-0.4,0-0.8,0-1.2V8.8h13V7.6h4.9v1.2h9v1.8h-9V12c0.3,0,0.8,0,1.4,0
		c0.9,0,2-0.1,3-0.1c1.8,0,2.9,0.1,3.3,0.4c0.4,0.3,0.6,0.8,0.6,1.3c0.1,0.6,0.1,1.3,0,1.9c0,0.2,0,0.4,0,0.6h1.4V18H61
		c0,0.2,0,0.5,0,0.8c0.1,1.1,0.1,2.5-0.3,3.1c-0.1,0.1-0.3,0.2-0.5,0.3c-0.3,0.1-0.6,0.1-1,0.2c-0.7,0.1-1.6,0.1-2.7,0.1
		c-1,0-2.1,0-2.8,0l0,0c-0.4,0-0.7,0-1,0L52.9,31L52.9,31z M52.9,20.5h4V18h-4V20.5z M52.9,16.2h4v-2.4h-4V16.2z M43.6,10.6h-0.3h-4
		v5.5H48v-2.3h-7.2V12H48v-1.4H43.6z M99.6,31v-6.7h-3.1l0,0l3.7-7.4c0.3-0.5,1.4-2.2,1.2-2.8l-0.1-0.2h-4.7v-1.6h7.1
		c1.2,0,2.4,0,2.7,0.8c0.4,1.3-2,4-2.3,5.4l3.2,6.3H105l-1.4-2.7V31H99.6z M85.2,31H81c-0.4-0.2-0.8-0.6-1.1-0.9
		c-0.5-0.5-1-1.1-1.4-1.1c-0.2,0-0.3,0.1-0.4,0.2l-1.3,1.1l-0.6,0.5L76.1,31h-2H72h0.1l0,0l2.2-2l2.2-2c-0.2-0.2-0.4-0.4-0.6-0.6
		c-0.5-0.5-0.8-0.9-1.1-1.3c-0.3-0.4-0.5-0.8-0.7-1.3c-0.2-0.6-0.3-1.1-0.4-1.7c-0.1-0.9-0.1-1.8-0.1-2.7h-1.5V18h1.5v-2.8h3.7V18
		h1.3h1.3v-2.8h3.7V18h1.5v1.4h-1.5c0,1.2,0,2.4-0.2,3.6c-0.1,0.5-0.2,0.9-0.4,1.4c-0.2,0.4-0.4,0.8-0.7,1.2L80.8,27l0.8,0.8
		L85.2,31L85.2,31z M77.2,20.3c-0.1,0.9-0.1,1.8,0,2.7c0.2,0.9,0.5,1.4,1.2,1.5c0.1,0,0.2,0,0.2,0c0.3,0,0.5-0.1,0.7-0.3
		c0.4-0.5,0.6-1.2,0.6-1.8c0-0.8,0-1.6,0-2.3c0-0.2,0-0.5,0-0.7h-2.7C77.2,19.6,77.2,20,77.2,20.3L77.2,20.3z M56.6,31l-2.3-4.2
		c-0.3-0.5-1.1-1.3-0.8-2.2c0.1-0.4,0.5-0.7,0.9-0.8c2.3-0.3,4.7-0.3,7,0v1.6h-3.1l3.1,5.6H56.6z M40.1,31l3.2-5.7h-3.2v-1.6
		c1.7,0,6-0.3,6.9,0.4c0.5,0.4,0.3,1.3,0,1.8L44,31L40.1,31z M4.2,31l1.9-11.4h4.1L8.4,31H4.2z M119.7,23.9V14c0-1.2,0.3-3.2-0.2-4
		c-0.2-0.3-0.5-0.5-0.8-0.7C118,9,112.3,9,111.4,9.2v14.7h-3.7V8.1h10.6c1.9,0,3.8-0.1,4.6,1c0.7,1,0.5,2.9,0.5,4.5v10.3L119.7,23.9
		z M6,17.4l-1.9-4.6l0,0H6l0,0L4,7.6h4.1l2,5.2H8.3l1.8,4.6H6z M11.3,12.4L11.3,12.4l0.1-0.1l3.1-4.7h4.6l-1.3,2h14v2H16.4l-0.5,0.8
		L11.3,12.4z M99.6,11V7.6h3.7V11H99.6z"/>
	<path class="st1" d="M16.9,62l2.5-6.8h-5.2L11.7,62H7.4l5.3-14.5H17l0,0L15,53h5.3l2-5.5h4.3l-3.9,10.7c-0.3,0.8-0.9,3.2-1.5,3.6
		c-0.5,0.2-1.1,0.3-1.7,0.3C18.5,62.1,17.6,62,16.9,62z M42.3,61.9c-0.7-0.3-3-5.2-3.5-6.3l-1.2,0.9l-2,5.5h-4.3l0,0l5.3-14.4h4.2
		l-2,5.5l0,0l7-5.5H49v0.1l-7.1,5.5l4.5,8.9c-0.6,0-1.7,0.1-2.7,0.1C43.3,62.1,42.8,62,42.3,61.9z M29.4,47.5h4.2l-5.3,14.4L24,62
		L29.4,47.5z M56.7,42.5l0.1-0.2c0.7-0.2,1.3-0.6,1.8-1l0.1,0.1c-0.4,0.7-1,0.8-1.8,1.2L56.7,42.5z M57.1,41.2
		c0.7-0.4,1.2-0.9,1.7-1.5v-0.2c-0.3,0-0.6,0-0.7-0.1l1.4-0.8v-0.3l0.6-0.1c0.8-0.6,1.4-1.3,2-2.1c2.2-2.5,3.5-5.3,4.4-9.3
		c0.2-1.1-0.1-2.7,0.1-3.9c0.1-0.5,0.6-1.2,0.3-2.1c-0.2-0.8-0.9-1.4-1.3-2.1l-0.9-3.1H65c0.2,0.5,0.4,1.2,1,1.3v-0.3
		c-0.3-0.9-0.7-2.3-1.5-2.6c-0.1,0.2-0.1,0.2-0.2,0.3c-0.1-0.7-0.2-1.4-0.1-2.1L63.7,12c-0.2-0.3,0-0.8-0.2-1.1
		c-0.2-0.5-0.8-0.6-1-1.1V9.7c0.1,0,0.3,0,0.5,0c0.5,0,1,0,1.2-0.2l1.7,1c0.1-0.1,0.1-0.1,0.3-0.2c0.6,0.2,1.2,0.6,1.7,1
		c0.4,0.6,0.4,1.2,1.2,1.5c0,1.4,0.9,1.9,1.3,2.9l0.4,2.5c0.6,2.8,1.4,7.7,0,10.1L70.5,28v-0.1c0-0.7,0.3-1.2,0.1-1.9
		c-0.2,0-0.4,0.1-0.5,0.2c-0.3,0.8-0.5,1.6-0.5,2.4c0.2,0,0.4,0,0.5,0.1c-0.2,0.4-0.3,1-0.5,1.5h-0.4c0,0.5,0.2,1,0,1.2l-0.7,1.5
		c-0.1,0.8,0.3,0.8-0.3,1.6c-0.8,1.1-2.5,2.1-3.1,3.2c0.7-0.4,1.1-1.3,2-1.3L67,36.7c-1,0.2-1.1,1.2-1.9,1.4h-0.8
		c-0.2,0.8-2.5,2.3-3.6,2.4l0,0c0.1-0.3,0.1-0.7,0.1-1c-0.4,0-0.3,0.1-0.6,0v-0.1c-1.1,0.6-1.9,1.9-3.1,2.1V41.2z M61.4,41.1
		c0.7-0.7,3-1.8,3.2-2.5l0.3,0.1v0.2c-0.5,0.1-0.3,0.4-0.6,0.6l-0.5,0.1l-0.3,0.5C62.9,40.6,62.2,41,61.4,41.1L61.4,41.1z
		 M56.5,40.6l0.8-0.5h0.2v0.2c-0.2,0.3-0.5,0.4-0.9,0.4L56.5,40.6z M56.6,38.6l0.3-0.3l0.4-0.4h0.3l-0.4,0.2h0.3
		c-0.1,0.1-0.2,0.3-0.2,0.4L56.6,38.6L56.6,38.6z M60.7,37.2v-0.4c0.1,0.2,0.2,0.5,0.1,0.5c-0.2,0.5-0.7,0.8-1.2,0.8
		C59.7,37.7,60.3,37.5,60.7,37.2L60.7,37.2z M58.2,36.4h0.7l0,0H58.2z M58.3,36.2L58.3,36.2L58.3,36.2L58.3,36.2z M58.5,36.1
		L58.5,36.1L58.5,36.1L58.5,36.1z M69.5,31.5v-0.3l0.4-0.4v-0.6c0.3,0,0.3,0.1,0.4,0.2l0.1,0.5l-0.6,0.9L69.5,31.5z"/>
</g>
</svg>
