<?xml version="1.0" encoding="utf-8"?>
<!-- Generator: Adobe Illustrator 24.3.0, SVG Export Plug-In . SVG Version: 6.00 Build 0)  -->
<svg version="1.1" id="图层_1" xmlns="http://www.w3.org/2000/svg" xmlns:xlink="http://www.w3.org/1999/xlink" x="0px" y="0px"
	 viewBox="0 0 128 50" style="enable-background:new 0 0 128 50;" xml:space="preserve">
<style type="text/css">
	.st0{fill:#595757;}
	.st1{fill:#F8B425;}
</style>
<g>
	<path class="st0" d="M5,39.1v-3.4h5.8v3.4H5z M5.7,38.5h4.4v-2.1H5.7V38.5z M11.1,43.8h-2v0.7H8.4v-4.5h3.5v4.5h-0.7V43.8z M9.1,43
		H11v-2.4H9.1L9.1,43z M7.4,39.9v4.5H6.7v-0.7H4.8v0.7H4v-4.6L7.4,39.9z M6.7,40.7H4.8V43h1.9V40.7z"/>
	<path class="st0" d="M18.4,39.9v-4c3,0,5.2-0.2,6.3-0.5l0.4,0.7c-1.4,0.4-3.4,0.6-6,0.6v3.8c0,1.7-0.5,3.1-1.4,4l-0.7-0.6
		C17.9,43.1,18.4,41.7,18.4,39.9z M19.4,38v-0.7h2.7v-0.6h0.8v0.6h3.2V38h-3.2v0.6H25v3.8h-0.7v-3h-3.5v3h-0.7v-3.7h2.2V38L19.4,38
		L19.4,38z M19.4,44.4L19,43.6c0.8-0.1,1.6-0.4,2.2-1c0.5-0.5,0.8-1.1,0.7-1.8l0.1-1.1l0.7,0.1v0.6c0,0.7-0.1,1.3-0.4,1.9
		c-0.3,0.5-0.7,0.9-1.1,1.2C20.7,44,20.1,44.3,19.4,44.4L19.4,44.4z M22.5,42.8l0.4-0.6c1.1,0.3,2.1,0.9,2.8,1.7l-0.4,0.6
		C24.5,43.7,23.5,43.1,22.5,42.8L22.5,42.8z"/>
	<path class="st0" d="M36.9,35.1l0.7,0.4l-0.1,0.2c0.7,1.4,1.7,2.5,2.9,3l-0.5,0.7c-1.2-0.7-2.2-1.7-2.8-2.9
		c-0.6,1.2-1.4,2.2-2.5,2.9l-0.5-0.6C35.5,38,36.5,36.7,36.9,35.1z M32.6,40.8l2.2-0.6V41c-1.1,0.2-2.1,0.6-3,0.8l-0.3-0.7
		c0.5-0.5,1-1.1,1.4-1.7c-0.4,0.1-0.7,0.2-1.1,0.3L31.3,39c0.7-1.2,1.2-2.4,1.7-3.7l0.7,0.3c-0.6,1.4-1.1,2.4-1.5,3.1l1.1-0.2
		c0.2-0.4,0.5-0.8,0.7-1.2l0.7,0.3C33.9,39.2,33.2,40.3,32.6,40.8z M35.6,38.9h3.4v0.7h-3.4V38.9z M35.2,44.5v-4h4.1v4h-0.7v-0.8
		h-2.6v0.8H35.2z M36,43h2.6v-1.7H36V43z M34.9,42.6l-3.1,1.1L31.4,43l3.5-1.2L34.9,42.6z"/>
	<path class="st0" d="M52.4,41.1c0.4-0.8,0.7-1.7,0.8-2.6l0.7,0.3c-0.2,1.2-0.6,2.3-1.2,3.4c0.1,0.4,0.3,0.7,0.4,1.1
		c0.2,0.2,0.2,0.4,0.3,0.4c0.1,0,0.2-0.5,0.2-1.4l0.7,0.3c0,0.5-0.2,0.9-0.3,1.4c-0.1,0.2-0.2,0.4-0.3,0.6c-0.1,0.1-0.2,0.1-0.4,0.1
		c-0.2,0-0.4-0.1-0.7-0.4c-0.3-0.3-0.5-0.7-0.6-1.1c-0.5,0.5-1,1-1.6,1.4l-0.6-0.5c0.8-0.4,1.4-1,2-1.7c-0.3-1.3-0.5-2.6-0.6-4h-2
		v1.2h1.9c0,0.7,0,1.4-0.1,2.1c0,0.3-0.1,0.7-0.2,1c-0.1,0.3-0.4,0.5-0.7,0.5c-0.3,0-0.6-0.1-0.8-0.2l-0.2-0.9
		c0.6,0.3,0.9,0.4,1,0.2l0.1-0.9c0.1-0.5,0.1-0.9,0.1-1.1h-1.1c0,1-0.1,1.9-0.4,2.9c-0.2,0.6-0.6,1.2-1,1.7l-0.7-0.5
		c0.9-1,1.4-2.4,1.4-3.8v-2.9h2.8l-0.1-1.9H52l0.1,1.9h2.1v0.7H52C52.1,38.9,52.2,40,52.4,41.1z M52,36.1l0.6-0.5
		c0.6,0.2,1.1,0.6,1.4,1.1l-0.6,0.6C53.1,36.7,52.6,36.3,52,36.1z M48.4,41.3l-2.6,1.1l-0.6-0.6c0.5-0.1,0.9-0.3,1.4-0.6v-2.6h-1.1
		V38h1.1v-2.2h0.7V38h0.9v0.7h-0.9V41l1.1-0.4L48.4,41.3L48.4,41.3z"/>
	<path class="st0" d="M64.3,36.5l-0.2,0.1h4v0.7h-8.7v-0.7h4c-0.3-0.4-0.6-0.7-1.1-0.9l0.6-0.6C63.5,35.5,64,36,64.3,36.5z
		 M66.2,42.3v-2.7h-2.1v4.9h-0.8v-4.9h-2v3.8h-0.8v-4.5h2.8v-1.2h0.8v1.2H67v3.5c0,0.6-0.2,0.9-0.8,0.9h-0.9L65,42.5l0.9,0.1
		C66.1,42.5,66.2,42.5,66.2,42.3L66.2,42.3z"/>
	<path class="st0" d="M81,41.2h-3c0,0.6-0.3,1.2-0.7,1.7c1,0.5,2.7,0.8,5.1,0.9l-0.5,0.8c-2.2-0.1-4-0.5-5.1-1.1
		c-1,0.7-2.1,1.1-3.3,1.2L73.1,44c1-0.2,2-0.5,3-0.9c-0.6-0.4-1.1-0.8-1.5-1.3l0.6-0.4c0.6,0.5,1.1,0.9,1.5,1.2
		c0.3-0.4,0.5-0.8,0.6-1.3h-2.8v-3.8h2.9v-0.7h-4V36H82v0.7h-3.9v0.7h2.8L81,41.2L81,41.2z M78.2,38.8h2.1v-0.7h-2.1V38.8z
		 M77.4,38.1h-2.2v0.7h2.2V38.1z M80.3,40.4v-0.8h-2.1l-0.1,0.8H80.3z M77.4,39.6h-2.1v0.8h2.1V39.6z"/>
	<path class="st0" d="M94.9,40.3h-2.6c-0.7,0.6-1.7,1.2-3.2,1.8l-0.6-0.6c2.1-0.7,3.5-1.7,4.4-2.9c-1.5,0.9-3.1,1.5-4.9,1.8
		l-0.5-0.7c1.1-0.2,2.2-0.5,3.2-0.9c-0.3-0.4-0.7-0.7-1.1-0.9l0.7-0.4c0.4,0.2,0.8,0.6,1.1,1c0.7-0.4,1.4-0.9,2.1-1.4h-2.8
		c-0.7,0.5-1.4,0.8-2.2,1.1l-0.7-0.6c1.5-0.4,2.9-1.3,3.9-2.5l0.7,0.4c-0.1,0.1-0.4,0.4-0.7,0.8h2.9V37c-0.4,0.5-0.9,1-1.4,1.4
		l0.6,0.3L93,39.5h2.7v0.7c-0.6,1.1-1.5,2-2.6,2.6c-1.2,0.7-2.9,1.2-5.3,1.7l-0.5-0.7c1.6-0.2,3.1-0.6,4.5-1.2
		c-0.3-0.4-0.7-0.8-1.1-1l0.7-0.4c0.4,0.3,0.8,0.7,1.1,1.1C93.8,41.7,94.6,41,94.9,40.3L94.9,40.3z"/>
	<path class="st0" d="M109.8,38h-0.6c-0.2,1.7-0.6,3-1.2,4c0.6,0.8,1.3,1.4,2.1,1.9l-0.6,0.6c-0.8-0.5-1.5-1.1-2.1-1.8
		c-0.6,0.8-1.5,1.4-2.4,1.8l-0.5-0.6c0.9-0.5,1.8-1.1,2.4-1.9c-0.4-0.7-0.7-1.4-0.9-2.1c-0.2,0.4-0.4,0.8-0.6,1.2l-0.7-0.4
		c0.9-1.3,1.4-3.1,1.5-5.3l0.7,0.2c0,0.4-0.1,0.9-0.1,1.7h2.8L109.8,38L109.8,38z M108.4,38h-1.6l-0.2,0.7c0.1,0.9,0.4,1.8,0.9,2.6
		C108.1,40.3,108.4,39.2,108.4,38L108.4,38z M102.5,42.9l2.9-1.1v0.8L102,44l-0.7-0.5c0.2-0.1,0.3-0.2,0.4-0.4
		c0.1-0.2,0.1-0.4,0.1-0.6V39h2.6v-2.2h-2.8v-0.7h3.6v4h-0.8v-0.4h-1.8L102.5,42.9z"/>
	<path class="st0" d="M118.8,40h-0.7v-2.7h-3v-0.7h4.2c-0.3-0.3-0.6-0.6-1-0.9l0.4-0.5c0.5,0.3,1,0.7,1.3,1.1l-0.2,0.2h3.9v0.7h-3
		V40H120v-2.7h-1.2V40H118.8z M115.7,40.5l-0.6-0.6c0.7-0.6,1.3-1.4,1.9-2.2l0.6,0.4C117.1,39.1,116.4,39.9,115.7,40.5z M121.4,38.2
		l0.6-0.4c0.8,0.5,1.4,1.2,1.9,2.1l-0.7,0.4C122.7,39.5,122.1,38.8,121.4,38.2L121.4,38.2z M121.8,40.2V41c-0.5,0.6-1,1.2-1.6,1.6
		c1.2,0.6,2.5,1,3.8,1.1l-0.4,0.7c-0.6-0.1-1.2-0.2-1.7-0.4c-0.8-0.3-1.5-0.6-2.2-1c-1.3,0.7-2.7,1.2-4.2,1.4l-0.4-0.7
		c1.4-0.1,2.7-0.5,4-1.1c-0.6-0.4-1.1-1-1.5-1.6h-0.7v-0.7L121.8,40.2L121.8,40.2z M120.8,41h-2.5c0.4,0.5,0.8,0.9,1.2,1.2
		C120.1,41.8,120.5,41.4,120.8,41L120.8,41z"/>
	<path class="st0" d="M107.1,8h2.2v2.3h1.8v1.9l1.4-0.3V8.5h2.2v2.9l2.2-0.5V8h2.2v2.4l2.4-0.5h2.2v12.4c0,0.8-0.6,1.4-1.3,1.4
		c-0.1,0-0.1,0-0.2,0h-1.5l-0.2-2.1h1v-9.8l-2.4,0.5v11.4H117V12.9l-2.2,0.5v12.3l8.9,0.1v2H114c-1,0-1.5-0.6-1.5-1.7V13.9l-1.4,0.3
		v-1.9h-1.8v12.9l1.8-0.2v1.9l-5.9,0.9v-2.1l1.9-0.2V12.2h-1.9v-1.9h1.9L107.1,8L107.1,8z M65.4,7.5h2.4l0.7,3h-2.2L65.4,7.5z
		 M58.4,15.7v-2.2l3.5,1.6v2.1L58.4,15.7z M59.6,19.7h2.2l-1.3,8H58L59.6,19.7z M35.3,15.7v-3.2c1.9-1.5,2.7-3.6,3.2-4.9h2.6
		c-0.3,1.3-0.8,2.5-1.5,3.6v9.3h-2.3v-6.3C36.7,14.7,36,15.3,35.3,15.7z M73.8,25.5h1.4V10.3h-5.9V8.2h8.1v18c0,0.9-0.4,1.5-1.3,1.5
		H74L73.8,25.5z M62.9,27.7v-18h2.3v18L62.9,27.7z M98,18.9v-1.2H85.7v1.1L98,18.9L98,18.9z M98,21.2v-0.9H85.7v0.9L98,21.2z
		 M98,23.6v-0.9H85.7v0.9L98,23.6z M98,26v-1H85.7v1H98z M88.3,10.7V9.5h-3v1.2L88.3,10.7z M95.7,9.5v1.2h2.7V9.5L95.7,9.5z M93.4,8
		h7.3v2.8c0,0.8-0.5,1.3-1.4,1.3H93l-0.2,1.1h9v1.6h-9.3L92.1,16h8v10h1.4v1.7H81.9V26h1.4V16h6.3l0.2-1.1h-8v-1.6h8.3l0.2-1.1h-7.6
		V8H93.4L93.4,8z M93.4,10.7V9.5h-2.9v1.2L93.4,10.7z M43.6,21h2.4v1.2h8v2.2h-8v3.2h-2.4v-3.2h-8v-2.2h8V21z M45,7.7h2.3v4l6.5-2.3
		L53.8,12l-6.5,2.2v3.5h6.5l-0.5,2.2h-6.8c-0.9,0-1.6-0.5-1.6-1.4V15l-2.4,0.9v-2.5l2.6-0.9L45,7.7z M58.4,10V7.8l3.5,1.6v2.1
		L58.4,10z M66.6,19.1v-1.9H69V14h-2.7v-1.9h7.8V14h-2.7v3.1h2.5v1.9h-2.5V23h2.7v1.9h-7.8V23H69v-3.9H66.6L66.6,19.1z"/>
	<path class="st1" d="M13.1,15.6l2.7,4.7c0.3,0.5,0.8,0.6,1.3,0.4c0.4-0.2,0.6-0.8,0.3-1.2c0,0,0,0,0-0.1L14,13.2
		c-0.2-0.4-0.8-0.6-1.2-0.4c-0.2,0.1-0.3,0.2-0.4,0.4l-3.5,6.1c-0.3,0.5-0.1,1,0.4,1.3c0,0,0,0,0,0c0.4,0.2,1,0.1,1.2-0.4
		c0,0,0,0,0,0L13.1,15.6z M4,5.3h22.4v12.6l-2.7-4.7c-0.2-0.4-0.8-0.6-1.2-0.4c-0.2,0.1-0.3,0.2-0.4,0.4l-3.5,6.1
		c-0.3,0.5-0.1,1,0.3,1.3c0.5,0.3,1,0.1,1.3-0.4c0,0,0,0,0,0l2.7-4.7l2.7,4.7c0.2,0.3,0.5,0.5,0.8,0.5v5l-2.7-4.7
		c-0.2-0.4-0.8-0.6-1.2-0.4c-0.2,0.1-0.3,0.2-0.4,0.4l-3.5,6.1c-0.1,0.2-0.1,0.3-0.1,0.5h-0.9c0-0.2-0.1-0.3-0.1-0.5L14,21.2
		c-0.2-0.4-0.8-0.6-1.2-0.4c-0.2,0.1-0.3,0.2-0.4,0.4l-3.5,6.1c-0.1,0.2-0.1,0.3-0.1,0.5L4,27.7V5.3z M25.3,27.7h-4.9l2.4-4.2
		L25.3,27.7z M15.5,27.7h-4.9l2.4-4.2L15.5,27.7z"/>
</g>
</svg>
