<?xml version="1.0" encoding="utf-8"?>
<!-- Generator: Adobe Illustrator 24.3.0, SVG Export Plug-In . SVG Version: 6.00 Build 0)  -->
<svg version="1.1" id="图层_1" xmlns="http://www.w3.org/2000/svg" xmlns:xlink="http://www.w3.org/1999/xlink" x="0px" y="0px"
	 viewBox="0 0 128 128" style="enable-background:new 0 0 128 128;" xml:space="preserve">
<style type="text/css">
	.st0{fill:#EA020A;}
</style>
<g>
	<path class="st0" d="M55.1,4c-6,0.1-11.6,2.7-15.5,7.2c-6.1,8.3-1.6,20,1.6,26.5c3.3,6.7,18.2,30.5,18.8,31c0.5,0.5,1.1,0.5,1.1,0
		c0-0.5,1.6-35.4,0.5-43.7C60.2,17.8,58,10.8,55.1,4L55.1,4z M22.5,20.1c-1.1,0-8.8,8.3-10,15.5s2.8,12.8,11.6,18.8
		c9.4,6.7,31,18.2,31.5,17.7c0.5-1.1-8.3-16.6-16.1-28.2C31.8,32.2,23.6,20.1,22.5,20.1z M25.2,90.8c6.7,2.8,17.2-3.9,20-5.6
		l7.7-5.6l-37.7,1.1C17.7,85,21.1,88.4,25.2,90.8L25.2,90.8z M26.4,60.4c-6.7-3.3-20.5-11-21.1-11S2.6,59.4,7,66.6s12.8,9.4,16.6,10
		c4.4,0.5,29.8,0.5,29.8,0C52.9,75.9,33,63.8,26.4,60.4z M88.3,11.2C84.4,6.7,78.8,4,72.8,4c-2.8,6.6-4.9,13.4-6.1,20.5
		c-1.1,8.3,0.5,43.7,0.5,43.7c0,0.5,0.5,0.5,1.1,0c0.5-0.5,16.1-24.9,18.8-31C90,31.1,94.4,19.5,88.3,11.2L88.3,11.2z M123.1,49.4
		c-0.5,0-14.4,7.7-21,11.1C95.4,63.8,75.6,76,75,76.5c0,0.5,25.4,0.5,29.8,0c3.9-0.5,12.1-2.8,16.6-10
		C125.3,59.4,123.1,49.4,123.1,49.4L123.1,49.4z M82.7,85.3c2.8,1.6,13.3,8.3,20,5.6c4.4-2.4,7.8-6,10-10.5L75,79.2L82.7,85.3z
		 M115.4,35.6c-0.5-7.2-8.8-15.5-10-15.5c-1.1,0-10.5,12.1-17.7,23.8S71.6,71,72.3,72c0.5,1.1,22.1-11.1,31.5-17.7
		C112.6,48.2,115.9,43.3,115.4,35.6L115.4,35.6z"/>
	<path d="M4.8,123.6v-20.4h4.3v8.1H18v-8.1h4.3v20.4h-4.3v-8.8H9.1v8.8L4.8,123.6z M27.5,116v-12.9h4.3v13.1c-0.1,1.2,0.3,2.4,1,3.3
		c0.9,0.8,2.2,1.2,3.4,1c1.2,0.1,2.5-0.2,3.5-1c0.8-0.9,1.2-2.1,1-3.3v-13.1H45v13.5c0.1,2-0.7,4-2.3,5.4c-1.9,1.3-4.2,2-6.5,1.9
		c-2.9,0-5.1-0.6-6.6-1.9C28.1,120.5,27.3,118.2,27.5,116L27.5,116z M47.8,123.6l7-20.4h5.5l6.9,20.4h-4.3l-1.5-4.5h-8l-1.5,4.5
		H47.8z M54.5,115.8h5.9l-2.9-9.1L54.5,115.8z M73.2,123.6l-6-20.4h4.3l3.3,11.7c0.1,0.4,0.3,1,0.4,1.8c0.2,0.8,0.3,1.7,0.5,2.7
		c0.1-1.3,0.4-2.6,0.8-3.9c0-0.2,0.1-0.4,0.2-0.6l3.4-11.9h3.7l3.2,11.7c0.1,0.4,0.3,1,0.4,1.8c0.2,0.8,0.3,1.7,0.5,2.7
		c0.1-0.7,0.2-1.4,0.3-2.1c0.2-0.7,0.3-1.6,0.6-2.3l3.4-11.9h4.3l-6,20.4h-4.9l-2.9-10.2c-0.3-1-0.4-1.8-0.6-2.5
		c-0.2-0.7-0.3-1.3-0.3-2c-0.2,1-0.3,1.8-0.4,2.6c-0.2,0.8-0.3,1.4-0.4,1.9l-2.9,10.3h-4.9L73.2,123.6z M99.6,123.6v-20.4h15.1v3.3
		h-10.8v4.9h7.8v3.3h-7.8v5.6h11.2v3.5L99.6,123.6L99.6,123.6z M119.1,123.6v-20.4h4.4v20.4H119.1z"/>
</g>
</svg>
