<?xml version="1.0" encoding="utf-8"?>
<!-- Generator: Adobe Illustrator 24.3.0, SVG Export Plug-In . SVG Version: 6.00 Build 0)  -->
<svg version="1.1" id="图层_1" xmlns="http://www.w3.org/2000/svg" xmlns:xlink="http://www.w3.org/1999/xlink" x="0px" y="0px"
	 viewBox="0 0 128 70" style="enable-background:new 0 0 128 70;" xml:space="preserve">
<path d="M121.7,54.8c0.2,0,0.3-0.1,0.3-0.3v-0.2c0-0.2-0.1-0.3-0.3-0.3h-0.5v0.7L121.7,54.8z M121.3,56h-0.6v-2.5h1.1
	c0.6,0,0.8,0.3,0.8,0.8c0,0.4-0.2,0.6-0.5,0.7l0.6,0.9H122l-0.5-0.8h-0.3L121.3,56L121.3,56z M123.4,55v-0.3c0-1-0.8-1.8-1.8-1.8
	l0,0h-0.1c-1,0-1.8,0.7-1.8,1.7V55c0,1,0.8,1.8,1.8,1.8C122.6,56.8,123.4,56,123.4,55L123.4,55L123.4,55L123.4,55z M119.3,54.8
	c0-1.4,1.1-2.4,2.4-2.4s2.4,1,2.4,2.4s-1.1,2.4-2.4,2.4C120.3,57.2,119.3,56.2,119.3,54.8L119.3,54.8L119.3,54.8z M85.1,15.9
	L84,12.8H66.2v3.1H85.1z M87.1,21.8L86,18.7H66.2v3.1H87.1z M100.4,57.1h15.5V54h-15.5V57.1z M100.4,51.2h15.5v-3.1h-15.5V51.2z
	 M100.4,45.3h9.3v-3.1h-9.3V45.3z M100.4,39.4h9.3v-3.1h-9.3V39.4z M100.4,33.5h9.3v-3.1H91.9L91,32.9l-0.9-2.5H72.4v3.1h9.3v-2.8
	l1,2.8h16.6l1-2.8L100.4,33.5L100.4,33.5z M109.7,24.6H94l-1.1,3.1h16.8V24.6z M72.4,39.4h9.3v-3.1h-9.3V39.4z M72.4,45.3h9.3v-3.1
	h-9.3V45.3z M66.2,51.2h15.5v-3.1H66.2V51.2z M66.2,57.1h15.5V54H66.2V57.1z M98.1,12.8L97,15.9h18.9v-3.1H98.1z M95,21.8h20.9v-3.1
	H96L95,21.8L95,21.8z M72.4,27.6h16.8l-1.1-3.1H72.4V27.6L72.4,27.6z M84.8,39.4h12.5l1.1-3.1H83.7L84.8,39.4z M86.9,45.3h8.3
	l1.1-3.1H85.8L86.9,45.3z M89,51.2h4.1l1.1-3.1h-6.3L89,51.2z M91,57.1l1.1-3.1H90L91,57.1z M28.9,57.1h22.9c3,0,5.8-1.1,8-3.1H28.9
	V57.1L28.9,57.1z M53.2,42.2v3.1h10.5c0-1-0.1-2.1-0.4-3.1H53.2z M35.1,45.3h9.3v-3.1h-9.3V45.3L35.1,45.3z M53.2,27.6h10
	c0.3-1,0.4-2,0.4-3.1H53.2V27.6z M35.1,27.6h9.3v-3.1h-9.3V27.6L35.1,27.6z M51.8,12.8H28.9v3.1h30.9C57.6,13.9,54.7,12.8,51.8,12.8
	z M62,18.7H28.9v3.1h34.4C63,20.7,62.6,19.6,62,18.7z M35.1,30.4v3.1h24.4c1-0.9,1.9-1.9,2.6-3.1H35.1L35.1,30.4z M59.4,36.3H35.1
	v3.1H62C61.3,38.3,60.5,37.2,59.4,36.3L59.4,36.3z M28.9,51.2H62c0.6-1,1-2,1.2-3.1H28.9V51.2L28.9,51.2z M4,15.9h21.8v-3.1H4V15.9z
	 M4,21.8h21.8v-3.1H4V21.8z M10.2,27.6h9.3v-3.1h-9.3V27.6z M10.2,33.5h9.3v-3.1h-9.3V33.5z M10.2,39.4h9.3v-3.1h-9.3V39.4z
	 M10.2,45.3h9.3v-3.1h-9.3V45.3z M4,51.2h21.8v-3.1H4V51.2z M4,57.1h21.8V54H4V57.1z"/>
</svg>
