<?xml version="1.0" encoding="utf-8"?>
<!-- Generator: Adobe Illustrator 24.3.0, SVG Export Plug-In . SVG Version: 6.00 Build 0)  -->
<svg version="1.1" id="图层_1" xmlns="http://www.w3.org/2000/svg" xmlns:xlink="http://www.w3.org/1999/xlink" x="0px" y="0px"
	 viewBox="0 0 128 50" style="enable-background:new 0 0 128 50;" xml:space="preserve">
<style type="text/css">
	.st0{fill:#CB0000;}
</style>
<g>
	<path class="st0" d="M98.7,18.2L94,29.8l-4.7-11.7h-5.8L91.1,37H97l7.6-18.9h-5.9V18.2z"/>
	<path class="st0" d="M9.4,32.2V12.6H4v24.5h17v-4.8L9.4,32.2L9.4,32.2z"/>
	<path class="st0" d="M113.8,17.8c-5.6,0-10.2,4.4-10.2,9.8s4.6,9.8,10.2,9.8S124,33,124,27.6S119.4,17.8,113.8,17.8z M113.7,33
		c-2.8,0-5-2.4-5-5.3s2.3-5.3,5-5.3s5,2.4,5,5.3S116.5,33,113.7,33L113.7,33z"/>
	<path class="st0" d="M74.1,17.8c-5.6,0-10.2,4.4-10.2,9.8s4.6,9.8,10.2,9.8s10.2-4.4,10.2-9.8S79.8,17.8,74.1,17.8z M74,33
		c-2.8,0-5-2.4-5-5.3s2.3-5.3,5-5.3c2.8,0,5,2.4,5,5.3S76.8,33,74,33z"/>
	<path class="st0" d="M62.1,25.4c0.1-3.4-2.2-7.4-7-7.6c-3.9-0.2-6.1,2-6.7,2.9v-2.5H43v18.9h5.4V25.6c0.5-1.7,1.8-3.1,4.1-3.2
		c3.8,0.3,4.2,3.3,4.2,3.3v11.4h5.4V25.6C62.1,25.6,62.3,28.8,62.1,25.4z"/>
	<path class="st0" d="M28.1,31.7l13.1-5.4c0,0-0.3-7-8.1-8.3c-1.1-0.1-2.2-0.1-3.2,0c-2.5,0.4-6.6,1.9-8,6.7c-2,7.1,2.5,10.2,3.6,11
		s8.4,4.4,15.3-1.8l-3.4-2.5C37.5,31.2,32.2,35.4,28.1,31.7L28.1,31.7z M26.6,26c0.6-3.1,3.4-3.7,4-3.8c3.8-0.5,4.8,2.4,4.8,2.4
		l-8.8,3.6C26.5,27.5,26.5,26.7,26.6,26L26.6,26z"/>
</g>
</svg>
