<?xml version="1.0" encoding="utf-8"?>
<!-- Generator: Adobe Illustrator 24.3.0, SVG Export Plug-In . SVG Version: 6.00 Build 0)  -->
<svg version="1.1" id="图层_1" xmlns="http://www.w3.org/2000/svg" xmlns:xlink="http://www.w3.org/1999/xlink" x="0px" y="0px"
	 viewBox="0 0 128 50" style="enable-background:new 0 0 128 50;" xml:space="preserve">
<style type="text/css">
	.st0{fill:#ED1B23;}
	.st1{fill:#221E1F;}
</style>
<g>
	<path class="st0" d="M17.4,42.3H4l6.7-11.6h13.4L17.4,42.3z"/>
	<path class="st0" d="M30.8,42.3h13.4l-6.7-11.6H24.1L30.8,42.3L30.8,42.3z M30.8,19.1L24.1,7.5l-6.7,11.6l6.7,11.6L30.8,19.1z"/>
	<path class="st1" d="M50.2,37.3h5.4v-1.9h-5.4V33h6v-1.9h-8.3v11.2h8.5v-1.9h-6.2L50.2,37.3z M50,20.8l2.4,8.3h2.2l2.4-8.3v8.3h2.1
		V18h-3.2l-2.3,7.9L51.1,18h-3.2v11.2H50L50,20.8L50,20.8z M101.7,18h-2.3v11.2h2.3V18z M103.5,31.1h-2.3v11.2h2.3V31.1z M124,18
		h-2.3v11.2h2.3V18z M62.2,18H60v11.2h2.3L62.2,18L62.2,18z M118.6,22.3h-4.5V18h-2.2v11.2h2.2v-4.9h4.5v4.9h2.2V18h-2.2L118.6,22.3
		z M65.6,29.2h2.3v-9.3h2.7V18h-7.8v1.9h2.7L65.6,29.2L65.6,29.2z M86.2,42.3h2.3V33h2.7v-1.9h-7.8V33h2.7V42.3L86.2,42.3z
		 M84.7,29.5c2.9,0,4.5-1.3,4.5-3.8V18h-2.3v7.9c0,1-0.8,1.8-2.2,1.8c-1.7,0-2.2-1-2.2-1.8V18h-2.2v7.7
		C80.2,28.4,81.9,29.5,84.7,29.5 M67.6,37.3h5.4v-1.9h-5.4V33h6v-1.9h-8.3v11.2h8.5v-1.9h-6.2L67.6,37.3z M95,19.7
		c0.8,0,1.3,0.7,1.3,1.4c0,0.8-0.7,1.3-1.4,1.3l0,0h-2.7v-2.7H95z M94.8,27.5h-2.6v-3.3h2.6c0.9,0,1.7,0.5,1.7,1.6
		C96.5,26.8,95.8,27.5,94.8,27.5C94.9,27.5,94.8,27.5,94.8,27.5 M92.3,29.2h3.2c2.1,0,3.4-1.3,3.4-3c0-1.3-0.9-2.5-2.2-2.9
		c1.1-0.3,1.8-1.4,1.8-2.5c0-1.7-1.2-2.8-3.5-2.8h-5.1v11.2L92.3,29.2L92.3,29.2z M94.1,36V33h2.7c0.8,0,1.5,0.6,1.5,1.4
		c0,0,0,0.1,0,0.1c0,0.8-0.7,1.5-1.5,1.5L94.1,36L94.1,36z M98.6,36.9c1.2-0.3,2-1.5,2-2.7c0-2-1.4-3.1-3.6-3.1h-5.1v11.2h2.3v-4.4
		H96c1.2,0,1.8,0.6,2,1.4c0.2,0.9,0.2,2.2,0.4,3h2.3c-0.2-1-0.4-2-0.4-2.9C100.2,37.8,99.4,37.2,98.6,36.9 M59.4,31.1h-2.3v11.2h7.6
		v-1.9h-5.3L59.4,31.1z M74.4,24.4c1.8,0.3,2.9,0.7,2.9,1.7c0,0.7-0.7,1.4-2.2,1.4c-1.5,0-2.3-0.9-2.3-1.9h-2.2c0,2,1.3,3.7,4.6,3.7
		c3.1,0,4.5-1.7,4.5-3.6c0-1.8-1.2-2.9-3.2-3.3c-2-0.4-3.4-0.5-3.4-1.7c0-0.9,0.8-1.4,2-1.4c1.3,0,2,0.6,2,1.7h2.2
		c0-1.8-1.3-3.6-4.3-3.6c-2.1,0-4.2,1.2-4.2,3.4C70.8,22.9,72.2,24,74.4,24.4 M106.1,24.4c1.8,0.3,2.9,0.7,2.9,1.7
		c0,0.7-0.7,1.4-2.2,1.4s-2.3-0.9-2.3-1.9h-2.2c0,2,1.3,3.7,4.6,3.7c3.1,0,4.5-1.7,4.5-3.6c0-1.8-1.2-2.9-3.2-3.3
		c-2-0.4-3.4-0.5-3.4-1.7c0-0.9,0.8-1.4,2-1.4c1.3,0,2,0.6,2,1.7h2.2c0-1.8-1.3-3.6-4.3-3.6c-2.1,0-4.2,1.2-4.2,3.4
		C102.4,22.9,103.8,24,106.1,24.4"/>
	<path class="st1" d="M78.9,40.5c-1.8,0-2.9-1.8-2.9-3.9c0-2.1,1-3.9,2.9-3.9c1.4,0,2.1,0.9,2.4,1.9h2.4c-0.4-2.2-2.1-3.8-4.8-3.8
		c-3.4,0-5.2,2.6-5.2,5.9s1.8,5.9,5.2,5.9c2.7,0,4.5-1.6,4.8-4h-2.4C81,39.7,80.2,40.5,78.9,40.5 M109.3,40.5
		c-1.8,0-2.9-1.8-2.9-3.9c0-2.1,1-3.9,2.9-3.9c1.4,0,2.1,0.9,2.4,1.9h2.4c-0.4-2.2-2.1-3.8-4.8-3.8c-3.4,0-5.2,2.6-5.2,5.9
		s1.8,5.9,5.2,5.9c2.7,0,4.5-1.6,4.8-4h-2.4C111.4,39.7,110.6,40.5,109.3,40.5"/>
</g>
</svg>
