<?xml version="1.0" encoding="utf-8"?>
<!-- Generator: Adobe Illustrator 24.3.0, SVG Export Plug-In . SVG Version: 6.00 Build 0)  -->
<svg version="1.1" id="图层_1" xmlns="http://www.w3.org/2000/svg" xmlns:xlink="http://www.w3.org/1999/xlink" x="0px" y="0px"
	 viewBox="0 0 128 30" style="enable-background:new 0 0 128 30;" xml:space="preserve">
<style type="text/css">
	.st0{fill:#00267F;}
</style>
<g>
	<path class="st0" d="M16.8,20.4c-0.9-0.2-1.8-0.6-2.7-1c-0.7-0.4-1.5-0.8-2.2-1.3c-0.7-0.5-1.4-1-2-1.5c0.3-1.5,0.4-3,0.5-4.6
		c0-1.1,0-2.3-0.2-3.4c-0.1-1-0.3-1.9-0.6-2.8c0.9,0.3,1.9,0.5,2.8,0.5c0.6,0,1.2-0.1,1.8-0.2c0.5-0.1,0.9-0.3,1.3-0.5
		c0.4-0.2,0.8-0.4,1.1-0.7c0.4,0.3,0.7,0.5,1.1,0.7c0.4,0.2,0.9,0.4,1.3,0.5c0.6,0.1,1.2,0.2,1.8,0.2c1,0,1.9-0.2,2.8-0.5
		c-0.3,0.9-0.5,1.8-0.6,2.8c-0.1,1.1-0.2,2.2-0.2,3.4c0,1.5,0.2,3.1,0.5,4.6c-0.6,0.6-1.3,1.1-2,1.5c-0.7,0.5-1.4,0.9-2.2,1.3
		C18.7,19.8,17.8,20.2,16.8,20.4L16.8,20.4z M14.9,14.6v3.1h3.9v-3.1h3.3V11h-3.3V7.9h-3.9V11h-3.3v3.7L14.9,14.6z"/>
	<path class="st0" d="M12.3,23c-1.8-1.5-0.7-2.1-2.8-4.1l-0.1,0.1c1,1.1,0.3,2.1,1.3,3.3c-1.7-0.8-2.6,0-4.3-1.2l-0.1,0.1
		c1.9,2.2,3.7,1.5,5.8,2L12.3,23z"/>
	<path class="st0" d="M9.5,21.1c-0.9-1.2-0.2-2.5-1.5-4.5l-0.1,0c0.5,1.5,0,2.4,0.5,3.4c-1-1-2.2-0.6-3.5-2.4l-0.1,0
		c1.1,2.8,3.1,2.5,4.7,3.5L9.5,21.1z"/>
	<path class="st0" d="M7.3,18.6C6.7,17,7.7,16.3,7.1,14l-0.1,0c0.1,1.6-0.6,1.9-0.5,3.1c-0.8-1.4-1.9-1.4-2.4-3l-0.1,0
		c0.3,2.7,2.4,3.5,3.2,4.4L7.3,18.6z"/>
	<path class="st0" d="M6,15.4c0-1.6,0.8-1.6,0.9-4.3l-0.1,0c-0.4,1.5-1.1,1.7-1.2,3c-0.4-1.6-1.3-1.6-1.3-3.6l-0.1,0
		c-0.5,3,1.1,3.8,1.6,4.9L6,15.4z"/>
	<path class="st0" d="M5.7,12.3c0.1-1.2,1.1-1.3,1.9-3.8l-0.1,0c-0.6,1.2-1.2,1.1-1.8,2.3C5.8,9.6,5,9.5,5.6,7.5l-0.1,0
		C4.2,9.9,5.3,11,5.6,12.3L5.7,12.3z"/>
	<path class="st0" d="M6.2,9.3c0.4-1,1.4-0.7,2.5-2.7l-0.1,0c-0.8,1-1.4,0.8-2,1.6c0.3-1-0.2-1.3,0.5-2.9L7.1,5.2
		c-1.5,2-0.8,3.2-1,4.1L6.2,9.3z"/>
	<path class="st0" d="M8.9,23.4c2.5,1,3.8-0.5,6.4-0.6c2.4-0.2,5.4,2.7,5.4,2.7L20.1,26c0,0-2.8-3.9-5.4-2.4
		c-2.6,1.5-4.2,1.3-5.9-0.1L8.9,23.4z"/>
	<path class="st0" d="M9.8,4C8.9,4.4,7.7,5.3,7.4,6.8C8,6.1,9.2,5.9,9.8,4"/>
	<path class="st0" d="M21.4,23c1.8-1.5,0.7-2.1,2.8-4.1l0.1,0.1c-1,1.1-0.3,2.1-1.3,3.3c1.7-0.8,2.6,0,4.3-1.2l0.1,0.1
		c-1.9,2.2-3.7,1.5-5.8,2L21.4,23z"/>
	<path class="st0" d="M24.2,21.1c0.9-1.2,0.2-2.5,1.5-4.5l0.1,0c-0.5,1.5,0,2.4-0.5,3.4c1-1,2.2-0.6,3.5-2.4l0.1,0
		c-1.1,2.8-3.1,2.5-4.7,3.5L24.2,21.1z"/>
	<path class="st0" d="M26.4,18.6C27,17,26,16.3,26.6,14l0.1,0c-0.1,1.6,0.6,1.9,0.5,3.1c0.8-1.4,1.9-1.4,2.4-3l0.1,0
		c-0.3,2.7-2.4,3.5-3.2,4.4L26.4,18.6z"/>
	<path class="st0" d="M27.7,15.4c0-1.6-0.8-1.6-0.9-4.3l0.1,0c0.4,1.5,1.1,1.7,1.2,3c0.4-1.6,1.3-1.6,1.3-3.6l0.1,0
		c0.5,3-1.1,3.8-1.6,4.9L27.7,15.4z"/>
	<path class="st0" d="M28,12.3c-0.1-1.2-1.1-1.3-1.9-3.8l0.1,0c0.6,1.2,1.2,1.1,1.8,2.3c-0.1-1.3,0.7-1.3,0.2-3.4l0.1,0
		c1.3,2.5,0.2,3.5-0.1,4.9L28,12.3z"/>
	<path class="st0" d="M27.5,9.3c-0.4-1-1.4-0.7-2.5-2.7l0.1,0c0.8,1,1.4,0.8,2,1.6c-0.3-1,0.2-1.3-0.5-2.9l0.1-0.1
		c1.5,2,0.8,3.2,1,4.1L27.5,9.3z"/>
	<path class="st0" d="M24.8,23.4c-2.5,1-3.8-0.5-6.4-0.6c-2.4-0.2-5.4,2.7-5.4,2.7l0.5,0.4c0,0,2.8-3.9,5.4-2.4s4.2,1.3,5.9-0.1
		L24.8,23.4z"/>
	<path class="st0" d="M23.9,4c0.9,0.4,2.1,1.3,2.4,2.7C25.7,6.1,24.5,5.9,23.9,4"/>
	<path class="st0" d="M15.1,22h0.5v0.2h-0.8v-0.1c0-0.1,0-0.1,0-0.2c0,0,0-0.1,0.1-0.1c0,0,0.1-0.1,0.1-0.1c0,0,0.1-0.1,0.1-0.1
		c0,0,0.1-0.1,0.1-0.1c0,0,0,0,0.1-0.1c0,0,0,0,0-0.1c0,0,0-0.1,0-0.1c0,0,0-0.1,0-0.1c0,0-0.1,0-0.1,0c-0.1,0-0.2,0-0.3,0.1V21
		c0.1-0.1,0.2-0.1,0.4-0.1c0.1,0,0.1,0,0.2,0c0,0,0.1,0,0.1,0.1c0,0,0.1,0.1,0.1,0.1c0,0,0,0.1,0,0.1c0,0.1,0,0.1,0,0.2
		c0,0,0,0.1-0.1,0.1c0,0-0.1,0.1-0.1,0.1c0,0-0.1,0.1-0.1,0.1c0,0-0.1,0-0.1,0.1c0,0,0,0-0.1,0.1C15.2,21.9,15.2,21.9,15.1,22
		C15.1,21.9,15.1,22,15.1,22"/>
	<path class="st0" d="M16.3,22.2c-0.3,0-0.5-0.2-0.5-0.6c0-0.2,0-0.4,0.1-0.5c0.1-0.1,0.2-0.2,0.4-0.2c0.3,0,0.4,0.2,0.4,0.6
		c0,0.2,0,0.3-0.1,0.5C16.5,22.2,16.4,22.2,16.3,22.2 M16.3,21.1c-0.1,0-0.2,0.2-0.2,0.5c0,0.3,0.1,0.4,0.2,0.4
		c0.1,0,0.2-0.1,0.2-0.4S16.4,21.1,16.3,21.1"/>
	<path class="st0" d="M17.3,22.2c-0.3,0-0.5-0.2-0.5-0.6c0-0.2,0-0.4,0.1-0.5c0.1-0.1,0.2-0.2,0.4-0.2c0.3,0,0.4,0.2,0.4,0.6
		c0,0.2,0,0.3-0.1,0.5C17.6,22.2,17.4,22.2,17.3,22.2 M17.3,21.1c-0.1,0-0.2,0.2-0.2,0.5c0,0.3,0.1,0.4,0.2,0.4
		c0.1,0,0.2-0.1,0.2-0.4S17.4,21.1,17.3,21.1"/>
	<path class="st0" d="M17.9,22.2v-0.2C18,22,18.1,22,18.2,22c0.1,0,0.1,0,0.2,0c0,0,0.1-0.1,0.1-0.1c0-0.1,0-0.1-0.1-0.1
		c-0.1,0-0.1-0.1-0.2,0H18v-0.2h0.1c0.2,0,0.2-0.1,0.2-0.2c0-0.1-0.1-0.2-0.2-0.2c-0.1,0-0.2,0-0.2,0.1V21c0.1,0,0.2-0.1,0.3-0.1
		c0.1,0,0.2,0,0.3,0.1c0.1,0.1,0.1,0.1,0.1,0.2c0,0.2-0.1,0.3-0.3,0.3v0c0.1,0,0.2,0,0.2,0.1c0.1,0.1,0.1,0.1,0.1,0.2
		c0,0.1,0,0.2-0.1,0.3c-0.1,0.1-0.2,0.1-0.4,0.1C18.1,22.2,18,22.2,17.9,22.2"/>
	<path class="st0" d="M16.7,11.8c-0.9,0.2-1.1,0.7-1,1.1c0,0.5,0.5,0.8,0.9,0.9l0-0.5c-0.6-0.2-0.6-0.9,0.4-1.1
		c0.8-0.1,1.6-0.4,1.7-1.3c0-0.7-0.7-1.2-1.3-1.2c0,0,0,0.3,0,0.5c0.5,0.1,0.9,0.4,0.8,0.8C18,11.5,17.5,11.6,16.7,11.8"/>
	<path class="st0" d="M16.2,15.2c0,0.2,0.1,0.5,0.3,0.5l0-0.3c-0.2-0.5,0.7-0.4,1.1-0.7c0.2-0.2,0.4-0.9-0.5-1.1l0,0.4
		c0.4,0.1,0.5,0.5-0.2,0.7C16.5,14.8,16.3,15,16.2,15.2"/>
	<path class="st0" d="M17.6,16.4c0-0.3-0.2-0.5-0.4-0.6c0,0,0,0-0.1,0l0,0.2C17.3,16.1,17.5,16.2,17.6,16.4"/>
	<path class="st0" d="M16.4,9.9c0,0-0.6,0.2-0.7,0.3c-0.2,0.1-0.4,0.3-0.5,0.6c-0.1,0.2-0.2,0.4-0.1,0.4L15,11.3l-0.2,0.1l0.1,0
		l0,0.1l0.2-0.2c0.3-0.1,0.7-0.3,0.9-0.5c0.1-0.2,0.3-0.3,0.4-0.4C16.4,10.2,16.4,10,16.4,9.9 M15.6,10.7
		C15.6,10.7,15.5,10.6,15.6,10.7c-0.1-0.1,0-0.2,0-0.2C15.7,10.5,15.7,10.6,15.6,10.7C15.7,10.6,15.7,10.7,15.6,10.7"/>
	<path class="st0" d="M17.1,12.4l-0.4,0.1l0,2.2l0.3-0.1L17.1,12.4z"/>
	<path class="st0" d="M16.7,15.3l0,2.2c0,0.1,0.1,0.1,0.1,0.1c0,0,0.1,0,0.1-0.1l0-2.3L16.7,15.3z"/>
	<path class="st0" d="M16.6,11.7l0.4-0.1l0-2.5c0-0.1,0.1-0.3,0.1-0.5c0-0.2-0.1-0.5-0.3-0.5c-0.4,0-0.4,0.6-0.4,0.9L16.6,11.7z"/>
	<path class="st0" d="M34.9,23.4v-2.9h0.9c0.2,0,0.5,0,0.7,0c0.2,0,0.3,0.1,0.4,0.3c0.1,0.2,0.2,0.4,0.2,0.6c0,0.2,0,0.3-0.1,0.5
		c-0.1,0.1-0.1,0.2-0.2,0.3c-0.1,0.1-0.2,0.1-0.3,0.1c-0.2,0-0.4,0-0.6,0h-0.4v1.1L34.9,23.4z M35.5,21v0.8h0.3c0.2,0,0.3,0,0.5,0
		c0.2-0.1,0.3-0.2,0.3-0.4c0-0.1,0-0.2-0.1-0.3c-0.1-0.1-0.1-0.1-0.2-0.1c-0.1,0-0.3,0-0.4,0L35.5,21z"/>
	<path class="st0" d="M39.1,22.7l0.6,0.1c-0.1,0.2-0.2,0.4-0.3,0.5c-0.2,0.1-0.4,0.2-0.6,0.2c-0.3,0-0.6-0.1-0.8-0.4
		c-0.1-0.2-0.2-0.5-0.2-0.7c0-0.3,0.1-0.6,0.3-0.8c0.2-0.2,0.4-0.3,0.7-0.3c0.3,0,0.6,0.1,0.7,0.3c0.2,0.3,0.3,0.6,0.3,1h-1.4
		c0,0.1,0,0.3,0.1,0.4c0.1,0.1,0.2,0.1,0.3,0.1c0.1,0,0.2,0,0.2-0.1C39.1,22.9,39.1,22.8,39.1,22.7 M39.2,22.2c0-0.1,0-0.3-0.1-0.4
		c-0.1-0.1-0.2-0.1-0.3-0.1c-0.1,0-0.2,0-0.3,0.1c-0.1,0.1-0.1,0.2-0.1,0.4H39.2z"/>
	<path class="st0" d="M40.5,23.4v-2.9H41V22l0.7-0.7h0.7l-0.7,0.8l0.8,1.3h-0.6l-0.5-0.9L41,22.7v0.7H40.5z"/>
	<path class="st0" d="M43.1,20.5h0.6V21h-0.6V20.5z M43.1,21.3h0.6v2.1h-0.6V21.3z"/>
	<path class="st0" d="M46.5,23.4h-0.6v-1.1c0-0.1,0-0.3,0-0.4c0-0.1-0.1-0.1-0.1-0.2c-0.1,0-0.1-0.1-0.2-0.1c-0.1,0-0.2,0-0.3,0.1
		c-0.1,0.1-0.1,0.1-0.2,0.2c0,0.2,0,0.3,0,0.5v1h-0.6v-2.1h0.5v0.3c0.2-0.3,0.7-0.4,1-0.3c0.1,0,0.2,0.1,0.2,0.2
		c0.1,0.1,0.1,0.1,0.1,0.2c0,0.1,0,0.3,0,0.4L46.5,23.4z"/>
	<path class="st0" d="M47.3,23.5l0.6,0.1c0,0.1,0,0.1,0.1,0.2c0.1,0,0.2,0.1,0.3,0.1c0.1,0,0.2,0,0.3-0.1c0.1,0,0.1-0.1,0.1-0.1
		c0-0.1,0-0.2,0-0.3v-0.3c-0.1,0.2-0.4,0.3-0.6,0.3c-0.3,0-0.5-0.1-0.7-0.4c-0.1-0.2-0.2-0.5-0.2-0.7c0-0.3,0.1-0.6,0.3-0.8
		c0.2-0.2,0.4-0.3,0.6-0.3c0.3,0,0.5,0.1,0.6,0.3v-0.3h0.5v1.9c0,0.2,0,0.4-0.1,0.6c0,0.1-0.1,0.2-0.2,0.3c-0.1,0.1-0.2,0.1-0.3,0.2
		c-0.2,0-0.3,0.1-0.5,0.1c-0.3,0-0.5,0-0.8-0.2C47.4,24,47.3,23.8,47.3,23.5C47.3,23.6,47.3,23.6,47.3,23.5 M47.8,22.3
		c0,0.2,0,0.3,0.1,0.5c0.1,0.1,0.2,0.2,0.3,0.2c0.1,0,0.3-0.1,0.3-0.2c0.1-0.1,0.2-0.3,0.1-0.5c0-0.2,0-0.3-0.1-0.5
		c-0.1-0.1-0.2-0.2-0.3-0.2c-0.1,0-0.3,0.1-0.3,0.2C47.8,22,47.8,22.1,47.8,22.3"/>
	<path class="st0" d="M51.6,20.5h0.6v1.6c0,0.2,0,0.3,0,0.5c0,0.1,0.1,0.2,0.2,0.3c0.1,0.1,0.3,0.1,0.4,0.1c0.1,0,0.3,0,0.4-0.1
		c0.1-0.1,0.1-0.2,0.2-0.3c0-0.2,0-0.3,0-0.5v-1.6H54V22c0,0.2,0,0.5,0,0.7c0,0.1-0.1,0.3-0.2,0.4c-0.1,0.1-0.2,0.2-0.3,0.2
		c-0.2,0.1-0.4,0.1-0.6,0.1c-0.2,0-0.4,0-0.6-0.1c-0.1-0.1-0.2-0.1-0.3-0.3c-0.1-0.1-0.1-0.2-0.2-0.3c0-0.2-0.1-0.5-0.1-0.7
		L51.6,20.5z"/>
	<path class="st0" d="M56.8,23.4h-0.6v-1.1c0-0.1,0-0.3,0-0.4c0-0.1-0.1-0.1-0.1-0.2c-0.1,0-0.1-0.1-0.2-0.1c-0.1,0-0.2,0-0.3,0.1
		c-0.1,0.1-0.1,0.1-0.2,0.2c0,0.2,0,0.3,0,0.5v1h-0.6v-2.1h0.5v0.3c0.2-0.3,0.7-0.4,1-0.3c0.1,0,0.2,0.1,0.2,0.2
		c0.1,0.1,0.1,0.1,0.1,0.2c0,0.1,0,0.3,0,0.4V23.4z"/>
	<path class="st0" d="M57.7,20.5h0.6V21h-0.6V20.5z M57.7,21.3h0.6v2.1h-0.6V21.3z"/>
	<path class="st0" d="M59.8,23.4l-0.9-2.1h0.6l0.4,1.1l0.1,0.4c0-0.1,0-0.2,0.1-0.2c0-0.1,0-0.1,0.1-0.2l0.4-1.1h0.6l-0.8,2.1
		L59.8,23.4z"/>
	<path class="st0" d="M63,22.7l0.6,0.1c-0.1,0.2-0.2,0.4-0.3,0.5c-0.2,0.1-0.4,0.2-0.6,0.2c-0.3,0-0.6-0.1-0.8-0.4
		c-0.1-0.2-0.2-0.5-0.2-0.7c0-0.3,0.1-0.6,0.3-0.8c0.2-0.2,0.4-0.3,0.7-0.3c0.3,0,0.6,0.1,0.7,0.3c0.2,0.3,0.3,0.6,0.3,1h-1.4
		c0,0.1,0,0.3,0.1,0.4c0.1,0.1,0.2,0.1,0.3,0.1c0.1,0,0.2,0,0.2-0.1C62.9,22.9,63,22.8,63,22.7 M63,22.2c0-0.1,0-0.3-0.1-0.4
		c-0.1-0.1-0.2-0.1-0.3-0.1c-0.1,0-0.2,0-0.3,0.1c-0.1,0.1-0.1,0.2-0.1,0.4H63z"/>
	<path class="st0" d="M64.9,23.4h-0.6v-2.1h0.5v0.3c0.1-0.1,0.1-0.2,0.2-0.3c0.1,0,0.2-0.1,0.2-0.1c0.1,0,0.3,0,0.4,0.1l-0.2,0.5
		c-0.1-0.1-0.2-0.1-0.3-0.1c-0.1,0-0.1,0-0.2,0.1C65,21.9,65,22,64.9,22c0,0.2-0.1,0.5,0,0.7V23.4z"/>
	<path class="st0" d="M66.1,22.8l0.6-0.1c0,0.1,0.1,0.2,0.1,0.2c0.1,0.1,0.2,0.1,0.3,0.1c0.1,0,0.2,0,0.3-0.1c0,0,0.1-0.1,0.1-0.1
		c0,0,0-0.1,0-0.1c-0.1,0-0.1-0.1-0.2-0.1c-0.3,0-0.6-0.1-0.9-0.3c-0.2-0.1-0.3-0.3-0.3-0.5c0-0.2,0.1-0.3,0.2-0.5
		c0.2-0.1,0.4-0.2,0.7-0.2c0.2,0,0.4,0,0.6,0.1c0.1,0.1,0.2,0.2,0.3,0.4l-0.5,0.1c0-0.1-0.1-0.1-0.1-0.2c-0.1,0-0.2-0.1-0.3-0.1
		c-0.1,0-0.2,0-0.3,0.1c0,0-0.1,0.1-0.1,0.1c0,0,0,0.1,0.1,0.1c0.2,0.1,0.3,0.1,0.5,0.2c0.2,0,0.4,0.1,0.6,0.2
		c0.1,0.1,0.2,0.3,0.2,0.4c0,0.2-0.1,0.4-0.2,0.5c-0.2,0.2-0.5,0.2-0.7,0.2c-0.2,0-0.5,0-0.7-0.2C66.2,23.2,66.1,23,66.1,22.8"/>
	<path class="st0" d="M68.9,20.5h0.6V21h-0.6V20.5z M68.9,21.3h0.6v2.1h-0.6V21.3z"/>
	<path class="st0" d="M71.3,21.3v0.4h-0.4v0.9c0,0.1,0,0.2,0,0.3c0,0,0,0.1,0.1,0.1c0,0,0.1,0,0.1,0c0.1,0,0.2,0,0.2-0.1l0,0.4
		c-0.1,0.1-0.3,0.1-0.4,0.1c-0.1,0-0.2,0-0.3-0.1c-0.1,0-0.1-0.1-0.2-0.1c0-0.1-0.1-0.1-0.1-0.2c0-0.1,0-0.3,0-0.4v-0.9h-0.3v-0.4
		h0.3v-0.4l0.6-0.3v0.7L71.3,21.3z"/>
	<path class="st0" d="M71.7,21.3h0.6l0.5,1.5l0.5-1.5h0.6l-0.7,2L73,23.7c0,0.1-0.1,0.2-0.1,0.3c0,0.1-0.1,0.1-0.2,0.2
		c-0.1,0-0.1,0.1-0.2,0.1c-0.1,0-0.2,0-0.3,0c-0.1,0-0.2,0-0.3,0l0-0.4c0.1,0,0.2,0,0.2,0c0.1,0,0.2,0,0.3-0.1
		c0.1-0.1,0.1-0.2,0.1-0.3L71.7,21.3z"/>
	<path class="st0" d="M76,20.5h0.6v2.9H76V20.5z"/>
	<path class="st0" d="M79.4,23.4h-0.6v-1.1c0-0.1,0-0.3,0-0.4c0-0.1-0.1-0.1-0.1-0.2c-0.1,0-0.1-0.1-0.2-0.1c-0.1,0-0.2,0-0.3,0.1
		c-0.1,0.1-0.1,0.1-0.2,0.2c0,0.2,0,0.3,0,0.5v1h-0.6v-2.1H78v0.3c0.2-0.3,0.7-0.4,1-0.3c0.1,0,0.2,0.1,0.2,0.2
		c0.1,0.1,0.1,0.1,0.1,0.2c0,0.1,0,0.3,0,0.4L79.4,23.4z"/>
	<path class="st0" d="M81.3,21.3v0.4h-0.4v0.9c0,0.1,0,0.2,0,0.3c0,0,0,0.1,0.1,0.1c0,0,0.1,0,0.1,0c0.1,0,0.2,0,0.2-0.1l0,0.4
		c-0.1,0.1-0.3,0.1-0.4,0.1c-0.1,0-0.2,0-0.3-0.1c-0.1,0-0.1-0.1-0.2-0.1c0-0.1-0.1-0.1-0.1-0.2c0-0.1,0-0.3,0-0.4v-0.9h-0.3v-0.4
		h0.3v-0.4l0.6-0.3v0.7L81.3,21.3z"/>
	<path class="st0" d="M83.2,22.7l0.6,0.1c-0.1,0.2-0.2,0.4-0.3,0.5c-0.2,0.1-0.4,0.2-0.6,0.2c-0.3,0-0.6-0.1-0.8-0.4
		c-0.1-0.2-0.2-0.5-0.2-0.7c0-0.3,0.1-0.6,0.3-0.8c0.2-0.2,0.4-0.3,0.7-0.3c0.3,0,0.6,0.1,0.7,0.3c0.2,0.3,0.3,0.6,0.3,1h-1.4
		c0,0.1,0,0.3,0.1,0.4c0.1,0.1,0.2,0.1,0.3,0.1c0.1,0,0.2,0,0.2-0.1C83.2,22.9,83.2,22.8,83.2,22.7 M83.3,22.2c0-0.1,0-0.3-0.1-0.4
		c-0.1-0.1-0.2-0.1-0.3-0.1c-0.1,0-0.2,0-0.3,0.1c-0.1,0.1-0.1,0.2-0.1,0.4H83.3z"/>
	<path class="st0" d="M85.1,23.4h-0.6v-2.1h0.5v0.3c0.1-0.1,0.1-0.2,0.2-0.3c0.1,0,0.2-0.1,0.2-0.1c0.1,0,0.3,0,0.4,0.1l-0.2,0.5
		c-0.1-0.1-0.2-0.1-0.3-0.1c-0.1,0-0.1,0-0.2,0.1c-0.1,0.1-0.1,0.1-0.1,0.2c0,0.2-0.1,0.5,0,0.7L85.1,23.4z"/>
	<path class="st0" d="M88.4,23.4h-0.6v-1.1c0-0.1,0-0.3,0-0.4c0-0.1-0.1-0.1-0.1-0.2c-0.1,0-0.1-0.1-0.2-0.1c-0.1,0-0.2,0-0.3,0.1
		c-0.1,0.1-0.1,0.1-0.2,0.2c0,0.2,0,0.3,0,0.5v1h-0.6v-2.1H87v0.3c0.2-0.3,0.7-0.4,1-0.3c0.1,0,0.2,0.1,0.2,0.2
		c0.1,0.1,0.1,0.1,0.1,0.2c0,0.1,0,0.3,0,0.4L88.4,23.4z"/>
	<path class="st0" d="M89.8,21.9l-0.5-0.1c0-0.2,0.1-0.3,0.3-0.5c0.2-0.1,0.4-0.2,0.6-0.1c0.2,0,0.4,0,0.6,0.1
		c0.1,0,0.2,0.1,0.3,0.2c0.1,0.2,0.1,0.3,0.1,0.5l0,0.7c0,0.1,0,0.3,0,0.4c0,0.1,0.1,0.2,0.1,0.3h-0.6c0,0,0-0.1-0.1-0.2
		c0,0,0,0,0-0.1c-0.1,0.1-0.2,0.2-0.3,0.2c-0.1,0-0.2,0.1-0.3,0.1c-0.2,0-0.4-0.1-0.5-0.2c-0.1-0.1-0.2-0.3-0.2-0.4
		c0-0.1,0-0.2,0.1-0.3c0.1-0.1,0.1-0.2,0.2-0.2c0.1-0.1,0.3-0.1,0.4-0.1c0.2,0,0.4-0.1,0.5-0.1V22c0-0.1,0-0.2-0.1-0.2
		c-0.1-0.1-0.2-0.1-0.3-0.1c-0.1,0-0.2,0-0.2,0.1C89.8,21.8,89.8,21.9,89.8,21.9 M90.5,22.4c-0.1,0-0.2,0.1-0.3,0.1
		c-0.1,0-0.2,0-0.3,0.1c-0.1,0-0.1,0.1-0.1,0.2c0,0.1,0,0.2,0.1,0.2c0.1,0.1,0.1,0.1,0.2,0.1c0.1,0,0.2,0,0.3-0.1
		c0.1,0,0.1-0.1,0.1-0.2c0-0.1,0-0.2,0-0.3L90.5,22.4z"/>
	<path class="st0" d="M92.9,21.3v0.4h-0.4v0.9c0,0.1,0,0.2,0,0.3c0,0,0,0.1,0.1,0.1c0,0,0.1,0,0.1,0c0.1,0,0.2,0,0.2-0.1l0,0.4
		c-0.1,0.1-0.3,0.1-0.4,0.1c-0.1,0-0.2,0-0.3-0.1c-0.1,0-0.1-0.1-0.2-0.1c0-0.1-0.1-0.1-0.1-0.2c0-0.1,0-0.3,0-0.4v-0.9h-0.3v-0.4
		H92v-0.4l0.6-0.3v0.7L92.9,21.3z"/>
	<path class="st0" d="M93.6,20.5h0.6V21h-0.6V20.5z M93.6,21.3h0.6v2.1h-0.6V21.3z"/>
	<path class="st0" d="M94.9,22.3c0-0.2,0-0.4,0.1-0.5c0.1-0.2,0.2-0.3,0.4-0.4c0.2-0.1,0.4-0.1,0.6-0.1c0.3,0,0.6,0.1,0.8,0.3
		c0.4,0.4,0.4,1.1,0,1.6c-0.2,0.2-0.5,0.3-0.8,0.3c-0.2,0-0.4,0-0.6-0.1c-0.2-0.1-0.3-0.2-0.4-0.4C95,22.7,94.9,22.5,94.9,22.3
		 M95.5,22.3c0,0.2,0,0.3,0.1,0.5c0.2,0.2,0.5,0.2,0.7,0c0,0,0,0,0,0c0.1-0.1,0.2-0.3,0.1-0.5c0-0.2,0-0.3-0.1-0.5
		c-0.2-0.2-0.5-0.2-0.7,0c0,0,0,0,0,0C95.6,22,95.5,22.2,95.5,22.3"/>
	<path class="st0" d="M99.8,23.4h-0.6v-1.1c0-0.1,0-0.3,0-0.4c0-0.1-0.1-0.1-0.1-0.2c-0.1,0-0.1-0.1-0.2-0.1c-0.1,0-0.2,0-0.3,0.1
		c-0.1,0.1-0.1,0.1-0.2,0.2c0,0.2,0,0.3,0,0.5v1h-0.6v-2.1h0.5v0.3c0.2-0.3,0.7-0.4,1-0.3c0.1,0,0.2,0.1,0.2,0.2
		c0.1,0.1,0.1,0.1,0.1,0.2c0,0.1,0,0.3,0,0.4L99.8,23.4z"/>
	<path class="st0" d="M101.1,21.9l-0.5-0.1c0-0.2,0.1-0.3,0.3-0.5c0.2-0.1,0.4-0.2,0.6-0.1c0.2,0,0.4,0,0.6,0.1
		c0.1,0,0.2,0.1,0.3,0.2c0.1,0.2,0.1,0.3,0.1,0.5l0,0.7c0,0.1,0,0.3,0,0.4c0,0.1,0.1,0.2,0.1,0.3H102c0-0.1,0-0.1-0.1-0.2
		c0,0,0-0.1,0-0.1c-0.1,0.1-0.2,0.2-0.3,0.2c-0.1,0-0.2,0.1-0.3,0.1c-0.2,0-0.4-0.1-0.5-0.2c-0.1-0.1-0.2-0.3-0.2-0.4
		c0-0.1,0-0.2,0.1-0.3c0.1-0.1,0.1-0.2,0.2-0.2c0.1-0.1,0.3-0.1,0.4-0.1c0.2,0,0.4-0.1,0.5-0.1V22c0-0.1,0-0.2-0.1-0.2
		c-0.1-0.1-0.2-0.1-0.3-0.1c-0.1,0-0.2,0-0.2,0.1C101.2,21.8,101.1,21.9,101.1,21.9 M101.9,22.4c-0.1,0-0.2,0.1-0.3,0.1
		c-0.1,0-0.2,0-0.3,0.1c-0.1,0-0.1,0.1-0.1,0.2c0,0.1,0,0.2,0.1,0.2c0.1,0.1,0.1,0.1,0.2,0.1c0.1,0,0.2,0,0.3-0.1
		c0.1,0,0.1-0.1,0.1-0.2c0-0.1,0-0.2,0-0.3L101.9,22.4z"/>
	<path class="st0" d="M103.3,20.5h0.6v2.9h-0.6V20.5z"/>
	<path class="st0" d="M106.2,23.4v-2.9h0.6v1.1h1.2v-1.1h0.6v2.9H108v-1.3h-1.2v1.3H106.2z"/>
	<path class="st0" d="M109.4,22.3c0-0.2,0-0.4,0.1-0.5c0.1-0.2,0.2-0.3,0.4-0.4c0.2-0.1,0.4-0.1,0.6-0.1c0.3,0,0.6,0.1,0.8,0.3
		c0.2,0.2,0.3,0.5,0.3,0.8c0,0.3-0.1,0.6-0.3,0.8c-0.2,0.2-0.5,0.3-0.8,0.3c-0.2,0-0.4,0-0.6-0.1c-0.2-0.1-0.3-0.2-0.4-0.4
		C109.4,22.7,109.3,22.5,109.4,22.3 M109.9,22.3c0,0.2,0,0.3,0.1,0.5c0.2,0.2,0.5,0.2,0.7,0c0,0,0,0,0,0c0.1-0.1,0.2-0.3,0.1-0.5
		c0-0.2,0-0.3-0.1-0.5c-0.2-0.2-0.5-0.2-0.7,0c0,0,0,0,0,0C110,22,109.9,22.2,109.9,22.3"/>
	<path class="st0" d="M112.1,22.8l0.6-0.1c0,0.1,0.1,0.2,0.1,0.2c0.1,0.1,0.2,0.1,0.3,0.1c0.1,0,0.2,0,0.3-0.1c0,0,0.1-0.1,0.1-0.1
		c0,0,0-0.1,0-0.1c-0.1,0-0.1-0.1-0.2-0.1c-0.3,0-0.6-0.1-0.9-0.3c-0.2-0.1-0.3-0.3-0.3-0.5c0-0.2,0.1-0.3,0.2-0.5
		c0.2-0.1,0.4-0.2,0.7-0.2c0.2,0,0.4,0,0.6,0.1c0.1,0.1,0.2,0.2,0.3,0.4l-0.5,0.1c0-0.1-0.1-0.1-0.1-0.2c-0.1,0-0.2-0.1-0.3-0.1
		c-0.1,0-0.2,0-0.3,0.1c0,0-0.1,0.1-0.1,0.1c0,0,0,0.1,0.1,0.1c0.2,0.1,0.3,0.1,0.5,0.2c0.2,0,0.4,0.1,0.6,0.2
		c0.1,0.1,0.2,0.3,0.2,0.4c0,0.2-0.1,0.4-0.2,0.5c-0.2,0.2-0.5,0.2-0.7,0.2c-0.2,0-0.5,0-0.7-0.2C112.3,23.2,112.2,23,112.1,22.8"/>
	<path class="st0" d="M114.9,21.3h0.5v0.3c0.1-0.1,0.2-0.2,0.3-0.3c0.1-0.1,0.2-0.1,0.4-0.1c0.2,0,0.5,0.1,0.6,0.3
		c0.2,0.2,0.3,0.5,0.3,0.8c0,0.3-0.1,0.6-0.3,0.8c-0.2,0.2-0.4,0.3-0.6,0.3c-0.1,0-0.2,0-0.3-0.1c-0.1-0.1-0.2-0.1-0.3-0.2v1.1h-0.6
		L114.9,21.3z M115.4,22.3c0,0.2,0,0.4,0.1,0.5c0.1,0.1,0.2,0.2,0.3,0.2c0.1,0,0.2-0.1,0.3-0.2c0.1-0.2,0.1-0.3,0.1-0.5
		c0-0.2,0-0.3-0.1-0.5c-0.1-0.1-0.2-0.2-0.3-0.2c-0.1,0-0.3,0.1-0.3,0.2C115.5,22,115.4,22.1,115.4,22.3"/>
	<path class="st0" d="M117.7,20.5h0.6V21h-0.6V20.5z M117.7,21.3h0.6v2.1h-0.6V21.3z"/>
	<path class="st0" d="M120.1,21.3v0.4h-0.4v0.9c0,0.1,0,0.2,0,0.3c0,0,0,0.1,0,0.1c0,0,0.1,0,0.1,0c0.1,0,0.2,0,0.2-0.1l0,0.4
		c-0.1,0.1-0.3,0.1-0.4,0.1c-0.1,0-0.2,0-0.3-0.1c-0.1,0-0.1-0.1-0.2-0.1c0-0.1-0.1-0.1-0.1-0.2c0-0.1,0-0.3,0-0.4v-0.9h-0.3v-0.4
		h0.3v-0.4l0.6-0.3v0.7L120.1,21.3z"/>
	<path class="st0" d="M121.3,21.9l-0.5-0.1c0-0.2,0.1-0.3,0.3-0.5c0.2-0.1,0.4-0.2,0.6-0.1c0.2,0,0.4,0,0.6,0.1
		c0.1,0,0.2,0.1,0.3,0.2c0.1,0.2,0.1,0.3,0.1,0.5l0,0.7c0,0.1,0,0.3,0,0.4c0,0.1,0.1,0.2,0.1,0.3h-0.6c0-0.1,0-0.1-0.1-0.2
		c0,0,0-0.1,0-0.1c-0.1,0.1-0.2,0.2-0.3,0.2c-0.1,0-0.2,0.1-0.3,0.1c-0.2,0-0.4-0.1-0.5-0.2c-0.1-0.1-0.2-0.3-0.2-0.4
		c0-0.1,0-0.2,0.1-0.3c0.1-0.1,0.1-0.2,0.2-0.2c0.1-0.1,0.3-0.1,0.4-0.1c0.2,0,0.4-0.1,0.5-0.1V22c0-0.1,0-0.2-0.1-0.2
		c-0.1-0.1-0.2-0.1-0.3-0.1c-0.1,0-0.2,0-0.2,0.1C121.3,21.8,121.3,21.9,121.3,21.9 M122,22.4c-0.1,0-0.2,0.1-0.3,0.1
		c-0.1,0-0.2,0-0.3,0.1c-0.1,0-0.1,0.1-0.1,0.2c0,0.1,0,0.2,0.1,0.2c0.1,0.1,0.1,0.1,0.2,0.1c0.1,0,0.2,0,0.3-0.1
		c0.1,0,0.1-0.1,0.1-0.2c0-0.1,0-0.2,0-0.3L122,22.4z"/>
	<path class="st0" d="M123.4,20.5h0.6v2.9h-0.6V20.5z"/>
	<path class="st0" d="M92.9,8.6c0.5,0.1,0.9,0.3,1.2,0.6c0.1,0.1,0.1,0.3-0.1,0.4c-0.1,0.1-0.1,0.1-0.1,0.1v6.5
		c0,0.2-0.2,0.4-0.6,0.4c-0.4,0.1-0.6,0-0.6-0.2v-0.6h-5v0.4c0.1,0.2-0.1,0.3-0.7,0.4c-0.3,0.1-0.5,0-0.4-0.2V9.1
		c0-0.2,0-0.3,0.1-0.3c0.2,0,0.4,0.1,0.6,0.2c0.1,0,0.2,0.1,0.3,0.2c0.2,0.1,0.3,0.1,0.4,0.1h4.5c0,0,0.1-0.1,0.2-0.2
		C92.7,8.8,92.8,8.7,92.9,8.6 M88.2,9.4c-0.4,0-0.6,0.2-0.5,0.5v4.5h1.9v-2h-1.1c-0.1,0-0.2,0-0.3,0c0,0,0-0.1,0.1-0.1h1.2v-1.6
		h-1.2c-0.1,0-0.2,0-0.3-0.1c0,0,0-0.1,0.1-0.1h2.9c0,0,0.1-0.1,0.3-0.3c0.1-0.2,0.2-0.3,0.3-0.3c0.3,0.1,0.5,0.3,0.7,0.6
		c0.1,0.1,0.1,0.2,0.1,0.2c0,0-0.1,0.1-0.3,0h-1.5v1.5h0.3c0,0,0.1-0.1,0.3-0.3c0.1-0.1,0.1-0.2,0.2-0.3c0.3,0.1,0.5,0.3,0.8,0.5
		c0.1,0.1,0.1,0.2,0.1,0.2c0,0-0.1,0.1-0.2,0h-1.5v0.2c1.3,0.1,1.8,0.5,1.5,1.2c0.3,0.2,0.5,0.3,0.7,0.4V9.4L88.2,9.4z M87.7,15.8h5
		v-1.2h-5V15.8z M90.6,12.9v1.5h0.8c0,0,0.1-0.1,0.1-0.3c-0.3,0-0.5-0.3-0.5-0.5C91,13.3,90.8,13,90.6,12.9"/>
	<path class="st0" d="M99.3,14.5c-0.1,0.2-0.4,0.4-0.7,0.4c-0.2,0-0.4-0.1-0.4-0.3c-0.1-0.3-0.3-0.4-0.6-0.5v2.2
		c0,0.3-0.2,0.5-0.6,0.5c-0.2,0-0.3-0.1-0.3-0.4V9.1c0-0.2,0-0.3,0.2-0.2c0.3,0.1,0.6,0.2,0.8,0.2h0.7L98.4,9
		c0.1-0.2,0.2-0.3,0.3-0.3c0.4,0.2,0.8,0.5,1.1,0.9c0,0.1-0.1,0.1-0.2,0.2c-0.1,0.1-0.3,0.1-0.4,0.2c-0.6,0.8-1,1.3-1,1.7
		c0,0,0.1,0.1,0.2,0.2c0.7,0.5,1.1,1.1,1.1,1.8c0.1-0.3,0.2-0.7,0.2-1c0-0.1,0-0.2,0.1-0.2c0.2-0.1,0.6,0,1.2,0.3v-1.1h-1.9
		c-0.1,0-0.2,0-0.2-0.1c0,0,0,0,0.1-0.1h3.9c0,0,0.2-0.1,0.3-0.4c0.1-0.1,0.2-0.3,0.3-0.4c0.2,0.1,0.5,0.3,0.9,0.7
		c0.1,0.1,0.1,0.2,0.1,0.2c0,0-0.1,0.1-0.3,0h-1.9c-0.2,0-0.3,0.1-0.3,0.4v0.4c1.2,0.5,1.9,1,2.2,1.7c0.1,0.5,0.1,0.9-0.2,1.2
		c-0.4,0.2-0.7,0.1-0.9-0.4c0-0.1,0-0.2,0-0.4c0.1-0.8-0.2-1.4-1-1.9v3.2c0,0.7-0.4,1-1.3,1c-0.1,0-0.1-0.1-0.1-0.2
		c0-0.4-0.3-0.7-0.6-0.7c-0.2,0-0.3,0-0.4,0c0,0,0,0,0.2-0.1c0.6,0,0.9,0,1-0.1c0.1,0,0.2-0.2,0.2-0.5v-2.3
		c-0.2,0.2-0.4,0.4-0.5,0.6c-1,1.5-1.6,2.2-1.7,2.1c0.1-0.2,0.2-0.3,0.2-0.5C99.1,14.9,99.2,14.7,99.3,14.5 M98.4,9.3h-0.5
		c-0.3,0-0.4,0.1-0.3,0.3V14c0.4,0.1,0.7,0,0.9-0.3c0.3-0.7,0.1-1.4-0.5-2c0-0.2,0.1-0.4,0.1-0.6C98.2,10.5,98.3,9.9,98.4,9.3
		 M102.9,8.5c0.1,0,0.4,0.2,0.8,0.6c0.2,0.2,0.2,0.3,0.1,0.3H100c-0.1,0-0.2,0-0.2-0.1c0,0,0.1,0,0.2-0.1h2.4c0,0,0.1-0.1,0.3-0.4
		C102.8,8.6,102.9,8.5,102.9,8.5"/>
	<path class="st0" d="M112.5,8.7c0.2,0.1,0.5,0.3,0.6,0.5c0.1,0.1,0.2,0.1,0.2,0.2c0.1,0.1,0.1,0.1,0.1,0.2c0,0-0.1,0.1-0.2,0.1
		h-5.2c-0.5-0.1-0.7,0.2-0.6,0.7v5.5c1.4-0.4,2.2-1.4,2.4-2.8h-2c-0.1,0-0.1,0-0.2,0c0,0,0-0.1,0.1-0.1h0.2c0.4-0.8,0.6-1.6,0.7-2.5
		c0-0.4,0.1-0.5,0.4-0.4c0.6,0.1,1,0.2,1,0.3c0,0,0,0.1-0.1,0.2c-0.2,0.2-0.3,0.4-0.5,0.6h2l0-0.1c0.3-0.4,0.5-0.6,0.6-0.6
		c0.3,0.1,0.6,0.3,0.9,0.6c0.1,0.1,0.1,0.2,0.1,0.2c-0.1,0-0.2,0-0.2,0h-1.4c-0.3,0-0.4,0.1-0.4,0.5c0,0.2-0.1,0.4-0.1,0.6
		c0,0.3,0,0.4,0,0.5h1c0.3-0.4,0.5-0.7,0.6-0.7c0.1,0,0.4,0.1,0.7,0.4c0,0,0.1,0.1,0.1,0.1c0.1,0.1,0.1,0.2,0.1,0.2
		c0,0.1-0.1,0.1-0.3,0.1h-2.3c-0.1,0.3-0.1,0.6-0.1,0.7c0.8,0.1,1.4,0.4,1.8,0.7c0.3,0.3,0.3,0.7,0.2,1c-0.1,0.3-0.3,0.4-0.6,0.3
		c-0.1,0-0.1-0.1-0.2-0.1c-0.1,0-0.2-0.2-0.3-0.5c-0.1-0.5-0.5-0.9-0.9-1.1c-0.4,1.2-1.5,1.8-3.2,2v0.2h5c0-0.1,0-0.1,0.1-0.2
		c0.2-0.3,0.4-0.5,0.5-0.5c0.3,0.1,0.6,0.3,0.9,0.5c0.1,0.1,0.1,0.1,0.1,0.2c-0.1,0.1-0.2,0.1-0.3,0.1h-6.1c-0.1,0-0.2,0.1-0.2,0.2
		c-0.1,0.1-0.2,0.3-0.3,0.4c-0.4-0.1-0.7-0.3-1-0.6c0-0.1,0-0.2,0.1-0.2c0.1,0,0.2-0.1,0.2-0.2V9.4c0-0.2,0-0.3,0.1-0.4
		c0.1-0.1,0.2-0.1,0.4,0c0.1,0.1,0.2,0.1,0.4,0.2c0.2,0.1,0.4,0.2,0.6,0.3h3.9C112.1,9,112.4,8.7,112.5,8.7 M109.4,11.3
		c-0.4,0.6-0.8,1.1-1.3,1.6h1.7c0-0.2,0-0.4,0-0.8c0-0.2,0-0.5,0-0.8L109.4,11.3z"/>
	<path class="st0" d="M116.2,9c0.1,0.1,0.2,0.1,0.3,0.1c0.2,0,0.3,0.1,0.5,0.1h0.5c0,0,0,0,0.1-0.1c0-0.1,0.1-0.3,0.3-0.3
		c0.5,0.1,0.9,0.4,1.2,0.8c0,0.1-0.1,0.2-0.2,0.2c-0.1,0-0.2,0-0.2,0.1c-0.4,0.6-0.7,1.2-1.1,1.8c0,0,0.1,0.1,0.2,0.2
		c0.9,0.6,1.2,1.4,1,2.3c-0.2,0.5-0.7,0.9-1.3,0.8c-0.1,0-0.1-0.1-0.1-0.2c0-0.3-0.2-0.5-0.4-0.6v2.3c0,0.2-0.2,0.3-0.6,0.3
		c-0.3,0.1-0.4,0-0.4-0.2V9.2c0-0.2,0-0.3,0-0.3C116,8.9,116.1,8.9,116.2,9 M117.1,9.4c-0.3,0-0.4,0.1-0.4,0.2V14c0,0,0,0,0.1,0
		c0.2,0.1,0.4,0,0.6-0.1c0.2-0.3,0.3-0.8,0.2-1.3c-0.1-0.3-0.3-0.5-0.5-0.7c0,0-0.1-0.1-0.1-0.1c0.1-0.8,0.2-1.6,0.4-2.4L117.1,9.4z
		 M122.9,12c0.3,0.2,0.6,0.4,0.9,0.7c0,0.1,0.1,0.2,0,0.2c0,0-0.1,0-0.2,0h-1.4c-0.3,0-0.4,0.1-0.4,0.3l0,0.1v1.9
		c0,0.5,0.1,0.7,0.5,0.6c0.4,0,0.6-0.3,0.8-1.1c0-0.1,0-0.2,0.1-0.3c0,0,0,0,0,0.2c-0.1,0.6,0.1,0.9,0.5,1.2
		c0.1,0.1,0.2,0.2,0.2,0.2c-0.1,0.4-0.4,0.6-0.9,0.7c-0.4,0-0.9,0.1-1.3,0c-0.6,0-0.9-0.3-0.8-0.9v-2.8h-0.4c-0.1,2-0.9,3.2-2.4,3.7
		c-1.1,0.3-1.4,0.3-0.8,0c1.4-0.4,2.1-1.6,2-3.7h-0.8c-0.1,0-0.1,0-0.1,0c0,0,0-0.1,0.1-0.1h3.6c0,0,0.1-0.1,0.2-0.3
		C122.7,12.1,122.8,12,122.9,12 M121.7,9c0.1,0.3-0.1,0.7-0.5,0.8h1.1l0.1-0.1c0.1-0.2,0.2-0.3,0.3-0.3c0.6,0.3,1,0.6,1.1,1
		c0,0.1-0.2,0.1-0.4,0.1c-0.5,0-0.8,0.1-1,0.4c0.2,0.2,0.4,0.3,0.5,0.4v0c0.2,0.2,0.2,0.2,0,0.2h-3.4c-0.1,0-0.2,0-0.2-0.1
		c0,0,0-0.1,0.1-0.1h2.3l0.1-0.2c0.2-0.3,0.3-0.5,0.4-0.5c0.1,0,0.1,0,0.1,0.1c0,0,0,0,0.1,0c0-0.3,0.1-0.5,0.1-0.8h-3
		c0.1,0.6,0.1,1,0,1.2c-0.2,0.2-0.5,0.3-0.8,0.2c-0.2-0.1-0.3-0.4-0.2-0.7c0,0,0,0,0,0c0-0.1,0.1-0.1,0.2-0.2
		c0.2-0.2,0.3-0.5,0.4-0.8c0-0.2,0-0.2,0.1-0.2c0.1,0.1,0.2,0.2,0.3,0.4h1.3c-0.1-0.1-0.2-0.3-0.1-0.5c0-0.4-0.2-0.7-0.5-0.8
		c-0.1-0.2,0.2-0.2,1,0C121.4,8.6,121.6,8.8,121.7,9"/>
	<path class="st0" d="M39,11c0-0.6,0.1-1.5-0.3-2c-0.1-0.1-0.3-0.3-0.5-0.4c-0.3-0.2-0.5-0.4-0.9-0.6c-0.2-0.1-0.9-0.7-0.8,0
		c0.3,0.2,0.9,0.9,1,1.2c0.3,0.4,0.3,0.7,0.3,1.3c0,0.5,0,0.9,0,1.4c0,0.2,0,0.4-0.1,0.6c0,0.3-0.5-0.1-0.7-0.2
		c-0.2-0.3-0.8-0.2-0.9-0.4c-0.8-0.4-0.2,0.6-0.2,0.8c0.2,1.1-0.4,1.6-0.6,2.5c-0.1,0.1-0.4,0.3-0.4,0.4c-0.3,0.1,0,1.2,0.1,1.4
		c0.4,0.4,0.8-0.1,1.1-0.3c0.2-0.1,0.4-0.2,0.6-0.4c0.1-0.2,0.7-0.8,1-0.8c0,0.4-0.3,1.5,0.4,1.3c0-0.2,0.2-0.3,0.3-0.5
		c0.1-0.3,0.2-0.6,0.3-0.9C38.9,14.1,39.1,12.6,39,11 M37.8,14.1c0,0.2,0,0.6-0.1,0.7c-0.1,0.1-0.2,0.1-0.3,0.2
		c-0.2,0.1-0.4,0.3-0.7,0.4c-0.3,0.1-0.6,0.3-0.9,0.5c-0.5,0-0.4-0.5-0.1-0.6c0.2-0.3,0.5-0.9,0.8-1.1c0.1-0.1,0.2-0.2,0.3-0.3
		c0-0.1,0.5-0.2,0.6-0.3c0.1-0.1,0.1-0.3,0.2-0.4C37.9,13.2,37.8,13.9,37.8,14.1 M45.6,13.9c-1.1-0.3-1.9,0.9-3.1,0.5
		c0-0.2,0.3-0.3,0.4-0.5c0.2-0.2,0.7-0.6,0.2-1c0.2-0.4,1.1-0.3,1.4-0.5c0.5-0.1,0.7-0.8,0.7-1.3c-0.2,0-0.3-0.1-0.5-0.2
		c-0.1-0.1-0.6-0.7-0.7-0.6c-0.2,0.1-0.1,0.7-0.2,0.8c-0.2,0.2-0.4,0.3-0.6,0.4c-0.3,0.3-0.5-0.1-0.5-0.4c0-0.6-0.3-1.3-0.7-1.7
		c-0.2-0.2-0.5-0.4-0.7-0.6c-0.2,0.7-0.4,1.2-0.5,1.8c-0.3,1.1,0,2.6,0.4,3.7c0.2,0.7,0.7,1.5,1.6,1.2c0.1,0,0.2-0.1,0.3-0.2
		c0.2-0.2,0.8-0.2,1-0.2c0.3-0.1,0.5-0.2,0.8-0.3C45.2,14.6,45.7,14.4,45.6,13.9"/>
	<path class="st0" d="M52.7,6.4c0.2,0.6,0.6,1.2,0.6,1.9c0,0.1,0,0.1,0,0.1c-0.1,0.2,0.1,0.5,0.3,0.3c0.1,0,0.2-0.1,0.2-0.1
		c0.2-0.1,0.3-0.3,0.5-0.4c0.2,0.1,0.5,0,0.7-0.1c0.1-0.3,0.4-0.5,0.3-0.8c-0.3-0.3-0.7-0.5-1-0.8C53.9,6.4,52.4,5.6,52.7,6.4
		 M51.4,11c0.6,0.2,1.1,0.6,1.7,0.2c0.7-0.3,1.2-1.2,1.9-1.6c0.3-0.1,1.1-0.6,0.3-0.7c-0.5,0.2-1,0.3-1.5,0.4
		c-0.6,0.2-1.2,0.5-1.9,0.7C51.7,10.3,50.9,10.5,51.4,11 M54.9,13.8c0-0.5-1.1,0-1.2,0.1c0,0,0,0,0,0c0.1-0.4,0.9-0.9,1.2-1.2
		c0.2-0.1,0.9-0.5,0.8-0.8c-0.1-0.3-1.4-0.4-1.5-0.1c-0.5,0.1-0.9,0.7-1.4,0.8c-0.3,0.1-0.5,0.3-0.7,0.5c-0.4,0-0.6-0.8-0.8-0.1
		C51,13.4,51,14.2,51,14.8c0.1,0.4,0.3,0.7,0.6,0.9c0.2-0.3,0.5-0.6,0.7-0.9c0.1-0.2,0-0.4,0-0.6c0-0.3,0.4-0.5,0.6-0.2
		c0.1,0.4-0.6,0.6,0,1c0,0.3-0.6,0.5-0.8,0.6c-0.1,0.3-0.8,0.4-1,0.6c-0.1,0-0.4,0.2-0.4,0.2c-0.1,0-0.2,0.1-0.2,0.1
		c-0.2,0.2-0.3,0-0.6,0.1c-0.4,0.1,0.3,1.7,0.8,1.2c0.3-0.2,0.5-0.4,0.6-0.6c0.3-0.3,0.6-0.7,1-1c0.1-0.1,0.3-0.3,0.4-0.3
		c0.1-0.2,0.4,0.6,0.1,0.8c-0.1,0.1-0.5,0.1-0.4,0.5c0.2,0,0.3,0.1,0.5,0.2c0.2,0.2,0.1,0.4,0.3,0.5c0.1,0.1,0.2,0.2,0.3,0.2
		c0,0,0,0,0,0c0.1-0.1,0.1-0.5,0-0.7c0-0.5-0.2-1-0.3-1.5c0-0.1-0.1-0.2-0.1-0.3c-0.1-0.6,0.3-0.7,0.7-0.9
		C54,14.6,55.1,14.1,54.9,13.8 M56.5,15.6c-0.1-0.3-0.5-0.5-0.6-0.8c-0.2-0.2-0.8-0.4-1-0.1c0,0.4,0,0.8,0.2,1.2
		c0.2,0.3,0.5,0.8,1,0.7C56.4,16.6,56.6,16,56.5,15.6"/>
	<path class="st0" d="M67.9,11.6c0.2-0.3,0.6-0.5,0.8-0.8c0.3-0.2,0.2-0.6-0.1-0.6c-0.2,0-0.3,0.1-0.5,0.1c-0.2,0-0.7,0.6-0.8,0.8
		c-0.2,0.2-0.4,0.4-0.7,0.5c-0.2-0.6-0.1-1.8,0.1-2.4c0-0.2,0.2-0.5-0.1-0.7c-0.1-0.3-0.7-0.6-0.9-0.7c-1.6-0.7-0.3,1.4-0.3,1.8
		c0,0.8,0.4,2.6-0.4,3c-0.7,0.2-1.1,0.6-1.9,0.7c-0.1,0.2-0.6,0.2-0.7,0.4c-0.3,0.1-0.6,0.2-0.9,0.3C61,14,61,13.6,60.7,13.7
		c0,0.2-0.1,1.1,0.1,1.2c0.2,0.4,0.6,0.3,0.9,0.2c1.2-0.3,2-1.6,3.3-1.6c0,0.8-0.5,1.4-1.1,1.9c-0.3,0.5-1.4,0.4-1.5,1.1
		c1.3,0,2.5-0.6,3.3-1.6c0.4-0.5,0.5-1.3,0.7-1.9C66.7,12.3,67.4,11.9,67.9,11.6 M69.7,15.6c-0.2-0.5-0.6-0.7-1-1.1
		c-0.1-0.1-0.4-0.4-0.5-0.4c-0.5-0.1-0.2,0.7-0.2,0.8c0.1,0.2,0.4,1.2,0.5,1.3C68.7,16.2,69.9,16.2,69.7,15.6"/>
	<path class="st0" d="M75.1,9c0.5,0.5,1.1,1.1,1.3,1.8c0,0.1,0.3,1.3,0.5,0.9c0.5-0.1,0.6-0.7,0.4-1.1c-0.2-0.6-0.6-1-1.1-1.4
		c-0.1-0.1-0.5-0.3-0.6-0.4C75.3,8.6,75,8.3,75.1,9 M75,11.7c0.1,0.3,0,1.9,0.8,1.2c0.1-0.4,0.2-0.6,0-1c-0.3-0.1-0.3-0.7-0.8-0.6
		C75,11.2,75,11.6,75,11.7 M82.4,8.1C82.3,7.9,81.5,8,81.3,8c-0.1,0-0.3,0.1-0.4,0.1c-0.2,0.1-0.5,0.2-0.7,0.3
		C79.6,8.5,80,8,80.1,7.8c0.1-0.3,0.3-0.5,0.3-0.8c0-0.3-0.1-0.6-0.3-0.7c-0.3-0.1-0.3,0.5-0.3,0.6c0,0.2-0.2,0.7-0.4,0.8
		c-0.2,0.3-0.5,0.4-0.9,0.5c-0.2,0-0.4,0-0.5,0c-0.4,0,0.1,0.5,0.2,0.6c0.1,0,0.3,0,0.4,0c0,0.2-0.2,0.2-0.2,0.4
		c-0.5,0.3,0.4,0.2,0.5,0.2c0,0.2-0.2,0.3-0.3,0.5C78.4,9.8,78,9.8,77.9,10c0.1,0.2,0.3,0.1,0.1,0.4c-0.1,0.1-0.2,0.1-0.2,0.2
		c-0.1,0.1-0.2,0.2-0.3,0.3c-0.1,0.4,0.1,0.3,0.3,0.2c0.3-0.1,0.5-0.6,0.8-0.6c0,0,0.6,0.3,0.3,0.4c-0.3,1,0.5,0,0.9,0.2
		c-0.3,0.4-1.1,0.6-1.5,0.8c-0.5,0.3-1,0.6-1.6,0.8c-0.2,0.3-0.8,0.5-1,0.7c-0.1,0-0.2,0.1-0.3,0.1c-0.5,0.4,0.8,0.2,0.9,0.2
		c0.4-0.1,1.3-0.3,1.6-0.7c0.8-0.2,1.5-1.3,2.3-1.5c0,0,0,0,0,0c-0.1,0.4-0.6,0.8-0.8,1c-0.1,0.1-0.2,0.3-0.4,0.4
		c-0.2,0.1-0.5,0.6-0.1,0.4c0.3-0.1,0.4-0.2,0.7-0.3c0.2-0.1,0.9-0.3,1-0.6c0.2-0.2,0.5-0.4,0.6-0.6c0-0.1,0.1-0.1,0.1-0.2
		c0.2-0.7-0.3-0.7-0.9-0.7c0-0.2,0.7-0.7,0.8-0.9c0.2-0.3,0.4-0.5,0.6-0.7C82.1,9.3,82.7,8.4,82.4,8.1 M81,9.4
		c-0.2,0.4-0.5,0.8-0.8,1.1c-0.3,0.2-0.2-0.1-0.3-0.4c-0.1-0.2-0.2-0.7-0.4-0.2c-0.1,0.1,0,0.3-0.1,0.4c-0.2,0-0.3-0.2-0.3-0.4
		c0-0.2,0.1-0.4,0.3-0.5c0.1-0.2,0.2-0.4,0.4-0.5C80,8.8,81.3,8.9,81,9.4 M80.4,14.1c-0.3-0.3-0.9-0.1-1.3,0
		c-0.5,0.1-0.9,0.3-1.4,0.3c-0.6,0.2-1.1,0.6-1.7,0.7c-0.3,0.1-1.4,0.4-1.4,0.7c-0.1,0.3,0.2,0.5,0.3,0.7c0.2,0.3,0.4,0.4,0.8,0.3
		c0.7-0.3,1.2-0.9,1.9-1.1c0.3-0.1,0.5-0.2,0.8-0.3c0.5-0.1,0.4,1.3,0.1,1.5c-0.3,0.1-0.6,0.2-0.9,0.2c-0.8,0-0.2,0.3,0.2,0.5
		c0.5,0.1,1.3,0.1,1.6-0.4c0.2-0.3,0.2-0.6,0.1-1c-0.1-0.3-0.4-0.7-0.2-0.9c0.1-0.1,0.5-0.2,0.7-0.2C80,15.1,80.8,14.3,80.4,14.1"/>
</g>
</svg>
