<?xml version="1.0" encoding="utf-8"?>
<!-- Generator: Adobe Illustrator 24.3.0, SVG Export Plug-In . SVG Version: 6.00 Build 0)  -->
<svg version="1.1" id="图层_1" xmlns="http://www.w3.org/2000/svg" xmlns:xlink="http://www.w3.org/1999/xlink" x="0px" y="0px"
	 viewBox="0 0 128 50" style="enable-background:new 0 0 128 50;" xml:space="preserve">
<style type="text/css">
	.st0{fill:#E60012;}
</style>
<g>
	<path d="M33.4,22.7c-0.1,0-0.3,0.1-0.4,0.1c-0.1,0-0.3,0.7-0.6,0.8c-0.1,0.1-0.3,0.6-0.4,0.6c-0.1,0.1-0.3,0.2-0.4,0.1
		c0,0.1,0.1,0.1,0.1,0.1c0,0,0,0,0,0h0.6c0.1,0,0.4-0.6,0.4-0.4V25l-0.3,0.3c0,0.1-0.1,0.1-0.1,0.1c0,0,0,0,0,0
		c-0.1,0-0.3,0.1,0,0.3c0.1,0,0.7-0.1,0.7-0.4V24c-0.1-0.1-0.3-0.3-0.1-0.6c0.3-0.3,0.1-0.4,0.3-0.4s0.1-0.1,0.3-0.1l0.1-0.1
		C33.5,22.9,33.5,22.7,33.4,22.7L33.4,22.7z"/>
	<path d="M34.5,23.2c-0.1,0-0.4,0.3-0.4,0.3c0,0.1,0.1,0.6-0.3,0.7s-0.4,0.3-0.3,0.3h0.3v1c0,0.1-0.1,0.1,0,0.3
		c0.3,0.1,0.3,0.3,0.6,0.1H35c0.4,0,0.9,0,1.3-0.1c0.3-0.3,0.8-0.4,1.1-1l0.3-0.3c0.1-0.1,0-0.3-0.1-0.4s-0.1-0.8-0.1-0.8
		c0.1-0.1,0-0.6-0.3-0.3v1.4c0,0.1,0,0.4-0.1,0.4s-0.6,0.6-1,0.7c-0.3,0.1-1,0.1-1.1,0c-0.1,0-0.1,0-0.3-0.1c-0.1,0-0.1,0-0.3-0.1
		c-0.1-0.1,0-0.7,0-0.7c0-0.1,0-0.3,0.4-0.4c0.2-0.1,0.4-0.2,0.6-0.4l0.4-0.4c0.1-0.1,0.3-0.3-0.1-0.3s-0.4,0.3-0.6,0.3
		c-0.1,0-0.1,0.1-0.1,0.1c0,0,0,0,0,0c-0.1,0.1-0.2,0.1-0.3,0c0,0,0,0,0,0C34.7,23.2,34.5,23.2,34.5,23.2L34.5,23.2z"/>
	<path d="M29,22.9c-0.3,0-0.3,0-0.3,0.1c0.1,0.1,0.1,0.2,0.1,0.3c0.1,0,0.1,0.1,0.3,0.1h0.4c0.2,0,0.4,0,0.6-0.1
		c0.1,0,0.4-0.1,0.4-0.3s0.1-0.1,0.1-0.3c0,0,0.1-0.3-0.1-0.3s-0.4,0.1-0.6,0.1h-0.6C29.3,22.7,29.1,22.8,29,22.9z"/>
	<path d="M29.2,23.6c-0.1,0-0.4,0.3-0.6,0.3c0,0,0,0.4-0.1,0.6c0,0.4-0.4,1.6-1.3,2.7c-0.5,0.5-0.9,1.1-1.3,1.7
		c0,0.1,0.1,0.3,0.1,0.1c0.1-0.1,0.3-0.4,0.4-0.4s0.1-0.1,0.1-0.3l0.4-0.4c0.1-0.1,0.3-0.3,0.3-0.4c0.1-0.1,0.3-0.6,0.4-0.7
		c0.2-0.3,0.4-0.7,0.6-1c0.1,0,0,0.4,0,0.6h0.6c0-0.1,0.3-0.3,0.3-0.4S29,25.6,29,25.4h0.3c0.1,0,0.3-0.1,0.3,0h0.3
		c0.1,0.1,0.1,0.2,0,0.3c0,0,0,0,0,0c-0.1,0.1-0.6,0.4-0.1,0.6c0.1,0.1,0.4-0.1,0.4-0.1c0.1,0,0.1,0,0.4-0.1c0.1,0,0.2-0.1,0.3-0.1
		c0,0,0-0.1-0.3-0.1s-0.1-0.3,0-0.4s0.6-0.6,0.1-0.7c-0.1,0-0.6,0.3-0.7,0.3C29.9,25,29.9,25,29.6,25h-0.3c-0.1,0-0.1-0.1-0.4-0.1
		c-0.1,0.1-0.3,0.1-0.4-0.1c0-0.1,0.1-0.3,0.1-0.4c0-0.1,0-0.1,0.1-0.3C29.2,23.9,29.3,23.6,29.2,23.6L29.2,23.6z"/>
	<path d="M23.9,23.7c-0.1,0-0.1,0.3-0.3,0.3c0,0,0,1-0.1,1.1l-0.1,0.3V26c0,0.1,0.1,0.1,0.1,0.1c0,0,0,0,0,0c0.1,0,0.4-0.1,0.4-1
		C23.9,25.1,23.9,23.7,23.9,23.7z"/>
	<path d="M25.5,23.2c0,0.1,0.1,0.1,0.1,0.3c0,0.1,0.1,0.1,0.3,0.1c0.1-0.1,0.1-0.2,0.1-0.3c0-0.2-0.1-0.3-0.3-0.3
		C25.5,23,25.5,23.2,25.5,23.2z"/>
	<path d="M25.9,25.4v-0.1c-0.1-0.1-0.1-0.2-0.1-0.3v-0.4c0.1,0,0.3-0.4,0.3-0.6c0-0.1-0.1-0.1-0.3,0c-0.1,0.1-0.1,0.3-0.3,0.3
		c-0.1-0.1-0.1-0.3-0.1-0.4l0.1-0.1c-0.1,0-0.1-0.1-0.1-0.1c0,0,0,0,0,0c0-0.1-0.1-0.4-0.3-0.4c-0.1,0-0.1,0.1-0.1,0.1c0,0,0,0,0,0
		l0.1,0.3l-0.1,0.1h-0.4c-0.2,0-0.3,0.1-0.3,0.3c0,0.1,0,0.1,0.1,0.1h0.3v0.1l-0.1,0.1l0.1,0.1c0,0-0.1,0.4-0.3,0.4
		c-0.1,0-0.1,0.1-0.3,0.1c0,0-0.1,0.3,0,0.3c0.2,0,0.4-0.1,0.6-0.3c0.1,0,0.2-0.1,0.3-0.1c0,0,0.1-0.3,0-0.1c-0.1,0-0.2,0.1-0.3,0.1
		l0.1-0.3c0.1-0.1,0.1-0.3,0.3-0.3c0.1,0,0.1,0,0.1,0.1c0,0.1-0.1,0.1-0.1,0.1c0,0,0,0,0,0h0.1c0.1,0,0,0.1,0,0.1s-0.3,0.7-0.6,0.8
		c-0.3,0.1-0.4,0.3-0.6,0.3s0,0.3,0.1,0.3h0.6c0.1,0,0.2,0.1,0.3,0.1c0.1,0,0.1-0.1,0.3-0.1c0,0,0.1,0,0.1-0.3
		c0-0.1-0.3-0.3-0.3-0.3c-0.1,0-0.2,0.1-0.3,0.1c0,0-0.3-0.1-0.1-0.1c0.1-0.1,0.1-0.1,0.1-0.3s0-0.1,0.1-0.1c0.1,0,0.1,0.1,0.1,0.1
		c0,0,0,0,0,0c0,0.1,0.1,0.4,0.3,0.4c0.1,0,0.1,0,0.1-0.1C26,25.7,25.9,25.6,25.9,25.4L25.9,25.4z M25.1,24.1h-0.1
		C24.9,24.1,24.9,24,25.1,24.1z"/>
	<path d="M24.5,22.9c-0.1,0-0.2,0.1-0.3,0.1c0,0,0,0.1,0.4,0.1c0.2-0.1,0.4-0.2,0.6-0.3h0.7c0.1,0.1,0.1-0.1,0.3,0.4
		c0.1,0.6,0,1,0.1,1.1v0.7c0,0.1,0.1,0.4,0,0.6c0,0.2-0.1,0.5-0.3,0.6c-0.1,0-0.3-0.1-0.3,0.1c0,0.1,0.1,0.1,0.1,0.1c0,0,0,0,0,0
		c0.1,0,0,0.3,0.1,0.3c0.1,0.1,0.2,0.1,0.3,0c0,0,0,0,0,0c0.1-0.1,0.2-0.3,0.3-0.4c0.1-0.3,0.2-0.6,0.3-0.8v-0.3
		c0-0.1,0.1,0,0.1-0.1c0-0.1-0.1-0.1-0.1-0.1c0,0,0,0,0,0c0-0.2,0-0.5-0.1-0.7c-0.1-0.1,0-1-0.1-1.3c0-0.3,0-0.4-0.3-0.4h-1
		c-0.1,0.1-0.3,0.1-0.4,0.1C25.1,22.6,24.8,22.7,24.5,22.9z"/>
	<path d="M23.5,23.2c0-0.1-0.1-0.1-0.6-0.1c-0.4,0-0.6,0-0.6,0.1c-0.1,0-0.3,0-0.3-0.1v-1.6c-0.1-0.1-0.1,0-0.1,0l-0.3,0.3
		c0,0.1,0.1,1.4,0,1.4c0,0.1-0.3,0.3-0.4,0.3c-0.1,0-0.1,0.1-0.1,0.1c0,0,0,0,0,0c-0.1,0-0.1,0-0.1,0.1c-0.1,0-0.1,0.1-0.1,0.1
		c0,0,0,0,0,0c-0.1-0.1-0.1-0.2,0-0.3c0,0,0,0,0,0c0-0.1,0-0.3-0.1-0.1c-0.1,0-0.4,0.6-0.4,0.7s0,0.4-0.1,0.4v0.1
		c0,0,0.1,0.4,0.3,0.3c0.1,0,0.1-0.1,0.1-0.1c0,0,0,0,0,0c0,0,0-0.4,0.1-0.4c0.2-0.3,0.4-0.5,0.7-0.6c0.1,0,0.3-0.1,0.3,0
		c0,0.2,0,0.3-0.1,0.4l-0.3,0.3c-0.1,0,0,0.4,0,0.4h0.3v2.8c0.1,0.3,0.3,0.1,0.3,0v-1.3c0-0.1,0.1-0.3,0-0.4V25c0-0.1,0-0.3,0.1-0.3
		h0.4c0.1,0,0.3,0,0.1-0.3c0-0.1-0.3-0.3-0.1-0.4c0.1,0,0.3-0.3,0.4-0.3h0.3c0.1,0,0-0.1,0.1-0.3C23.4,23.4,23.5,23.3,23.5,23.2
		C23.5,23.2,23.5,23.2,23.5,23.2L23.5,23.2z M22.2,23.7c-0.1,0-0.1,0.3-0.3,0.3c-0.1,0-0.1,0-0.1-0.1s0-0.3,0.1-0.3
		S22.1,23.6,22.2,23.7C22.2,23.6,22.4,23.7,22.2,23.7z"/>
	<path d="M37.1,35l-1.8,1.8v4.9l1.7,1.6l2-1.8V40h-1.3v1.6h-1.1V37h1.1v1.6h1.4v-1.7L37.1,35z"/>
	<path d="M32.3,34.9l-1.8,1.8v4.9l1.8,1.7l2.1-1.8h-2.7V40h2.5v-1.6h-2.5v-1.6h2.7L32.3,34.9z"/>
	<path d="M27.5,34.9l-2.1,2v6.6h1.4v-1.7l1.3,1.1l1.4-1.3v-5.2L27.5,34.9z M28,41.5h-1.3v-4.7H28V41.5z"/>
	<path d="M22.4,34.9l-2.1,1.8v4.7l2,2l2.1-2.1v-4.7L22.4,34.9z M22.9,41.4h-1.3v-4.5h1.3V41.4z"/>
	<path d="M15.2,9.4v34.1h1.4V29.7L18,43.5h1.3V8c-0.5,0-1,0.1-1.4,0.3v14.6l-1.4-14C16.2,9,15.4,9.3,15.2,9.4z"/>
	<path d="M12.9,10.9v32.5h1.4V9.9C13.8,10.2,13.4,10.5,12.9,10.9z"/>
	<path d="M12.1,25.8c-0.6,0-5.2,1.6-7.1,7.1c-0.3,1.3-0.4,3.4,1.6,4.1c3.4,1.4,2.8,4.8,0,4.1C5.8,41.8,4,43.5,4,43.5h5.7
		c0,0,3-2.1,0.8-5.4c-1.1-1.6-2.5-1.7-3.1-2C5.6,35.2,6.1,29.5,12.1,25.8z"/>
	<path class="st0" d="M5.6,29.5C2.2,19.3,9.1,7.7,20.4,6.6c9.9-1.1,16.5,6.1,18.2,11.3c3.3,8.6-1.7,16.7-3.8,18.2L34,35.3
		c4.4-4.7,5.8-11.7,3-18.2C36.2,15.5,31,6.6,20.7,7.9c-6.5,0.3-17,7.5-14.1,20.5C6.1,28.8,5.6,29.5,5.6,29.5z"/>
	<path class="st0" d="M8,31.6c0.8,1.7,2.8,4.2,4.1,5.1v1.7c-1.6-1-4.1-3.8-4.7-5.1C7.4,32.7,7.6,32.1,8,31.6z"/>
	<path d="M48.9,18.2h4.4v4.7h-4.5v-4.7H48.9z M49.1,17.9l-2.1-1c-0.1-0.1-0.3-0.1-0.4-0.1l-0.1,0.1l0.1,1.8v4.1l-0.1,2
		c0,0.2,0,0.3,0.1,0.4c0.1,0.1,0.3,0.1,0.7,0.1c0.4,0,0.8-0.1,1.1-0.1c0.3-0.2,0.5-0.5,0.4-0.8v-1.1h4.7v5.2l-0.1,2.4
		c0,0.3,0,0.4,0.1,0.4c0.1,0.1,0.4,0.1,1.1,0c0.7,0,1.1-0.1,1.3-0.3C56,31,56,30.8,56,30.6l-0.1-2.3v-5.1h4.5V24
		c0,0.2,0,0.5,0.1,0.7c0.1,0.1,0.4,0.1,1,0.1c0.4,0,0.8-0.1,1.1-0.3c0.1-0.2,0.2-0.4,0.3-0.6l-0.1-1.4v-3.7l0.4-0.4
		c0.3-0.1,0.1-0.3-0.3-0.6l-0.8-0.6c-0.1,0-0.3-0.1-0.7-0.4c-0.2-0.1-0.4-0.1-0.6-0.1c-0.1,0-0.4,0.4-0.7,1h-4.2v-3.3
		c0.4-0.3,0.6-0.4,0.6-0.6c0-0.1-0.1-0.2-0.1-0.3c-0.1-0.1-1-0.3-2.7-0.4h-0.3v0.1l0.1,2.4v2.1L49.1,17.9L49.1,17.9z M60.4,22.9
		h-4.5v-4.7h4.5V22.9z"/>
	<path d="M68.9,14.8h11.7v14.8H68.9L68.9,14.8z M70.4,27.1L69,27l0.6,0.6H80c0.1,0,0.3,0,0.3-0.1s0-0.1-0.1-0.3
		c-0.2-0.2-0.4-0.3-0.6-0.4L78.9,26c-0.1-0.1-0.3-0.2-0.4-0.1c-0.1,0-0.1,0-0.3,0.1l-0.6,0.6c-0.3,0.3-0.4,0.6-0.6,0.7h-1.8v-5.4h4
		c0.1,0,0.3,0,0.3-0.1s0-0.1-0.1-0.3c-0.1-0.1-0.6-0.4-1.1-1c-0.3-0.1-0.4-0.3-0.6-0.3s-0.6,0.4-1,1.3h-1.4v-3.5
		c0.1-0.1,0.3-0.3,0.3-0.4h4.1c0.1,0,0.3,0,0.3-0.1c0-0.2,0-0.3-0.1-0.4c-0.4-0.4-0.8-0.7-1.3-1c-0.3-0.1-0.4-0.3-0.6-0.3
		c-0.1,0-0.6,0.6-1.1,1.4h-6.1l-1.4-0.1l0.6,0.6h3.4v4H71l-1.4-0.1l0.6,0.6h3.1v5.4h-2.8L70.4,27.1z M76.2,22.4
		c-0.1,0-0.1,0-0.3,0.1c0,0.1,0.1,0.2,0.1,0.3l0.3,0.3c0.1,0.1,0.3,0.3,0.3,0.4c0.1,0.3,0.2,0.6,0.1,0.8v0.4c0,0.2,0.1,0.4,0.3,0.6
		c0.2,0.2,0.4,0.3,0.7,0.3c0.3,0,0.7-0.1,0.8-0.4c0.3-0.3,0.3-0.7,0.4-1.4c0-0.7-0.8-1.1-2.7-1.4L76.2,22.4z M80.6,29.9v0.8
		c0,0.3,0.3,0.4,0.8,0.4c0.8,0,1.3-0.1,1.4-0.3c0.1-0.1,0.1-0.3,0.3-0.4L83,27.7V15.5c0.4-0.3,0.6-0.4,0.6-0.7
		c0-0.1-0.3-0.4-0.8-0.7c-0.4-0.1-0.8-0.3-1.1-0.6c-0.3,0-0.4-0.1-0.6,0c-0.1,0-0.3,0.4-0.7,1H69l-1.8-0.7l-0.6-0.3l0.1,2.8v11.4
		l-0.1,3c0,0.1,0.1,0.2,0.1,0.3c0.1,0.1,0.3,0.2,0.4,0.1c0.4,0,0.9,0,1.3-0.1c0.3-0.1,0.3-0.3,0.3-0.4v-0.7L80.6,29.9L80.6,29.9z"/>
	<path d="M92.9,28.9v-6.6h6.8v6.6H92.9z M93.2,15.8l-0.3,0.7c-0.3,0.8-0.6,1.5-1,2.3c-0.6,1-1.1,2.1-1.8,3.4c-0.6,1.1-1.3,2.1-2.1,3
		l-1.7,1.7l-0.6,0.6c-0.1,0.1-0.1,0.1,0,0.3c0,0.1,0.1,0.1,0.3,0l0.6-0.4c1.4-1,2.7-2.1,4-3.3v4.8l-0.1,2.1c0,0.1,0.1,0.1,0.3,0.3
		c0.1,0.1,0.6,0.1,1.1,0s1-0.4,1-0.7v-1.3h6.8v1.4c0,0.3,0.4,0.4,1.1,0.4s1.1-0.1,1.3-0.3c0.1-0.1,0.1-0.2,0.1-0.3l-0.1-2.4v-5.2
		c0.4-0.1,0.7-0.4,0.6-0.7c-0.1-0.2-0.3-0.4-0.6-0.4c-0.5-0.4-1-0.7-1.6-0.8c-0.1,0-0.4-0.1-0.4,0c-0.1,0-0.4,0.4-0.8,1H93l-0.3-0.3
		c1.1-1.6,2.3-3.3,3.4-5.1c0.4-0.1,0.6-0.1,0.6-0.3c0-0.2,0-0.3-0.1-0.4h7.2c0.1,0,0.1,0,0.3-0.1c0-0.1-0.3-0.4-0.8-1
		c-0.7-0.6-1-0.8-1.3-0.8c-0.1-0.1-0.2-0.1-0.3-0.1c-0.1,0-0.7,0.6-1.6,1.8H88.2l-1.7-0.1l0.3,0.6h6.4L93.2,15.8z"/>
	<path d="M117.6,20.6c1.1-1,2-1.8,2.4-2.5l0.4-0.6l0.1-0.1h0.1c0.1,0.1,0.3,0.2,0.4,0.3c0.1,0.1,0.6,0.4,1.1,1
		c0.6,0.6,0.8,0.8,0.8,1s-0.4,0.3-1,0.3c-0.5,0.2-0.9,0.4-1.3,0.7c-0.4,0.3-1,0.6-1.6,1c-0.6,0.4-1.2,0.8-1.8,1.1v4.8
		c0,0.3,0.1,0.6,0.3,0.8c0.1,0.1,0.7,0.3,1.7,0.3c0.7,0,1.3-0.1,2-0.3c0.3-0.1,0.7-0.8,1.1-2.1l0.4-1.1c0-0.1,0.1-0.1,0.1-0.1
		c0,0,0,0,0,0c0.1,0,0.1,0.1,0.1,0.3l-0.1,0.8c-0.1,0.3-0.1,0.6-0.1,0.8v0.6c0,0.3,0,0.6,0.1,0.6c0,0.1,0.1,0.3,0.4,0.6
		c0.1,0.3,0.3,0.4,0.4,0.7c0,0.2,0,0.4-0.1,0.6c-0.3,0.6-0.7,0.8-1.6,1c-1,0.1-2.1,0.2-3.1,0.1c-1.7,0-2.7-0.1-3.1-0.3
		c-0.3-0.2-0.5-0.3-0.7-0.6c-0.1-0.4-0.2-0.7-0.1-1.1V24c-1.3,0.4-2,0.7-2.4,0.8h-0.7c-0.1,0-0.3,0-0.3-0.1s0-0.1,0.1-0.3l0.7-0.3
		c0.1-0.1,0.6-0.3,1.3-0.7c0.5-0.3,1-0.6,1.4-1v-5.7l-0.1-3c0-0.1,0.1-0.1,0.3-0.1h1c0.2,0,0.5,0,0.7,0.1c0.2,0,0.5,0.1,0.7,0.1
		c0.2,0,0.3,0.1,0.3,0.3v0.1c-0.2,0.1-0.4,0.3-0.6,0.4L117.6,20.6L117.6,20.6z M112.8,15.4c-0.6,0.8-1.1,1.8-1.7,2.7
		c0.6,0.1,0.8,0.3,0.8,0.6c0,0.1-0.1,0.3-0.6,0.6v9.3l0.1,2c0,0.1-0.1,0.3-0.1,0.4c-0.1,0.1-0.4,0.3-1.1,0.3h-1
		c0-0.1-0.1-0.1-0.1-0.3l0.1-2.4v-8.1c-0.9,1-1.9,1.9-3,2.7l-0.6,0.4c-0.1,0.1-0.1,0.1-0.3,0v-0.3l0.6-0.7c0.6-0.6,1-1.4,1.7-2.4
		c0.6-1,1.1-2,1.6-3.1c0.4-0.9,0.7-1.8,1-2.7l0.1-0.6v-0.3c0-0.1,0.1-0.1,0.3,0c0.1,0,0.6,0.3,1.3,0.6s1.1,0.4,1.4,0.6
		c0.3,0.1,0.3,0.3,0.3,0.4C113.7,15.2,113.4,15.2,112.8,15.4L112.8,15.4z"/>
	<path d="M48.8,40.1c0.1,0.3,0.3,0.7,0.4,1c0.4,0.4,1.1,0.6,2.1,0.6c0.5,0,1,0,1.4-0.1c0.6,0,1-0.5,1-1.1c0-0.3-0.2-0.6-0.6-0.7
		c-0.5-0.2-1.1-0.4-1.7-0.4L50.2,39c-1.3-0.3-2.1-0.4-2.5-0.7c-0.8-0.4-1.2-1.1-1.1-2c0-0.8,0.4-1.6,1.1-2.1c0.7-0.6,2-0.8,3.4-0.8
		c1.1,0,2.3,0.3,3.3,0.8c0.8,0.6,1.4,1.3,1.4,2.3h-2.3c0-0.6-0.4-1-1-1.1C52,35.1,51.5,35,51.1,35c-0.5,0-1.1,0.1-1.6,0.3
		c-0.4,0.1-0.6,0.5-0.6,0.8c0,0.3,0.2,0.6,0.6,0.7c0.5,0.2,1,0.4,1.6,0.4l2.1,0.4c0.7,0.1,1.4,0.3,2,0.7c0.7,0.4,1.1,1.2,1,2
		c0,0.8-0.4,1.6-1.3,2.1c-0.8,0.6-2,0.8-3.5,0.8s-2.8-0.3-3.7-0.8c-0.8-0.5-1.3-1.3-1.3-2.3h2.4V40.1z"/>
	<path d="M61.1,43.1h-2.4v-9.5h2.4V43.1z"/>
	<path d="M64.2,33.6h2.5l4.7,6.6v-6.6h2.3v9.5h-2.4l-4.8-6.8v6.8h-2.3V33.6z"/>
	<path d="M82.2,41.7c-0.9,0-1.7-0.3-2.4-0.8c-0.6-0.7-0.9-1.5-0.8-2.4c0-1.1,0.3-1.8,0.8-2.4c0.7-0.6,1.5-0.9,2.4-0.8
		c0.9,0,1.7,0.3,2.4,0.8c0.6,0.7,0.9,1.5,0.8,2.4c0,1.1-0.3,1.8-0.8,2.4C83.9,41.4,83,41.7,82.2,41.7z M87.8,38.4c0-1.7-0.6-3-1.8-4
		c-0.8-0.7-2.1-1.1-3.8-1.1s-3,0.4-3.8,1.1c-1.1,0.8-1.8,2.1-1.8,4c0,1.7,0.6,3,1.8,4c0.8,0.7,2.1,1.1,3.8,1.1s3-0.4,3.8-1.1
		C87.2,41.4,87.8,40.1,87.8,38.4z"/>
	<path d="M97,36.7c0,0.4-0.1,0.8-0.4,1.1c-0.3,0.3-0.7,0.3-1.3,0.3H93v-2.8h2.3c0.4,0,0.9,0.1,1.3,0.3C96.9,35.7,97,36.2,97,36.7z
		 M99.4,36.6c0-1-0.3-1.8-1-2.3c-0.9-0.5-1.8-0.7-2.8-0.7h-5.1v9.5H93v-3.4h2.4c1,0,2.1-0.2,3-0.7C99.1,38.6,99.4,37.7,99.4,36.6
		L99.4,36.6z"/>
	<path d="M110.9,35.3h-6.1v2h5.7V39h-5.7v2.4h6.4v1.7h-8.8v-9.5h8.5V35.3z"/>
	<path d="M115.2,34.6c1-0.8,2.1-1.1,3.7-1.1c2,0,3.4,0.6,4.2,1.6c0.4,0.5,0.7,1.1,0.8,1.7h-2.4c-0.1-0.4-0.3-0.7-0.6-1
		c-0.4-0.4-1.1-0.6-2-0.6c-0.8,0-1.6,0.3-2.1,0.8c-0.6,0.6-0.7,1.4-0.7,2.4c0,1.1,0.3,1.8,0.8,2.4c1.1,1.1,2.8,1.1,4,0.1
		c0.3-0.3,0.5-0.7,0.6-1.1h2.4c-0.2,1-0.7,1.9-1.6,2.5c-0.8,0.7-2,1-3.4,1c-1.7,0-3-0.4-4-1.3c-1-0.8-1.4-2.1-1.4-3.5
		C113.5,37.1,114.1,35.6,115.2,34.6z"/>
</g>
</svg>
