<?xml version="1.0" encoding="utf-8"?>
<!-- Generator: Adobe Illustrator 24.3.0, SVG Export Plug-In . SVG Version: 6.00 Build 0)  -->
<svg version="1.1" id="图层_1" xmlns="http://www.w3.org/2000/svg" xmlns:xlink="http://www.w3.org/1999/xlink" x="0px" y="0px"
	 viewBox="0 0 128 70" style="enable-background:new 0 0 128 70;" xml:space="preserve">
<style type="text/css">
	.st0{fill:#AF1F24;}
	.st1{fill:#727171;}
	.st2{fill:#737272;}
</style>
<g>
	<path class="st0" d="M27.9,29c-0.4,0.2-0.7,0.1-1,0.1c-3.5,0-6.9,0-10.4,0c-0.5,0-1.1,0-1.6,0.1c-2.3,0.4-3.7,3-2.8,5.2
		c0.3,0.8,1,1.1,1.8,1.3c1.6,0.3,3.1,0.2,4.7,0.2c1.3,0,2.6,0,3.8,0.3c3.4,0.7,5.1,2.5,5.5,5.9c0.3,1.9,0.2,3.8-0.5,5.6
		c-1.1,3-3.4,4.3-6.3,4.7c-2.7,0.3-5.5,0.1-8.2,0.1c-1.7,0-3.5,0-5.2,0c-0.3,0-0.7,0-0.9-0.3c-0.9-1.5-1.8-3-2.7-4.5
		c0.3-0.2,0.6-0.1,0.9-0.1c4.2,0,8.4,0,12.6,0h0.7c3.2-0.1,3.7-2.1,3.5-4.5c-0.1-1.2-1.3-2-3-2.3c-1.5-0.2-3.1-0.2-4.6-0.2
		c-1.1,0-2.2-0.1-3.2-0.4c-2.9-0.6-4.3-2.2-4.9-5.1C5.8,33.4,5.7,31.7,6,30c0.6-3.2,3.3-5.4,6.9-5.6c4-0.2,8-0.1,12-0.1
		c0.2,0,0.4,0,0.5,0.2L27.9,29z M50.5,41c0,3.6,0,7.3,0,10.9c0,0.6-0.2,0.8-0.8,0.8c-4,0-7.9,0-11.9,0c-1,0-1.9-0.2-2.9-0.4
		c-2.9-0.9-4.5-2.9-4.6-6c-0.1-5.5,0-11-0.1-16.5c0-0.5,0.2-0.6,0.6-0.6c1.5,0,3.1,0,4.6,0c0.6,0,0.8,0.2,0.8,0.8c0,5,0,10,0,15
		c0,1.8,0.8,2.6,2.6,2.6c1.6,0,3.2,0,4.8,0c0.7,0,0.9-0.2,0.9-0.9c0-5.6,0-11.1,0-16.7c0-0.7,0.2-0.9,0.8-0.8c1.4,0.1,2.7,0.1,4.1,0
		c0.7,0,1,0.1,1,0.9C50.5,33.7,50.5,37.3,50.5,41L50.5,41z M103.8,40.8c0-3.7,0-7.5,0-11.2c0-0.7,0.2-0.8,0.8-0.8
		c3.9,0,7.7,0,11.6,0c2.1,0,4.1,0.4,5.7,1.9c1.6,1.4,2,3.3,2,5.3c0,5.3,0,10.6,0,16c0,0.5-0.1,0.7-0.7,0.7c-1.5,0-3-0.1-4.4,0
		c-0.7,0-0.8-0.2-0.8-0.8c0-4.9,0-9.7,0-14.6c0-0.6,0-1.3-0.2-1.8c-0.4-1-1.3-1.5-2.4-1.6c-1.8-0.1-3.5,0-5.3,0
		c-0.7,0-0.5,0.4-0.5,0.8c0,4.6,0,9.2,0,13.8c0,1.2,0,2.4,0,3.6c0,0.5-0.1,0.6-0.6,0.6c-1.5,0-3,0-4.5,0c-0.6,0-0.8-0.2-0.8-0.8
		C103.8,48.2,103.8,44.5,103.8,40.8z"/>
	<path class="st1" d="M107.1,26.2l4.4-6.8c-1.3,0-2.4,0-3.6,0c-0.5,0-0.9,0-0.9-0.7s0.4-0.6,0.9-0.6c1.7,0,3.4,0,5.1,0
		c0.6,0,0.8-0.1,0.8-0.8c0-1.8,0-3.5,0-5.3c0-0.5,0.1-0.7,0.7-0.7c1.8,0,1.8,0,1.8,1.8c0,1.4,0,2.7,0,4.1c0,0.6,0.1,0.9,0.9,0.9
		c1.8-0.1,3.7,0,5.5,0c0.5,0,0.7,0,0.7,0.6s-0.3,0.7-0.8,0.7c-1.1,0-2.2,0-3.2,0c-0.5,0-0.6,0.1-0.6,0.6c0,1.3,0,2.7,0,4
		c0,0.7,0.3,1,1,1c0.9,0,1.8,0,2.7,0c0.3,0,0.6,0,0.7,0.3c0.2,0.3,0.6,0.5,0.4,0.9c-0.1,0.3-0.6,0.1-0.9,0.1c-1.3,0-2.7,0-4,0
		c-1.7,0-2.5-0.9-2.5-2.5c0-1.2,0-2.4,0-3.7c0-0.5-0.2-0.6-0.6-0.6c-1-0.1-1.7,0.2-2.2,1.1c-1,1.7-2.2,3.3-3.3,5
		c-0.4,0.6-0.8,0.8-1.4,0.8C108.4,26.1,107.8,26.2,107.1,26.2L107.1,26.2z M73.4,21.4c-0.7,1.1-1.4,1.4-2.5,1.2
		c-0.5-0.1-0.2-0.3-0.1-0.6c0.6-1.3,1.3-2.5,1.9-3.8c0.2-0.3,0.4-0.6,0.4-1.1c-0.5,0-1,0-1.5,0S71,16.9,71,16.5
		c0-0.4,0.1-0.7,0.6-0.6c0.6,0,1.3,0.2,1.6-0.1c0.4-0.4,0-1.1,0.1-1.7c0.1-0.8-0.1-1.2-1-1c-0.2,0.1-0.5,0.1-0.8,0.1
		s-0.6,0.1-0.5-0.3c0-0.3-0.2-0.7,0.4-0.8c2.1-0.2,4.2-0.4,6.4-0.6c0.3,0,0.4,0.1,0.4,0.4s0.2,0.7-0.4,0.8c-0.5,0-0.9,0.1-1.4,0.1
		s-0.6,0.3-0.6,0.7c0,0.2,0,0.3,0,0.5c0.1,0.6-0.3,1.4,0.1,1.8c0.4,0.4,1.1,0.1,1.7,0.2c0.5,0,0.5,0.3,0.5,0.7s-0.1,0.6-0.6,0.6
		c-0.4,0-0.8,0-1.2,0c-0.3,0-0.6,0-0.6,0.4s0.2,0.5,0.5,0.6c0.5,0.1,0.9,0.3,1.4,0.4c0.3,0.1,0.5,0.2,0.5,0.6
		c0.1,1.5,0.1,1.5-1.3,1.1c-1.1-0.3-1-0.3-1,0.8c0,1.5,0,3,0,4.4c0,0.6-0.2,0.7-0.7,0.7c-1.8,0-1.8,0-1.8-1.8L73.4,21.4z M86.6,16.4
		v4.3c0,0.4,0,0.7,0.5,0.6c0.5,0,0.4,0.4,0.5,0.7s0,0.6-0.4,0.5c-0.5-0.1-0.5,0.2-0.5,0.6c0,0.8,0,1.6,0,2.5c0,0.4-0.1,0.5-0.5,0.6
		c-2,0.1-2,0.1-2-1.8c0-1.8,0-1.8-1.8-1.8c-0.9,0-1.8,0-2.7,0c-0.5,0-0.7-0.2-0.7-0.7s0.2-0.6,0.7-0.6c1.3,0,2.5,0,3.8,0
		c0.6,0,0.8-0.2,0.8-0.8c0-2.8,0-5.6,0-8.3c0-0.7,0.2-0.9,0.9-0.9c1.7,0,1.7,0,1.7,1.6C86.6,14.1,86.6,15.2,86.6,16.4z"/>
	<path class="st1" d="M122.9,12.7c-0.9,1.5-1.8,2.9-2.7,4.3c-0.2,0.3-0.4,0.3-0.7,0.3h-2.2c0.6-1,1.3-1.9,1.7-2.8
		C119.7,12.7,121,12.2,122.9,12.7z M113.1,17.3c-0.9,0-1.6,0-2.3,0c-0.3,0-0.5-0.2-0.6-0.4c-0.8-1.2-1.6-2.5-2.4-3.7
		c-0.2-0.4-0.3-0.5,0.3-0.6c1.4-0.2,2.5,0.1,3.1,1.6C111.7,15.2,112.4,16.2,113.1,17.3z"/>
	<path class="st2" d="M83.5,14.8c0.1,0.4,0,0.6-0.6,0.5c-1.2-0.2-2.3-0.4-3.5-0.5c-0.7-0.1-0.5-0.5-0.5-0.9c0-0.5,0.4-0.4,0.7-0.3
		c1.1,0.2,2.3,0.4,3.4,0.5C83.5,14.1,83.5,14.4,83.5,14.8z M83.5,18.3c0.1,0.5-0.1,0.6-0.6,0.6c-1.1-0.2-2.2-0.4-3.4-0.5
		c-0.7-0.1-0.6-0.5-0.6-1c0-0.7,0.5-0.3,0.7-0.3c1.1,0.1,2.1,0.3,3.2,0.4C83.3,17.6,83.7,17.7,83.5,18.3z"/>
	<path class="st0" d="M74.8,29.6c0-0.6,0-0.9-0.8-0.8c-3.7,0.1-7.3,0-11,0.1C58.1,29,52.5,32,52.9,39.5c0.2,3,1.1,5.6,3.6,7.4
		c1.9,1.4,4.2,1.9,6.5,1.9c1.8,0,3.6,0,5.4,0c0.5,0,0.7,0.1,0.7,0.7c0,2.8-1.3,4.2-4.1,4.2H53.3c1,1.7,1.9,3.3,2.8,4.9
		c0.1,0.3,0.4,0.2,0.6,0.2c3.4,0,6.7,0.1,10.1,0c4.9-0.2,8.1-3.5,8.1-8.4C74.9,43.3,74.8,36.5,74.8,29.6L74.8,29.6z M69.1,48.3
		L69.1,48.3c-0.8-1.2-1.5-2.4-2.2-3.7c-0.3-0.5-0.5-0.7-1.1-0.6c-1.2,0.1-2.4,0.2-3.6-0.1c-2.6-0.8-3.9-2.8-3.7-5.6
		c0.2-2.6,2.1-4.5,4.8-4.8c1.8-0.2,3.6,0,5.4-0.1c0.4,0,0.5,0.1,0.5,0.5C69.1,38.7,69.1,43.5,69.1,48.3z M100.8,29.5
		c0-0.5-0.1-0.7-0.6-0.7c-4.8,0-9.6,0-14.4,0c-5.1,0.1-7.6,2.7-7.6,7.8s0,10.1,0,15.2c0,0.7,0.2,0.9,0.9,0.9c4.6,0,9.3,0,13.9,0
		c0.7,0,1.4-0.1,2-0.2c3.8-0.7,5.8-3.1,5.8-6.9v-7.7C100.7,35.1,100.7,32.3,100.8,29.5z M94.9,39.8v5c0,1.9-0.9,3-2.8,3
		c-2.5,0.1-5.1,0-7.6,0c-0.4,0-0.5-0.1-0.5-0.5c0-3.6,0-7.2,0-10.7c0-1.8,1-2.7,2.8-2.7c2.5,0,4.9,0,7.4,0c0.5,0,0.7,0.1,0.7,0.7
		C94.9,36.3,94.9,38,94.9,39.8L94.9,39.8z"/>
	<path class="st1" d="M100.6,19.3c1.4,0,2.8,0,4.2,0c0.4,0,0.7-0.1,0.7-0.6c0-0.4-0.1-0.7-0.6-0.7c-0.2,0-0.5,0.1-0.6-0.2
		c1.3-1,1.4-1.3,1-2.7c-1.5,0.9-1.5,0.9-3.7,0.8c-0.3,0-0.6,0.1-0.6-0.4c0-0.4,0.3-0.4,0.6-0.4c0.8,0,1.7,0,2.5,0s1.3-0.6,1.3-1.4
		c0-0.6,0-1.3,0-1.9c0-0.5-0.2-0.6-0.6-0.6c-3.2,0-6.4,0-9.7,0c-0.5,0-0.6,0.2-0.6,0.6c0,0.9,0,1.7,0,2.6c0,0.5,0.1,0.7,0.7,0.7
		c1,0,1.9,0,2.9,0c0.3,0,0.8-0.2,0.8,0.4c0,0.6-0.5,0.4-0.8,0.4c-1,0-2,0-3,0c-0.5,0-0.6,0.2-0.6,0.6c0,0.4,0.1,0.6,0.6,0.6
		c1,0,1.9,0,2.9,0c0.3,0,0.9-0.3,0.9,0.4c0,0.7-0.6,0.4-1,0.5c-0.9,0-1.8,0-2.6,0c-0.4,0-0.8-0.1-0.8,0.6c0,0.7,0.3,0.7,0.8,0.6
		c0.4,0,0.8,0,1.4,0l-2.9,2v-1c0-2.4,0-4.7,0-7.1c0-0.6-0.1-0.8-0.7-0.7c-1.1,0-2.3,0-3.4,0c-0.5,0-0.7,0.2-0.7,0.7
		c0,3.3,0,6.6,0,9.9c0,1.1,0.6,1.6,1.6,1.7c0.9,0,1.7,0,2.6,0c0.4,0,0.7-0.1,0.6-0.6c-0.2-0.9,0.5-1.3,1.3-1.6c0,1,0,2,0,2.9
		c0,0.4,0.1,0.6,0.5,0.6c2.5,0,5,0,7.5,0c1.2,0,2.1-0.9,2.2-2c0-1.2,0-2.3,0-3.5c0-0.4-0.1-0.5-0.5-0.5c-1.6,0-3.2,0-4.9,0h-1.3
		C99.3,19.4,99.9,19.3,100.6,19.3z M102.7,12.5c0.5,0,0.7,0.2,0.6,0.6c0.1,0.5,0,0.9-0.6,0.9c-0.7,0-0.5-0.4-0.5-0.8
		C102.1,12.9,102.1,12.5,102.7,12.5L102.7,12.5z M97.2,14.1c-0.7,0-0.6-0.4-0.6-0.8s0-0.7,0.6-0.7c0.7,0,0.6,0.4,0.6,0.8
		C97.9,13.8,97.8,14.1,97.2,14.1L97.2,14.1z M101.3,17.2h0.9c-0.2,0.4-0.5,0.5-0.7,0.7c-0.1,0.1-0.3,0.3-0.4,0.1
		c-0.1-0.1-0.1-0.3-0.1-0.5C100.9,17.3,101.1,17.2,101.3,17.2C101.2,17.2,101.2,17.2,101.3,17.2z M100,12.5c0.7,0,0.5,0.5,0.5,0.8
		c0,0.4,0,0.8-0.6,0.7c-0.7,0-0.5-0.5-0.5-0.8C99.4,12.8,99.4,12.5,100,12.5z M91.2,14.1c0-0.2,0-0.3,0.3-0.3c0.2,0,0.4,0.1,0.4,0.4
		v3.5c0,0.2-0.1,0.4-0.3,0.4c-0.3,0-0.3-0.2-0.3-0.4C91.2,16.5,91.2,15.3,91.2,14.1z M91.9,23.1c0,0.2,0,0.5-0.3,0.5
		c-0.2,0-0.3-0.2-0.3-0.4v-3.6c0-0.2,0.1-0.3,0.3-0.3c0.3,0,0.4,0.1,0.4,0.4v1.8C91.9,21.9,91.9,22.5,91.9,23.1L91.9,23.1z
		 M102.9,24.8c-0.1,0.1-0.3,0.1-0.4,0.1c-1.6,0-3.2,0-4.8,0c-0.5,0-0.4-0.3-0.4-0.7c0-0.4,0.1-0.5,0.5-0.5c0.9,0,1.7,0,2.6,0
		c0.8,0,1.6,0,2.4,0c0.2,0,0.6-0.1,0.6,0.3C103.4,24.4,103.2,24.7,102.9,24.8L102.9,24.8z M102.8,21.4c0.4,0,0.5,0.2,0.5,0.6
		s-0.1,0.6-0.5,0.6c-0.9,0-1.8,0-2.6,0c-0.8,0-1.6,0-2.4,0c-0.5,0-0.5-0.2-0.6-0.6c0-0.4,0.2-0.5,0.6-0.5
		C99.5,21.4,101.1,21.4,102.8,21.4L102.8,21.4z M68.1,13.6c-1.6,0.1-3.2,0-4.8,0c-0.5,0-0.7-0.1-0.6-0.6c0-0.3,0-0.5,0-0.8
		c0.1-0.8-0.2-0.9-0.9-0.9c-1.5,0.1-1.5,0-1.5,1.5c0,0.7-0.2,0.8-0.8,0.8c-1.2,0-2.4,0-3.6,0.1c-1.3,0.1-2,0.9-2,2.2c0,2,0,4,0,6
		c0,0.5,0.2,0.7,0.7,0.7c1.3,0,2.6,0,3.9,0c1.9,0,1.9,0,1.9,1.9c0,2,0,1.9,2,1.8c0.4,0,0.5-0.2,0.5-0.5c0-0.8,0-1.6,0-2.4
		c0-0.5,0.1-0.8,0.7-0.7c1.1,0,2.3,0,3.4,0c1.4,0,2.3-0.9,2.3-2.4c0-0.9,0-1.9,0-2.8c0-0.9-0.1-1.8,0-2.7
		C69.2,13.8,68.9,13.6,68.1,13.6z M60.2,17.9c0,1,0,1.7,0,2.5c0,0.4-0.1,0.6-0.5,0.6c-1,0-1.9,0-2.9,0c-0.4,0-0.5-0.1-0.5-0.5
		c0-1.5,0-3.1,0-4.6c0-0.5,0.3-0.8,0.8-0.8c0.1,0,0.2,0,0.3,0c0.9,0,2.2-0.4,2.7,0.2C60.7,15.9,60.1,17.2,60.2,17.9z M66.6,20.3
		c0,0.5-0.3,0.8-0.8,0.8c-0.9,0-1.8,0-2.6,0c-0.5,0-0.5-0.2-0.5-0.6c0-0.8,0-1.6,0-2.4c0-0.8,0-1.6,0-2.4c0-0.4,0.1-0.6,0.6-0.6
		c0.9,0,1.9,0,2.8,0c0.4,0,0.5,0.1,0.5,0.5C66.6,17.2,66.6,18.7,66.6,20.3z"/>
</g>
</svg>
