<?xml version="1.0" encoding="utf-8"?>
<!-- Generator: Adobe Illustrator 24.3.0, SVG Export Plug-In . SVG Version: 6.00 Build 0)  -->
<svg version="1.1" id="图层_1" xmlns="http://www.w3.org/2000/svg" xmlns:xlink="http://www.w3.org/1999/xlink" x="0px" y="0px"
	 viewBox="0 0 128 40" style="enable-background:new 0 0 128 40;" xml:space="preserve">
<style type="text/css">
	.st0{fill:#002F78;}
</style>
<g>
	<path class="st0" d="M115.7,15.4c-0.5-1.9-0.8-2.9-0.8-3c-0.5,0.2-1.3,0.5-2.3,0.9c0.3,1,0.6,2,0.7,3
		C113.7,16.1,114.5,15.8,115.7,15.4L115.7,15.4z M107.1,18.8h2.6l0.3-1.6h-4.7c0.1-0.2,0.2-0.4,0.3-0.7h3.8l0.3-1.6h-1.4
		c0.5-0.5,1.1-1,1.6-1.5l-1.6-1c-0.5,0.7-1.1,1.4-1.7,2l1,0.6h-1.4l0.2-0.6l0.3-0.7c0.2-0.6,0.4-1,0.5-1.2c0-0.1-0.1-0.2-0.3-0.2
		c-0.6-0.1-1.3-0.1-1.9-0.1c-0.3,1.1-0.5,2-0.8,2.8H103l0.4-0.3c0.4-0.2,0.7-0.5,1-0.7c-0.2-0.6-0.6-1.2-1-1.7
		c0-0.1-0.5,0.3-1.5,0.9l-0.3,0.2c0,0.1,0.1,0.1,0.1,0.2c0.3,0.4,0.6,0.9,0.9,1.4h-1l-0.3,1.6h2.3l-0.2,0.3l-0.2,0.3h-2.5l-0.3,1.6
		h1.7c-0.6,0.8-1.4,1.5-2.2,2l0,0c-0.1,0.1-0.2,0.1-0.4,0.2v-0.2l1.6-7.7h-4.4l-1.6,7.7L95,21.3c-0.3,1.7-1,3.4-1.9,4.9
		c0.4,0.4,0.8,0.9,1.2,1.4c1-1.6,1.8-3.4,2.2-5.3h0.9L96.9,25c0,0.4-0.4,0.5-1,0.5c0.1,0.7,0.2,1.3,0.1,2c1.6,0,2.4-0.4,2.4-1.1
		l0.9-4.6c0.3,0.3,0.6,0.7,0.8,1.1c0.3-0.2,0.6-0.4,0.8-0.6l-0.6,2h5.3l-0.1,0.5c-0.2,1.1-0.5,1.5-0.9,1.5l0.3-1.5h-5.7l-0.3,1.6
		h4.6c0.3,0.6,0.4,1.2,0.3,1.8c1.5-0.1,2.4-0.3,2.7-0.7c0.2-0.2,0.3-0.5,0.3-0.7c0.2-0.7,0.5-1.8,0.9-3.3l0.2-0.8H106l0.2-1.2
		c0.4,0.4,0.9,0.8,1.4,1.1c0.4-0.5,0.8-1,1.2-1.4c0.2-0.2,0.3-0.3,0.5-0.5C108.5,20,107.7,19.5,107.1,18.8L107.1,18.8z M98,20.6
		h-0.9l0.4-2.1h0.9L98,20.6z M98.7,17h-0.9l0.4-2.2h0.9L98.7,17z M104.4,22.5h-1.6c0.1-0.4,0.2-0.7,0.3-1c-0.1,0-0.1-0.1-0.2-0.1
		H102l0.4-0.4h2.3L104.4,22.5z M103.9,19.5l0.3-0.3l0.3-0.3h0.6c0.1,0.2,0.2,0.4,0.3,0.7L103.9,19.5z M115.3,22l-0.4-0.8l-0.4,0.3
		c-0.6,0.6-1.1,1-1.4,1.2l0.4-1.9l0.7-3.7h-3.7l-0.4,1.8h1.8l-0.4,1.8l-0.6,3.1c-0.2,0.5-0.5,1-0.9,1.3c-0.1,0.1-0.2,0.2-0.3,0.3
		c0.2,0.7,0.6,1.3,1,1.8c0.2-0.2,0.4-0.3,0.6-0.6c0.5-0.6,1.9-1.9,4.2-4C115.6,22.7,115.5,22.5,115.3,22L115.3,22z M122.4,23.3
		c-0.3,1.1-0.5,1.4-0.6,1c-0.2-0.7-0.1-1.9,0.3-3.5l0,0c0,0,0,0,0-0.1l1.5-7.6h-6.9l-0.4,1.8h1.4l-0.7,3.4h-1.8l-0.4,1.8h1.8
		l-0.1,0.6l-1.3,6.5h2l1.3-6.5l0.1-0.6h1.4l-0.1,0.6l-0.2,0.8c-0.4,2.2-0.3,3.8,0.5,5c0.5,0.7,1,0.9,1.7,0.8c0.7,0,1.3-1.1,2-3.4
		C123.4,23.8,122.9,23.6,122.4,23.3z M120.6,18.4H119l0.7-3.4h1.5L120.6,18.4z"/>
	<path class="st0" d="M17.9,12.1H4.5L4,14.3h5l-1.6,6.5l-1.6,6.7h3.3l1.6-6.7l1.6-6.5h5L17.9,12.1z M37.1,16c-1.5,0-2.9,0.5-4.1,1.4
		l-2.9-1L29,20.8l-1.6,6.7h3.2l1.3-5.4c0.1-0.4,0.2-0.9,0.4-1.3c0.2-0.6,0.5-1.2,1-1.7c0.6-0.6,1.4-0.9,2.5-0.9c1,0,1.6,0.2,1.9,0.6
		c0.2,0.4,0.3,1,0.1,1.9c0,0.2-0.1,0.3-0.1,0.5l-1.5,6.3h3.2l1.6-6.7v-0.2c0.4-1.6,0.3-2.7-0.3-3.4C39.9,16.4,38.8,16,37.1,16z
		 M50.9,15.7c-2.1,0-4.1,0.6-5.8,1.7c-1.4,1-2.4,2.1-2.9,3.4h2.5h-2.5c-0.1,0.3-0.2,0.5-0.3,0.8c-0.4,1.7,0,3.1,1.1,4.2
		c1.2,1.1,2.8,1.7,4.9,1.7c1.4,0,2.8-0.3,4.1-0.8l0.8-3.4c-0.7,0.6-1.5,1.1-2.4,1.5c-0.7,0.3-1.4,0.4-2.1,0.4c-1.2,0-2.1-0.3-2.7-1
		c-0.6-0.7-0.8-1.5-0.5-2.6c0.1-0.3,0.2-0.5,0.3-0.8l0,0c0.3-0.7,0.9-1.3,1.5-1.8c0.9-0.7,2.1-1,3.2-1c0.7,0,1.3,0.1,1.9,0.4
		c0.6,0.4,1.2,0.9,1.6,1.5l0.8-3.5C53.4,15.9,52.2,15.6,50.9,15.7z M78,16c-1.5,0-2.9,0.5-4.1,1.4l-2.9-1l-1.1,4.5l-1.6,6.7h3.2
		l1.3-5.4c0.1-0.4,0.2-0.9,0.4-1.3l0,0c0.2-0.6,0.5-1.2,1-1.7c0.6-0.6,1.4-0.9,2.5-0.9c1,0,1.6,0.2,1.9,0.6c0.2,0.4,0.3,1,0.1,1.9
		c0,0.1-0.1,0.3-0.1,0.5L77,27.6h3.2l1.6-6.7v-0.2c0.4-1.6,0.3-2.7-0.3-3.4C80.8,16.4,79.6,16,78,16L78,16z M84.8,20.8l-1.6,6.7h3.2
		l1.6-6.7l0.5-1.9h-3.2L84.8,20.8z M86.6,13.4l-0.7,2.9h-2.6l-0.5,2.2h9.7L86.6,13.4z M62.8,15.7c-1.9,0-3.7,0.5-5.2,1.6
		c-1.2,0.9-2.1,2.1-2.6,3.5l0,0l0,0c-0.1,0.3-0.2,0.5-0.2,0.8c-0.4,1.8-0.2,3.2,0.8,4.3s2.5,1.6,4.6,1.6c3.5,0,6.2-2.2,6.4-2.5
		L65,24.7c-0.4,0.1-2.3,0.7-4.3,0.5c-2.5-0.2-3-2.1-2.9-3h9.9l0.2-0.6c0.1-0.3,0.1-0.5,0.2-0.8H68h0.1c0.2-1.5-0.1-2.7-0.9-3.6
		C66.3,16.2,64.8,15.7,62.8,15.7L62.8,15.7z M58.6,20.1c0.2-0.3,0.4-0.6,0.7-0.9s0.5-0.5,0.9-0.6c0.3-0.2,0.7-0.3,1-0.4
		c0.4-0.1,0.7-0.2,1.1-0.1c1.7,0,2.6,0.7,2.7,2.1L58.6,20.1z M21.6,15.7c-1.9,0-3.7,0.5-5.2,1.6c-1.2,0.9-2.1,2.1-2.6,3.5l0,0l0,0
		c-0.1,0.3-0.2,0.5-0.2,0.8c-0.4,1.8-0.2,3.2,0.8,4.3s2.5,1.6,4.6,1.6c3.5,0,6.2-2.2,6.4-2.5l-1.5-0.4c-0.4,0.1-2.3,0.7-4.3,0.5
		c-2.5-0.2-3-2.1-2.9-3h9.9l0.2-0.6c0.1-0.3,0.1-0.5,0.2-0.8h-0.1H27c0.2-1.5-0.1-2.7-0.9-3.6C25.1,16.2,23.7,15.7,21.6,15.7
		L21.6,15.7z M17.5,20.1c0.2-0.3,0.4-0.6,0.7-0.9c0.3-0.3,0.5-0.5,0.9-0.6c0.3-0.2,0.7-0.3,1-0.4c0.4-0.1,0.7-0.2,1.1-0.1
		c1.7,0,2.6,0.7,2.7,2.1L17.5,20.1z"/>
</g>
</svg>
