<?xml version="1.0" encoding="utf-8"?>
<!-- Generator: Adobe Illustrator 24.3.0, SVG Export Plug-In . SVG Version: 6.00 Build 0)  -->
<svg version="1.1" id="图层_1" xmlns="http://www.w3.org/2000/svg" xmlns:xlink="http://www.w3.org/1999/xlink" x="0px" y="0px"
	 viewBox="0 0 128 60" style="enable-background:new 0 0 128 60;" xml:space="preserve">
<style type="text/css">
	.st0{fill:#1A1311;}
	.st1{fill:#A6A7A7;}
	.st2{fill:#767676;}
	.st3{fill:#DC000C;}
</style>
<g>
	<path class="st0" d="M32.3,47.2l0.5,0.1c0,0.1-0.1,0.2-0.1,0.3c0.5,0.5,0.9,0.9,1.3,1.5l-0.4,0.4c-0.3-0.5-0.7-0.9-1.1-1.4
		c-0.1,0.2-0.2,0.4-0.3,0.5c-0.2,0.4-0.5,0.8-0.9,1.1l-0.4-0.4c0.3-0.3,0.6-0.7,0.8-1C32,48,32.2,47.6,32.3,47.2z M31.8,51.9
		c0.2,0.1,0.3,0.3,0.5,0.4c0.3-0.4,0.5-0.9,0.7-1.3h-1.9v-0.5h2.7c-0.3,0.8-0.7,1.6-1.2,2.3c0.2,0.2,0.4,0.4,0.6,0.6l-0.5,0.5
		c-0.4-0.6-0.9-1.1-1.5-1.6L31.8,51.9z M32.6,49c0.1,0.3,0.3,0.7,0.3,1l-0.6,0.2c-0.1-0.3-0.2-0.7-0.3-1L32.6,49z M35.4,49.8H36
		c0,0.8,0,1.3,0,1.3c0,0.6-0.2,1.2-0.5,1.7c-0.4,0.5-0.9,0.8-1.5,1l-0.3-0.5c0.5-0.2,1-0.5,1.3-0.9c0.3-0.4,0.5-1,0.4-1.5
		C35.4,50.9,35.4,50.5,35.4,49.8L35.4,49.8z M37.2,48.9v3.4h-0.6v-2.9h-1.9v2.9h-0.6v-3.4h1c0.1-0.3,0.1-0.5,0.2-0.8h-1.4v-0.5h3.5
		v0.5H36c-0.1,0.3-0.1,0.6-0.2,0.8H37.2z M36.3,52.3c0.4,0.3,0.8,0.7,1.1,1.1L37,53.8c-0.4-0.4-0.7-0.8-1.2-1.2L36.3,52.3z"/>
	<path class="st0" d="M42.7,47.3l0.6,0.2c-0.1,0.3-0.2,0.5-0.3,0.8h1.2v-1h0.6v1h2.3v0.6h-2.3v1.4h2.8v0.6h-2v2.1
		c0,0.1,0.1,0.2,0.3,0.2c0.1,0,0.2,0,0.3,0c0.2,0,0.5,0,0.7,0c0.1-0.1,0.1-0.2,0.1-0.3c0.1-0.3,0.1-0.5,0.1-0.8l0.6,0.3
		c0,0.4-0.1,0.8-0.3,1.2c-0.1,0.1-0.3,0.1-0.4,0.2c-0.3,0-0.6,0.1-0.9,0c-0.2,0-0.4,0-0.5,0c-0.4,0-0.7-0.2-0.7-0.6v-2.3h-1.1
		c0,0.5-0.1,1-0.3,1.4c-0.2,0.4-0.4,0.8-0.8,1c-0.3,0.3-0.7,0.5-1.1,0.5l-0.3-0.6c0.4-0.1,0.7-0.3,1-0.5c0.3-0.2,0.5-0.5,0.6-0.8
		c0.1-0.4,0.2-0.7,0.2-1.1h-1.8v-0.6h2.8v-1.4h-1.4c-0.2,0.4-0.4,0.8-0.7,1.2l-0.5-0.4c0.3-0.3,0.5-0.7,0.7-1.1
		C42.4,48.1,42.5,47.7,42.7,47.3L42.7,47.3z"/>
	<path class="st0" d="M53.8,51.1h-1.3v-1.3h1.3V51.1z"/>
	<path class="st0" d="M61.5,50.2H60v2.6c0,0.1,0,0.2,0.1,0.2c0.2,0,0.4,0,0.6,0c0.4,0,0.6,0,0.8,0c0.1,0,0.3,0,0.4-0.1
		c0.1-0.1,0.2-0.3,0.2-0.8l0.6,0.3c0,0.4-0.1,0.7-0.4,1c-0.1,0.1-0.2,0.1-0.4,0.1c-0.4,0-0.8,0-1.3,0c-0.3,0-0.6,0-0.9,0
		c-0.2,0-0.4-0.2-0.4-0.6v-3.2c-0.2,0.2-0.3,0.3-0.5,0.4l-0.4-0.5c0.4-0.4,0.8-0.8,1.2-1.2c0.3-0.4,0.6-0.9,0.8-1.3l0.5,0.3
		c0,0.1-0.1,0.1-0.1,0.2c0.6,0.5,1.3,1,1.8,1.6l-0.5,0.4c-0.5-0.6-1-1.1-1.6-1.5c-0.2,0.3-0.3,0.5-0.5,0.8c-0.3,0.3-0.5,0.6-0.7,0.8
		h2.7c0,1.2-0.1,1.9-0.3,2.1C61.7,52,61.5,52,61.3,52c-0.2,0-0.4,0-0.6-0.1l-0.1-0.6c0.2,0.1,0.4,0.1,0.7,0.1c0.1,0,0.2,0,0.2-0.1
		C61.4,51,61.5,50.6,61.5,50.2z M63,48.1h0.6v3.8H63V48.1z M64.4,47.2H65v5.8c0,0.2,0,0.4-0.2,0.6c-0.2,0.1-0.5,0.2-0.7,0.2
		c-0.2,0-0.5,0-0.7-0.1L63.3,53c0.2,0.1,0.5,0.1,0.7,0.1c0.1,0,0.2,0,0.3-0.1c0-0.1,0.1-0.2,0.1-0.3L64.4,47.2z"/>
	<path class="st0" d="M69.7,51.5l0.5,0.3c-0.2,0.5-0.6,0.9-1,1.3l-0.4-0.4C69.1,52.3,69.4,51.9,69.7,51.5z M71.3,48.5l0.6,0.2
		c-0.1,0.3-0.2,0.6-0.4,0.8h0.8V50h-1.4v0.7h1.2v0.5h-1.2v1.9c0,0.3-0.1,0.5-0.2,0.5c-0.2,0.1-0.4,0.2-0.6,0.1c-0.2,0-0.3,0-0.5-0.1
		l-0.1-0.6c0.2,0.1,0.4,0.1,0.6,0.1c0.1,0,0.1-0.1,0.1-0.3v-1.8h-1.2v-0.5h1.2V50H69v-0.5h1.9C71,49.1,71.2,48.8,71.3,48.5
		L71.3,48.5z M69.1,47.8h1.2c-0.1-0.2-0.2-0.4-0.3-0.5l0.5-0.2c0.1,0.2,0.3,0.4,0.4,0.7h1.3v0.5h-3.1L69.1,47.8z M70,48.4
		c0.1,0.3,0.2,0.6,0.3,0.9l-0.5,0.1c-0.1-0.3-0.1-0.6-0.3-0.9L70,48.4z M75.1,47.3l0.3,0.5c-0.7,0.2-1.5,0.3-2.3,0.4v1.3h2.2V50
		h-0.7v3.6h-0.6V50h-1c0,0.8-0.1,1.6-0.2,2.4c-0.1,0.5-0.3,0.9-0.6,1.3l-0.5-0.4c0.2-0.2,0.3-0.4,0.4-0.7l-0.4,0.2
		c-0.2-0.4-0.5-0.8-0.8-1.1l0.4-0.3c0.3,0.3,0.6,0.7,0.8,1.1c0-0.1,0.1-0.2,0.1-0.3c0.2-1,0.3-1.9,0.2-2.9v-1.6
		C73.5,47.7,74.3,47.5,75.1,47.3L75.1,47.3z"/>
	<path class="st0" d="M4.4,27.7h1.7v6.2h3.1v1.5H4.4V27.7z"/>
	<path class="st0" d="M11.5,33.1c0.1,0.7,0.8,1.1,1.6,1.1c0.5,0,1-0.1,1.5-0.2l0.2,1.2c-0.6,0.2-1.3,0.4-2,0.4c-1.9,0-3-1.1-3-2.9
		c0-1.4,0.9-3,2.8-3c1.8,0,2.5,1.4,2.5,2.8c0,0.2,0,0.5-0.1,0.7L11.5,33.1z M13.6,32c0-0.4-0.2-1.1-1-1.1c-0.7,0-1,0.7-1.1,1.1H13.6
		z"/>
	<path class="st0" d="M20.9,34c0,0.5,0,0.9,0.1,1.3h-1.6l-0.1-0.6h0c-0.4,0.5-1,0.7-1.6,0.7c-0.9,0.1-1.8-0.7-1.8-1.6
		c0,0,0-0.1,0-0.1c0-1.5,1.3-2.1,3.3-2.1v-0.1c0-0.3-0.2-0.7-1-0.7c-0.5,0-1.1,0.1-1.5,0.4l-0.3-1.1c0.7-0.3,1.4-0.5,2.2-0.5
		c1.9,0,2.4,1.1,2.4,2.4L20.9,34z M19.2,32.8c-0.9,0-1.6,0.2-1.6,0.9c0,0.3,0.2,0.6,0.6,0.7c0,0,0.1,0,0.1,0c0.4,0,0.8-0.3,0.9-0.6
		c0-0.1,0-0.2,0-0.3L19.2,32.8z"/>
	<path class="st0" d="M27.7,27.3v6.4c0,0.6,0,1.3,0,1.7h-1.5l-0.1-0.8h0c-0.4,0.6-1,1-1.7,0.9c-1.3,0-2.4-1.1-2.4-2.9
		c0-1.9,1.2-3,2.5-3c0.6,0,1.1,0.2,1.5,0.6h0v-3L27.7,27.3z M25.9,32.2c0-0.1,0-0.2,0-0.3c-0.1-0.5-0.5-0.8-1-0.8
		c-0.8,0-1.2,0.7-1.2,1.6c0,0.9,0.5,1.5,1.2,1.5c0.5,0,0.9-0.3,1-0.8c0-0.1,0-0.3,0-0.4L25.9,32.2z"/>
	<path class="st0" d="M29.9,29.1c-0.5,0-1-0.4-1-1c0-0.5,0.4-1,1-1c0.5,0,1,0.4,1,1C30.9,28.6,30.5,29.1,29.9,29.1L29.9,29.1z
		 M29.1,35.4v-5.6h1.7v5.6L29.1,35.4z"/>
	<path class="st0" d="M32.2,31.6c0-0.7,0-1.3,0-1.8h1.5l0.1,0.8h0c0.4-0.6,1-0.9,1.7-0.9c1.1,0,2,0.8,2,2.4v3.3h-1.7v-3.1
		c0-0.7-0.3-1.2-0.9-1.2c-0.4,0-0.8,0.3-0.9,0.7c0,0.1-0.1,0.3-0.1,0.4v3.2h-1.7L32.2,31.6z"/>
	<path class="st0" d="M44.2,34.6c0,1.1-0.2,2-0.9,2.5c-0.6,0.5-1.5,0.7-2.3,0.7c-0.7,0-1.4-0.1-2-0.4l0.3-1.3
		c0.5,0.3,1.1,0.4,1.6,0.4c0.8,0,1.5-0.4,1.5-1.5v-0.4h0c-0.4,0.5-0.9,0.7-1.5,0.7c-1.4,0-2.4-1.1-2.4-2.7c0-1.8,1.2-2.9,2.5-2.9
		c0.6,0,1.2,0.3,1.5,0.8h0l0.1-0.7h1.5c0,0.4,0,0.8,0,1.7L44.2,34.6z M42.4,32.1c0-0.1,0-0.2,0-0.3c-0.1-0.4-0.5-0.8-0.9-0.8
		c-0.6,0-1.1,0.6-1.1,1.6c0,0.8,0.4,1.5,1.1,1.5c0.4,0,0.8-0.3,0.9-0.7c0-0.2,0.1-0.3,0.1-0.5L42.4,32.1z"/>
	<path class="st0" d="M49.8,27.7v7.7H48v-7.7H49.8z"/>
	<path class="st0" d="M51.2,31.6c0-0.7,0-1.3,0-1.8h1.5l0.1,0.8h0c0.4-0.6,1-0.9,1.7-0.9c1.1,0,2,0.8,2,2.4v3.3h-1.7v-3.1
		c0-0.7-0.3-1.2-0.9-1.2c-0.4,0-0.8,0.3-0.9,0.7c0,0.1-0.1,0.3-0.1,0.4v3.2h-1.7L51.2,31.6z"/>
	<path class="st0" d="M57.9,31.6c0-0.7,0-1.3,0-1.8h1.5l0.1,0.8h0c0.4-0.6,1-0.9,1.7-0.9c1.1,0,2,0.8,2,2.4v3.3h-1.7v-3.1
		c0-0.7-0.3-1.2-0.9-1.2c-0.4,0-0.8,0.3-0.9,0.7c0,0.1-0.1,0.3-0.1,0.4v3.2h-1.7L57.9,31.6z"/>
	<path class="st0" d="M67.2,35.5c-1.6,0-2.9-1.1-2.9-2.9c0-1.8,1.2-3,3-3c1.7,0,2.8,1.2,2.8,2.9C70.1,34.6,68.7,35.5,67.2,35.5
		L67.2,35.5z M67.2,34.3c0.7,0,1.1-0.7,1.1-1.7c0-0.8-0.3-1.7-1.1-1.7c-0.8,0-1.1,0.8-1.1,1.7C66.1,33.6,66.5,34.3,67.2,34.3
		L67.2,34.3z"/>
	<path class="st0" d="M72.5,29.8l0.8,2.6c0.1,0.5,0.2,0.9,0.3,1.4h0c0.1-0.5,0.2-0.9,0.3-1.4l0.7-2.6h1.8l-2.1,5.6h-1.7l-2-5.6H72.5
		z"/>
	<path class="st0" d="M81.9,34c0,0.5,0,0.9,0.1,1.3h-1.6l-0.1-0.6h0c-0.4,0.5-1,0.7-1.6,0.7c-0.9,0.1-1.8-0.7-1.8-1.6
		c0,0,0-0.1,0-0.1c0-1.5,1.3-2.1,3.3-2.1v-0.1c0-0.3-0.2-0.7-1-0.7c-0.5,0-1.1,0.1-1.5,0.4l-0.3-1.1c0.7-0.3,1.4-0.5,2.2-0.5
		c1.9,0,2.4,1.1,2.4,2.4L81.9,34z M80.2,32.8c-0.9,0-1.6,0.2-1.6,0.9c0,0.3,0.2,0.6,0.6,0.7c0,0,0.1,0,0.1,0c0.4,0,0.8-0.3,0.9-0.6
		c0-0.1,0-0.2,0-0.3L80.2,32.8z"/>
	<path class="st0" d="M85.2,28.3v1.5h1.2v1.3h-1.2v2c0,0.7,0.2,1,0.7,1c0.2,0,0.3,0,0.5,0l0,1.3c-0.4,0.1-0.7,0.2-1.1,0.1
		c-0.5,0-1-0.2-1.3-0.5c-0.3-0.3-0.5-0.9-0.5-1.7v-2.3h-0.7v-1.3h0.7v-1.1L85.2,28.3z"/>
	<path class="st0" d="M88.4,29.1c-0.5,0-1-0.4-1-1c0-0.5,0.4-1,1-1c0.5,0,1,0.4,1,1C89.3,28.6,88.9,29.1,88.4,29.1L88.4,29.1z
		 M87.5,35.4v-5.6h1.7v5.6L87.5,35.4z"/>
	<path class="st0" d="M93.2,35.5c-1.6,0-2.9-1.1-2.9-2.9c0-1.8,1.2-3,3-3c1.7,0,2.8,1.2,2.8,2.9C96.1,34.6,94.7,35.5,93.2,35.5
		L93.2,35.5z M93.2,34.3c0.7,0,1.1-0.7,1.1-1.7c0-0.8-0.3-1.7-1.1-1.7c-0.8,0-1.1,0.8-1.1,1.7C92.1,33.6,92.5,34.3,93.2,34.3
		L93.2,34.3z"/>
	<path class="st0" d="M97.1,31.6c0-0.7,0-1.3,0-1.8h1.5l0.1,0.8h0c0.4-0.6,1-0.9,1.7-0.9c1.1,0,2,0.8,2,2.4v3.3h-1.7v-3.1
		c0-0.7-0.3-1.2-0.9-1.2c-0.4,0-0.8,0.3-0.9,0.7c0,0.1-0.1,0.3-0.1,0.4v3.2h-1.7L97.1,31.6z"/>
	<path class="st1" d="M106,27.7h2.7l4.1,3.9l-4.1,3.9H106l4.1-3.9L106,27.7z"/>
	<path class="st2" d="M111.6,27.7h2.7l4.1,3.9l-4.1,3.9h-2.7l4.1-3.9L111.6,27.7z"/>
	<path class="st0" d="M117.2,27.7h2.7l4.1,3.9l-4.1,3.9h-2.7l4.1-3.9L117.2,27.7z"/>
	<path class="st3" d="M98.1,20.9h4.2L98,6.5h-6l-4.4,14.5h4.2l0.8-2.7h4.8L98.1,20.9z M93.5,15l1.4-5h0l1.4,5H93.5z"/>
	<path class="st3" d="M25.2,21.2c4.4,0,6.5-0.8,6.8-4.7c0.1-0.9,0.1-1.9,0.1-2.8s0-1.9-0.1-2.8c-0.3-3.9-2.4-4.7-6.8-4.7
		s-6.5,0.8-6.8,4.7c-0.1,0.9-0.1,1.9-0.1,2.8c0,0.9,0,1.9,0.1,2.8C18.7,20.4,20.8,21.2,25.2,21.2z M22.5,13.7c0-0.8,0-1.3,0-1.6
		c0.1-2.2,1-2.5,2.7-2.5c1.7,0,2.6,0.3,2.7,2.5c0,0.3,0,0.8,0,1.6s0,1.3,0,1.6c-0.1,2.2-1,2.5-2.7,2.5c-1.7,0-2.6-0.3-2.7-2.5
		C22.5,14.8,22.5,14.2,22.5,13.7L22.5,13.7z"/>
	<path class="st3" d="M4,6.5v3.6h4.3v10.9h4.3V10.1H17V6.5H4z"/>
	<path class="st3" d="M66.3,6.5h4.1v14.5h-4.1V6.5z"/>
	<path class="st3" d="M53.9,11.7V6.5h-4.1v14.5h4.1v-5.6h4.7v5.6h4.1V6.5h-4.1v5.3H53.9z"/>
	<path class="st3" d="M83.9,13.4c1.8-0.5,2.4-1.6,2.4-3.1c0-3.2-2-3.8-4.8-3.8H74v14.5h7.7c3.6,0,4.8-1.5,4.8-3.9
		C86.5,15.4,86.1,13.9,83.9,13.4L83.9,13.4z M78.1,15h2.8c1.1,0,1.4,0.5,1.4,1.3c0,0.8-0.4,1.3-1.4,1.3h-2.8V15z M78.1,9.8h2.8
		c0.7,0,1.2,0.4,1.2,1.2c0,0.6-0.4,1.1-1,1.2c-0.1,0-0.1,0-0.2,0h-2.8V9.8z"/>
	<path class="st3" d="M34.4,16.2h3.9c0,0.7,0.1,1.2,0.4,1.4c0.4,0.3,0.7,0.4,1.9,0.4c1.1,0,2.3,0,2.3-1.4c0-1.1-0.7-1.3-1.9-1.4
		c-3.1-0.2-4.2-0.3-5.4-1.1c-0.8-0.6-1.2-1.7-1.2-3.3c0-2.6,0.9-3.5,2.2-4.2c1.4-0.7,6.7-0.7,8.1,0c1.8,0.8,1.9,2.6,1.9,4.3h-3.9
		c0-0.8-0.2-1.1-0.4-1.2c-0.4-0.4-1-0.4-1.8-0.4c-1,0-2.2,0-2.2,1.3c0,0.9,0.4,1.3,1.5,1.4c1.4,0.1,4.3,0.2,5.3,0.8
		c1.4,0.8,1.8,2,1.8,3.9c0,2.7-1,3.5-2.3,4.1c-1.5,0.7-6.7,0.7-8.4-0.1C34.5,19.8,34.4,18.2,34.4,16.2L34.4,16.2z"/>
</g>
</svg>
