<svg version="1.1" id="图层_1" xmlns="http://www.w3.org/2000/svg" x="0" y="0" viewBox="0 0 600 420.6" style="enable-background:new 0 0 600 420.6" xml:space="preserve"><style>.st3{fill:#008ce1}</style><path d="M87.6 0H54.1v38.2C64.1 24.4 75.3 11.6 87.6 0zM54.1 360.9v59.7h59.2c-22.7-16.8-42.7-36.9-59.2-59.7zm283-81.7v-.2h-2.6c-46.7 0-84.6-37.9-84.6-84.6 0-46.7 37.9-84.6 84.6-84.6h2.6c91 .3 171.6 44.9 221.4 113.3v-89.9c14.6 6.5 28.5 14.1 41.6 22.9V94.3h-42.6V0h-92.2c27.8 26.3 50.1 58.4 65 94.3H275.4c-57.7.5-104.3 47.4-104.3 105.3 0 57.8 46.6 104.8 104.3 105.2v.2h2.6c46.7 0 84.6 37.9 84.6 84.6 0 10.9-2.1 21.4-5.9 31h78.2c4.1-11.3 6.4-23.4 6.4-36.1.1-57.9-46.5-104.8-104.2-105.3z" style="fill:#0053a5"/><path d="M572.7 244.8c.1.2.2.3.3.5 3.4 5.8 6.6 11.8 9.7 17.9.1.2.2.5.3.7.7 1.3 1.3 2.7 1.9 4l.6 1.2c.6 1.3 1.2 2.7 1.8 4 .1.3.3.6.4.9 1.9 4.2 3.6 8.5 5.3 12.8.2.6.5 1.2.7 1.8.4 1.2.9 2.3 1.3 3.5.3.7.5 1.4.8 2.2.4 1.1.8 2.3 1.2 3.4.3.8.5 1.5.7 2.3l1.8 5.7.6 2.1V156.1c-13.1-8.8-27-16.5-41.6-22.9v90c5.1 6.9 9.8 14.2 14.2 21.6zm-14.3-21.7c-49.8-68.4-130.3-113-221.4-113.3h-2.6c-46.7 0-84.6 37.9-84.6 84.6 0 46.7 37.9 84.6 84.6 84.6h2.6v.2c57.7.5 104.3 47.4 104.3 105.3 0 12.7-2.2 24.8-6.4 36.1h123.4V223.1z" style="fill:#ef8200"/><path d="m600 307.9-.6-2.1-1.8-5.7c-.2-.8-.5-1.5-.7-2.3-.4-1.1-.8-2.3-1.2-3.4-.3-.7-.5-1.4-.8-2.2-.4-1.2-.8-2.3-1.3-3.5-.2-.6-.5-1.2-.7-1.8-1.6-4.3-3.4-8.6-5.3-12.8-.1-.3-.3-.6-.4-.9-.6-1.3-1.2-2.7-1.8-4l-.6-1.2c-.6-1.4-1.3-2.7-1.9-4-.1-.2-.2-.5-.3-.7-3-6.1-6.2-12-9.7-17.9-.1-.2-.2-.3-.3-.5-4.4-7.5-9.2-14.7-14.3-21.7v-.1 197.5H600V307.9z" style="fill:#e8440a"/><path class="st3" d="M278.1 304.9h-2.6v-.2c-57.7-.5-104.3-47.4-104.3-105.2 0-57.8 46.6-104.8 104.3-105.3h254.7c-14.9-35.9-37.2-67.9-65-94.3H87.6C75.3 11.6 64.1 24.4 54.1 38.2v322.7c16.6 22.8 36.5 42.9 59.2 59.7h243.6c3.8-9.6 5.9-20 5.9-31-.1-46.8-38-84.7-84.7-84.7z"/><path class="st3" d="M54 360.8c-5.1-7-9.9-14.3-14.3-21.7-.1-.1-.2-.3-.2-.4-3.4-5.9-6.7-11.8-9.7-18l-.3-.6c-.7-1.4-1.3-2.7-2-4.1-.2-.4-.4-.7-.5-1.1-.6-1.3-1.2-2.7-1.8-4.1-.1-.3-.2-.5-.3-.8-1.9-4.3-3.6-8.6-5.3-13-.2-.6-.4-1.2-.7-1.7-.4-1.2-.9-2.4-1.3-3.6-.2-.7-.5-1.4-.7-2.1-.4-1.2-.8-2.3-1.2-3.5-.2-.7-.5-1.5-.7-2.2-.6-2-1.3-4-1.9-6-.3-.9-.5-1.8-.8-2.7-.3-1-.6-2-.8-3.1-.3-1-.5-1.9-.8-2.9-.3-1-.5-2-.8-3-.3-1-.5-2.1-.8-3.1-.2-.9-.5-1.9-.7-2.8-.3-1.3-.6-2.6-.8-3.9l-.6-2.7c-.3-1.7-.7-3.5-1-5.2-.1-.8-.3-1.6-.4-2.4-.2-1.3-.4-2.5-.6-3.8-.1-.8-.3-1.7-.4-2.5-.2-1.3-.4-2.6-.6-4-.1-.8-.2-1.5-.3-2.3l-.6-5.4c0-.3-.1-.6-.1-.8-.2-2.1-.4-4.2-.6-6.2-.1-.7-.1-1.4-.1-2-.1-1.5-.2-2.9-.3-4.4 0-.8-.1-1.5-.1-2.3-.1-1.5-.1-3-.2-4.5 0-.7 0-1.3-.1-2 0-2.1-.1-4.3-.1-6.5s0-4.3.1-6.5c0-.7 0-1.3.1-2 0-1.5.1-3 .2-4.5 0-.8.1-1.5.1-2.3.1-1.5.2-3 .3-4.4 0-.7.1-1.3.1-2 .2-2.1.3-4.2.6-6.2 0-.3.1-.7.1-1 .2-1.8.4-3.5.6-5.3.1-.8.2-1.5.3-2.3l.6-3.9c.1-.8.3-1.7.4-2.5l.6-3.9c.1-.8.3-1.6.4-2.4.4-1.9.7-3.9 1.1-5.8.2-.8.3-1.5.5-2.3.3-1.2.5-2.5.8-3.7.2-1 .4-1.9.7-2.9.2-1 .5-2.1.8-3.1.3-1 .5-2 .8-3 .3-1 .5-1.9.8-2.9.3-1 .6-2.1.9-3.1.2-.9.5-1.7.8-2.5.6-2 1.2-4.1 1.9-6.1.2-.7.5-1.5.7-2.2.4-1.2.8-2.3 1.2-3.5.2-.7.5-1.4.7-2 .4-1.2.9-2.4 1.3-3.6.2-.5.4-1.1.6-1.6 1.7-4.4 3.4-8.7 5.3-13 .1-.3.2-.6.4-.9.6-1.4 1.2-2.7 1.9-4.1.2-.3.3-.7.5-1 .7-1.4 1.3-2.8 2-4.2 0-.1.1-.1.1-.2 3.1-6.3 6.4-12.4 9.9-18.3 0-.1.1-.1.1-.2 4.4-7.5 9.2-14.8 14.4-21.9V0H0v419c.7.5 1.4 1.1 2.1 1.6H54v-59.8c.1.1.1.1 0 0zM557.4 0H600v94.3h-42.6z"/><path d="M39.6 60.2c-3.5 6-6.8 12.1-9.9 18.3 0 .1-.1.1-.1.2-.7 1.4-1.4 2.8-2 4.2-.2.3-.3.7-.5 1-.6 1.4-1.3 2.7-1.9 4.1-.1.3-.2.6-.4.9-1.9 4.3-3.6 8.6-5.3 13-.2.5-.4 1.1-.6 1.6-.4 1.2-.9 2.4-1.3 3.6-.2.7-.5 1.4-.7 2-.4 1.2-.8 2.3-1.2 3.5-.2.7-.5 1.5-.7 2.2-.7 2-1.3 4.1-1.9 6.1-.3.8-.5 1.7-.8 2.5-.3 1-.6 2.1-.9 3.1-.3 1-.5 1.9-.8 2.9-.3 1-.5 2-.8 3-.3 1-.5 2.1-.8 3.1-.2 1-.5 1.9-.7 2.9-.3 1.2-.5 2.5-.8 3.7-.2.8-.3 1.5-.5 2.3-.4 1.9-.8 3.8-1.1 5.8-.1.8-.3 1.6-.4 2.4l-.6 3.9c-.1.8-.3 1.7-.4 2.5l-.6 3.9c-.1.8-.2 1.5-.3 2.3-.2 1.7-.4 3.5-.6 5.3 0 .3-.1.7-.1 1-.2 2.1-.4 4.2-.6 6.2-.1.7-.1 1.3-.1 2-.1 1.5-.2 3-.3 4.4 0 .8-.1 1.5-.1 2.3-.1 1.5-.1 3-.2 4.5 0 .7 0 1.3-.1 2 0 2.2-.1 4.3-.1 6.5s0 4.3.1 6.5c0 .7 0 1.4.1 2 0 1.5.1 3 .2 4.5 0 .8.1 1.5.1 2.3.1 1.5.2 2.9.3 4.4 0 .7.1 1.4.1 2 .2 2.1.3 4.2.6 6.2 0 .3.1.6.1.8l.6 5.4c.1.8.2 1.5.3 2.3.2 1.3.4 2.6.6 4 .1.8.3 1.7.4 2.5.2 1.3.4 2.6.6 3.8.1.8.3 1.6.4 2.4.3 1.7.6 3.5 1 5.2l.6 2.7c.3 1.3.5 2.6.8 3.9.2.9.4 1.9.7 2.8.2 1 .5 2.1.8 3.1.3 1 .5 2 .8 3 .3 1 .5 1.9.8 2.9.3 1 .6 2 .8 3.1.3.9.5 1.8.8 2.7.6 2 1.2 4 1.9 6 .2.7.5 1.5.7 2.2.4 1.2.8 2.3 1.2 3.5.2.7.5 1.4.7 2.1.4 1.2.9 2.4 1.3 3.6.2.6.4 1.2.7 1.7 1.7 4.4 3.4 8.7 5.3 13 .1.3.2.5.3.8.6 1.4 1.2 2.7 1.8 4.1.2.4.3.8.5 1.1.6 1.4 1.3 2.7 2 4.1l.3.6c3 6.1 6.2 12.1 9.7 18 .1.1.2.3.2.4 4.4 7.5 9.2 14.7 14.3 21.7v.1V38.2c-5.1 7-9.9 14.3-14.4 21.9.2 0 .1.1.1.1z" style="fill:#1d2087"/></svg>