<svg xmlns="http://www.w3.org/2000/svg" viewBox="0 0 198.14 55.49">
	<defs>
		<style>.cls-1,.cls-2{fill:#f08300;fill-rule:evenodd}.cls-2{fill:#0053a6}</style>
	</defs>
	<g>
		<path class="cls-1" d="M50.47 15.75a20.76 20.76 0 010 38z"/>
		<path class="cls-2" d="M197.66 21.21l-10.64-4.48h5.25l5.39 2.07v2.41zm-20.84-4.48l-10.65 4.48V18.8l5.4-2.07h5.25zm21.32 5.74v3.62l-1.81-.81v4.77a2.9 2.9 0 01-2.88 2.88h-25v-8.14l-2.74 1.3v-3.62l9.29-4.25h13.82l9.31 4.25zm-6.06 1.15h-19v1.14h19v-1.14zm-16.48-2.18h12.63l-2.69-1.08h-7.38l-2.56 1.08zm16.48 8.17h-19v1.14h18.39a.53.53 0 00.6-.59v-.55zm0-2.89h-19v1h19zm3.18-16.51a2.89 2.89 0 012.88 2.89v2h-1.36v1.1h-29.72v-1.1h-1.41v-4.89h11.8V6.62h4.66v.91h13.78v2.08h-13.78v.6zm-1.77 3.18a.69.69 0 00-.21-.5.68.68 0 00-.49-.2h-22.48v1h23.18zm-34.06-2.45a3.84 3.84 0 00-.33-1.59 4.55 4.55 0 00-.89-1.3 4.08 4.08 0 00-1.29-.87 4 4 0 00-1.56-.31h-27.87l-.07 14.71h29.78a2 2 0 002.23-2.2v-8.44zm-6.29-.94a1.12 1.12 0 01.82.34 1.15 1.15 0 01.33.85v1.46h-8.95V10zm1.15 8.34h-8.95v-2.9h8.95v2.9zm-21.66 0v-2.9h7.58v2.9zm0-8.34h7.58v2.65h-7.58zm-12.54.84c-6.69 6.7-21.39 9.44-30 9.89v-2.31c0-.81.25-1 1.14-1 7.67-.56 16.19-1.83 23.11-6.74a.37.37 0 00-.18-.69H90.75V7.08l.07-.21h27.92a2 2 0 012.08 2v.37c0 .76-.07.94-.73 1.6z"/>
		<path class="cls-2" d="M120.82 18.1v2.51c-9-.46-24-2.78-30.07-10h5.54c8 4.89 14.72 5.92 23.76 6.66a.74.74 0 01.77.83zm-11.03 22h3.46a1.71 1.71 0 011.45 1.06l4.13 11h-3.23l-1.07-2.84h-6l-1.06 2.83h-3.24l4.13-11a1.71 1.71 0 011.45-1.06zm-12.63 7.38l.53.15c2.62.87 2.21 2.55 0 2.55h-7.8v1.93h7.71c7.31 0 6.14-5.12 2.78-6.07l-4.63-1.3-.53-.15c-2.62-.87-2.21-2.55 0-2.55h7.82v-1.93h-7.73c-7.31 0-6.14 5.12-2.78 6.07l4.63 1.3zm91.44-2.24h8.21v1.94h-8.2v1.43a1.56 1.56 0 001.78 1.6h7.49v1.9h-9.19a3.31 3.31 0 01-3.5-3.4V43.5a3.31 3.31 0 013.5-3.4h9.19V42h-7.48a1.55 1.55 0 00-1.78 1.6v1.64zm-14.67 0h8.21v1.94h-8.21v1.43a1.56 1.56 0 001.78 1.6h7.49v1.9H174a3.31 3.31 0 01-3.5-3.4V43.5a3.31 3.31 0 013.5-3.4h9.19V42h-7.49a1.55 1.55 0 00-1.78 1.6v1.64zm-6.8 1a3.32 3.32 0 011 2.45v3.41h-3.43v-3.3a1.55 1.55 0 00-1.78-1.59H160v-1.9h2.94a1.55 1.55 0 001.78-1.59v-.12a1.55 1.55 0 00-1.8-1.6h-4.29v10.11h-3.18v-12h9.17a3.3 3.3 0 013.49 3.4v.3a3.29 3.29 0 01-1 2.45zm-39.4-6.15h3.69c.86 0 1.45.85 1.73 1.57l3.25 8.13c.27.55.81.37.81-.12V40.1h3.18v11.1a.92.92 0 01-.92.91h-3.69c-.86 0-1.45-.85-1.73-1.57l-3.25-8.13c-.27-.55-.81-.37-.81.12v9.58h-3.18V41a.92.92 0 01.92-.91zm14.29 0h11.68V42h-3.78a.46.46 0 00-.47.51v9.57h-3.18v-9.55c0-.3-.12-.5-.45-.5H142V40.1zm-21.16 0H124v12h-3.17v-12zm-7 7.25l-1.87-5a.45.45 0 00-.83 0l-1.87 5z"/>
		<path class="cls-1" d="M33.67 55.49a20.76 20.76 0 01-19.17-12.8h19.24a8 8 0 000-15.9h-.2a6.4 6.4 0 010-12.79h.2a20.76 20.76 0 01-.07 41.51z"/><path d="M50.47 22.54a20.76 20.76 0 010 24.39z" fill="#e9450a" fill-rule="evenodd"/>
		<path class="cls-1" d="M12.44 53.67a20.8 20.8 0 01-10.21-11h10.21z"/>
		<path class="cls-2" d="M29.16 0a20.76 20.76 0 0119.17 12.8H29.09a8 8 0 000 15.91h.2a6.4 6.4 0 010 12.79h-.2A20.76 20.76 0 0129.16 0z"/>
		<path class="cls-2" d="M12.36 39.74a20.76 20.76 0 010-38zM50.39 1.81a20.86 20.86 0 0110.21 11H50.39zM107 20.53c.64 0 1 .3 1 .89v.65c0 .5.27.74.8.74H119c.64 0 1 .31 1 .89V25c0 .59-.33.89-1 .89h-10.27c-.53 0-.8.25-.8.74v1.81c0 .5.27.74.8.75h11.55c.63 0 1 .29 1 .88v1.59c0 .59-.33.89-1 .89H90.93c-.64 0-1-.3-1-.89v-1.57c0-.59.32-.89 1-.88h11.55c.53 0 .79-.25.79-.75v-1.81c0-.49-.27-.74-.79-.74H92.21c-.64 0-1-.3-1-.89V23.7c0-.58.32-.89 1-.89h10.27c.53 0 .79-.24.79-.74v-.65c0-.59.32-.89 1-.89zm20.68 3.37c.09-.65.41-1 1-1h2.72c.64 0 .9.3.86.89a45.56 45.56 0 01-.92 7.69c-.14.64-.41 1-1 1h-2.72c-.64 0-1-.3-.86-.89a69.5 69.5 0 00.92-7.69zm6.78-.03c0-.63.3-.95.9-.95h2.94c.63 0 .95.3.95.89v4c-.12 1.09.4 1.55 1.57 1.4h11.63c.64 0 1 .29 1 .88v1.59c0 .59-.32.89-1 .89h-15.53a2.39 2.39 0 01-2.46-2.25z"/>
		<path class="cls-2" d="M148.27 23.9c-.08-.65-.4-1-1-1h-2.72c-.63 0-.92.3-.86.89l.5 3.45c.08.66.4 1 1 1h2.71c.64 0 .92-.3.86-.89zm10.37 0c-.08-.65-.4-1-1-1H155c-.64 0-.9.3-.86.89a44.55 44.55 0 00.86 7.71c.14.64.41 1 1 1h2.72c.63 0 1-.3.86-.89a69.49 69.49 0 01-.94-7.71z"/>
		<path d="M12.36 33a20.76 20.76 0 010-24.39z" fill="#1d2088" fill-rule="evenodd"/>
	</g>
</svg>